<?xml version="1.0" encoding="UTF-8" standalone="no"?>
<svg
   xmlns:dc="http://purl.org/dc/elements/1.1/"
   xmlns:cc="http://creativecommons.org/ns#"
   xmlns:rdf="http://www.w3.org/1999/02/22-rdf-syntax-ns#"
   xmlns:svg="http://www.w3.org/2000/svg"
   xmlns="http://www.w3.org/2000/svg"
   id="svg11"
   xml:space="preserve"
   enable-background="new 0 0 200 200"
   viewBox="0 0 200 200"
   y="0px"
   x="0px"
   version="1.1"><metadata
     id="metadata15"><rdf:RDF><cc:Work
         rdf:about=""><dc:format>image/svg+xml</dc:format><dc:type
           rdf:resource="http://purl.org/dc/dcmitype/StillImage" /></cc:Work></rdf:RDF></metadata><defs
     id="defs692341" /><linearGradient
     spreadMethod="pad"
     y2="30%"
     x2="-10%"
     y1="120%"
     x1="30%"
     id="3d_gradient2-logo-14b7f1aa-da06-43f2-bd66-a2e08a4a073e"><stop
       id="stop692318"
       stop-opacity="1"
       stop-color="#ffffff"
       offset="0%" /><stop
       id="stop692320"
       stop-opacity="1"
       stop-color="#000000"
       offset="100%" /></linearGradient><linearGradient
     gradientTransform="rotate(-30)"
     spreadMethod="pad"
     y2="30%"
     x2="-10%"
     y1="120%"
     x1="30%"
     id="3d_gradient3-logo-14b7f1aa-da06-43f2-bd66-a2e08a4a073e"><stop
       id="stop692323"
       stop-opacity="1"
       stop-color="#ffffff"
       offset="0%" /><stop
       id="stop692325"
       stop-opacity="1"
       stop-color="#cccccc"
       offset="50%" /><stop
       id="stop692327"
       stop-opacity="1"
       stop-color="#000000"
       offset="100%" /></linearGradient><path
     style="fill:#853d46;stroke-width:1.27150071"
     d="m 151.60892,40.000153 c -0.54859,0.0036 -1.07457,0.05161 -1.45918,0.134322 -0.33014,0.07141 -1.50723,0.439023 -2.61573,0.816532 -1.10779,0.376809 -2.92114,1.013768 -4.02964,1.414672 -1.10779,0.40084 -2.89851,1.066089 -3.97941,1.476848 -1.08023,0.411445 -2.87728,1.11133 -3.99429,1.555299 -1.11629,0.44397 -2.772,1.112742 -3.67896,1.487402 -0.90773,0.373974 -2.53016,1.056897 -3.60547,1.516392 -1.07598,0.460232 -2.92611,1.266859 -4.11229,1.792816 -1.18556,0.525969 -2.98332,1.337618 -3.99429,1.803496 -1.01095,0.465179 -2.35419,1.08871 -2.98472,1.384919 -0.63132,0.296209 -2.42844,1.160816 -3.99429,1.921492 -1.56662,0.760688 -4.13569,2.045209 -5.71082,2.855409 -1.57438,0.810175 -3.54749,1.838081 -4.38312,2.283488 -0.83562,0.446093 -2.21979,1.192629 -3.075252,1.659181 -0.855415,0.46659 -2.22271,1.223031 -3.037742,1.681178 -0.815833,0.458109 -2.200078,1.246364 -3.075252,1.751111 -0.875924,0.505473 -2.626285,1.540423 -3.890411,2.299763 -1.263325,0.759264 -2.93386,1.77794 -3.71151,2.263653 -0.77765,0.486387 -2.129382,1.344612 -3.004556,1.908777 -0.8745,0.56344 -2.337909,1.524911 -3.25199,2.136375 -0.913383,0.612228 -2.520242,1.714365 -3.57012,2.450309 -1.049827,0.735945 -2.545036,1.805531 -3.322686,2.376054 -0.77765,0.571222 -2.06568,1.536863 -2.863165,2.146293 -0.796735,0.610104 -2.005665,1.554537 -2.686427,2.099629 -0.680087,0.545067 -1.79218,1.454215 -2.470144,2.019779 -0.677964,0.565564 -1.775142,1.503041 -2.438993,2.084117 -0.663126,0.580414 -1.762427,1.566616 -2.443188,2.191558 -0.680088,0.624943 -2.065045,1.963197 -3.076651,2.974803 -1.011656,1.010945 -2.316674,2.363339 -2.900674,3.005319 -0.583238,0.641206 -1.442136,1.611882 -1.908014,2.156211 -0.46659,0.544355 -1.167886,1.38708 -1.559496,1.87343 -0.391647,0.48567 -1.102137,1.40831 -1.579331,2.05017 -0.477194,0.6412 -1.241417,1.72288 -1.698089,2.40364 -0.456698,0.68009 -1.035688,1.57081 -1.287394,1.97947 -0.250969,0.40791 -0.681499,1.13961 -0.9558,1.626 -0.274301,0.48567 -0.769169,1.42446 -1.098602,2.08551 -0.330145,0.66101 -0.752195,1.55174 -0.938126,1.97948 -0.18522,0.4277 -0.472248,1.12759 -0.636971,1.5553 -0.164723,0.4277 -0.460233,1.27039 -0.657468,1.87343 -0.196536,0.60232 -0.469412,1.54118 -0.606569,2.08551 -0.136445,0.54436 -0.31106,1.30787 -0.387414,1.69669 -0.07635,0.38883 -0.188754,1.0569 -0.249557,1.48461 -0.0608,0.4277 -0.145638,1.12759 -0.188754,1.5553 -0.04313,0.4277 -0.07776,1.50939 -0.07705,2.40364 0,1.00175 0.04454,2.02893 0.113824,2.67511 0.06291,0.57759 0.193701,1.48384 0.291975,2.01482 0.09756,0.53093 0.257326,1.28384 0.354889,1.67266 0.09756,0.38883 0.289851,1.07245 0.426995,1.51995 0.137856,0.44679 0.457397,1.33686 0.711201,1.97731 0.253092,0.64051 0.699173,1.64304 0.99186,2.22691 0.291975,0.58465 0.723916,1.39623 0.958635,1.80489 0.235418,0.40791 0.656756,1.09507 0.936715,1.52631 0.279959,0.43196 0.796735,1.17921 1.148088,1.66135 0.351354,0.48285 0.972775,1.28383 1.380723,1.7815 0.40791,0.49699 1.154459,1.35592 1.659181,1.90877 0.504761,0.55214 1.343214,1.41887 1.862876,1.92429 0.520324,0.50617 1.375001,1.30151 1.900258,1.76739 0.524557,0.46659 1.304305,1.13748 1.732038,1.49172 0.426995,0.35418 1.223743,0.99256 1.770183,1.41747 0.546479,0.42559 1.485367,1.12617 2.085516,1.5567 0.600911,0.42983 1.505838,1.05265 2.01126,1.38352 0.505472,0.33015 1.348808,0.84835 1.873429,1.15021 0.525269,0.30258 1.524148,0.83067 2.219786,1.17426 0.69635,0.34357 1.682577,0.78895 2.191558,0.98974 0.509719,0.20076 1.24424,0.47365 1.632353,0.60656 0.388825,0.1322 1.080229,0.34923 1.536863,0.48214 0.456697,0.1322 1.379959,0.35207 2.05093,0.48709 0.670895,0.13503 1.650027,0.30329 2.174648,0.37256 0.74796,0.0997 1.443662,0.12726 3.216642,0.12726 1.792816,7.1e-4 2.460227,-0.0262 3.216643,-0.12796 0.52527,-0.0707 1.368008,-0.20785 1.873429,-0.3054 0.505472,-0.0969 1.23717,-0.25521 1.625995,-0.35206 0.388825,-0.0969 1.083764,-0.28773 1.543983,-0.42489 0.460233,-0.13644 1.287395,-0.4178 1.838082,-0.62494 0.550725,-0.20714 1.382757,-0.54294 1.849398,-0.74584 0.46659,-0.2036 1.2301,-0.56061 1.69669,-0.79391 0.46659,-0.23401 1.278113,-0.66382 1.802734,-0.95651 0.52527,-0.29268 1.336093,-0.77199 1.802734,-1.06538 0.466589,-0.2941 1.198287,-0.77199 1.625995,-1.06255 0.427707,-0.28986 1.318419,-0.93247 1.979472,-1.42663 0.661002,-0.49487 1.615435,-1.23928 2.120865,-1.65422 0.50547,-0.41568 1.42802,-1.20393 2.05016,-1.75251 0.62212,-0.5493 2.08692,-1.95468 3.25555,-3.12331 1.1686,-1.1693 2.65185,-2.71466 3.2965,-3.43369 0.64545,-0.71968 1.5942,-1.80134 2.10891,-2.40365 0.51465,-0.60303 1.54614,-1.85931 2.29264,-2.79247 0.74655,-0.93318 1.70801,-2.15837 2.13638,-2.72177 0.42911,-0.56415 1.20818,-1.61404 1.73127,-2.33295 0.52315,-0.71968 1.3984,-1.94413 1.94413,-2.72177 0.54576,-0.77765 1.59776,-2.321 2.33651,-3.42873 0.73947,-1.10851 1.71296,-2.59387 2.16396,-3.30082 0.45033,-0.70767 1.11133,-1.75747 1.46973,-2.33295 0.35772,-0.57617 1.05549,-1.71513 1.55034,-2.53156 0.49487,-0.81653 1.26545,-2.10535 1.7122,-2.86316 0.4468,-0.75857 1.33762,-2.30116 1.97871,-3.42873 0.64122,-1.12759 1.59485,-2.82998 2.11947,-3.78221 0.52455,-0.95297 1.46337,-2.68642 2.08628,-3.8529 0.62281,-1.16647 1.59344,-3.01167 2.15761,-4.100334 0.56344,-1.08871 1.76458,-3.458482 2.66799,-5.265411 0.9042,-1.807693 2.0728,-4.177389 2.59805,-5.266811 0.52527,-1.089421 1.38352,-2.887196 1.90802,-3.99569 0.52384,-1.108507 1.50583,-3.213083 2.181,-4.677216 0.67584,-1.464769 1.78926,-3.914442 2.47574,-5.443549 0.68575,-1.529869 1.74755,-3.926394 2.36054,-5.326189 0.61223,-1.399795 1.6719,-3.849341 2.35419,-5.443549 0.68151,-1.594207 1.62739,-3.821114 2.10039,-4.94868 0.47366,-1.127593 1.4429,-3.466238 2.15341,-5.196115 0.71119,-1.73064 1.34398,-3.305012 1.40539,-3.499424 0.0622,-0.194413 0.14705,-0.50972 0.18877,-0.699885 0.0409,-0.190878 0.10464,-0.65181 0.13996,-1.025084 0.0389,-0.408622 0.0389,-0.945908 0,-1.350334 -0.0353,-0.36974 -0.1435,-0.982666 -0.24036,-1.363049 -0.0969,-0.379632 -0.31813,-0.991859 -0.49274,-1.359488 -0.17391,-0.367616 -0.48568,-0.915506 -0.69211,-1.217373 -0.20643,-0.302579 -0.64616,-0.821479 -0.97701,-1.154459 -0.33085,-0.332981 -0.83986,-0.766334 -1.13184,-0.96217 -0.29126,-0.196536 -0.72109,-0.453163 -0.95438,-0.57051 -0.2333,-0.116647 -0.65181,-0.294797 -0.92965,-0.394483 -0.27783,-0.09969 -0.76704,-0.231171 -1.08589,-0.291263 -0.34003,-0.06504 -0.93529,-0.108166 -1.4387,-0.105331 z m -23.35365,25.869954 c 0.18663,-7.07e-4 0.42842,0.04524 0.53728,0.101796 0.10884,0.05656 0.29692,0.214909 0.41782,0.352765 0.12092,0.137144 0.25379,0.377509 0.2962,0.533751 0.0523,0.195124 0.0538,0.366205 0.005,0.548601 -0.0558,0.206428 -5.93346,6.980412 -26.5146,30.557977 -16.800342,19.247973 -26.470105,30.378693 -26.519693,30.527463 -0.04313,0.12866 -0.05727,0.34428 -0.03181,0.4786 0.02545,0.13432 0.144925,0.35632 0.265108,0.49417 0.120894,0.13786 0.342161,0.31247 0.491333,0.38883 0.149172,0.0764 0.407211,0.15694 0.573345,0.17956 0.165422,0.0226 0.44397,0.004 0.618585,-0.0431 0.174615,-0.0467 0.761387,-0.30682 1.30367,-0.57829 0.542943,-0.27148 1.433744,-0.7522 1.979472,-1.06821 0.546478,-0.31529 1.534066,-0.90631 2.195119,-1.31283 0.661002,-0.40649 1.742592,-1.08942 2.403645,-1.51779 0.661002,-0.42842 1.774506,-1.16011 2.47434,-1.62739 0.699885,-0.46659 1.686137,-1.13466 2.191559,-1.48537 0.505472,-0.34994 1.794214,-1.25909 2.863165,-2.01978 1.069625,-0.76068 2.946576,-2.13281 4.171031,-3.04905 1.224442,-0.91622 2.894951,-2.1866 3.711511,-2.82363 0.81653,-0.63625 2.04165,-1.60336 2.72177,-2.14909 0.6808,-0.54506 1.77794,-1.43514 2.43899,-1.97807 0.66101,-0.54294 1.71081,-1.4181 2.33295,-1.94552 0.62212,-0.52668 1.75188,-1.49732 2.50969,-2.15761 0.75857,-0.65959 1.84024,-1.61392 2.40365,-2.12087 0.56415,-0.50688 1.4387,-1.30227 1.94412,-1.76814 0.50547,-0.46588 1.82537,-1.71157 2.93386,-2.769206 1.10851,-1.057609 2.69914,-2.618528 3.53617,-3.468272 0.83633,-0.849757 2.00134,-2.053728 2.5889,-2.675874 0.58749,-0.622119 1.63096,-1.751873 2.31808,-2.509688 0.68787,-0.758564 1.35173,-1.432981 1.47608,-1.49948 0.12372,-0.06645 0.35418,-0.122306 0.51183,-0.123717 0.17179,-0.0014 0.43337,0.06998 0.65181,0.178862 0.22057,0.11029 0.42276,0.276424 0.51254,0.421349 0.0813,0.131499 0.16544,0.349231 0.18735,0.482853 0.0226,0.137144 -0.0282,0.564152 -0.1152,0.974885 -0.0848,0.402252 -0.23612,1.001752 -0.3358,1.33266 -0.0997,0.330145 -0.34711,1.015891 -0.55072,1.522113 -0.20289,0.506884 -0.65888,1.493124 -1.01235,2.191559 -0.35348,0.699173 -0.9558,1.795613 -1.33826,2.43823 -0.38246,0.642616 -1.03993,1.692496 -1.46121,2.332946 -0.42135,0.64051 -1.1177,1.65779 -1.54754,2.26086 -0.42912,0.60232 -1.25484,1.72492 -1.83452,2.49341 -0.57899,0.76917 -1.55314,2.02537 -2.16473,2.79247 -0.6108,0.76705 -1.68042,2.0784 -2.37605,2.91479 -0.69635,0.83562 -1.74412,2.07636 -2.32939,2.75712 -0.58536,0.68009 -1.79002,2.05653 -2.67651,3.05834 -0.88723,1.00175 -2.42844,2.71961 -3.42517,3.81756 -0.99681,1.09789 -2.78471,2.9692 -3.97242,4.15831 -1.1884,1.18981 -2.66952,2.62285 -3.29154,3.18549 -0.62212,0.56274 -1.57653,1.40616 -2.12086,1.87483 -0.544352,0.468 -1.662103,1.38911 -2.483493,2.04597 -0.821478,0.65747 -2.078395,1.62384 -2.79247,2.14769 -0.714023,0.52456 -1.918694,1.37144 -2.677271,1.88195 -0.757853,0.51113 -1.853594,1.22303 -2.434034,1.58353 -0.579703,0.35983 -1.582129,0.95651 -2.226907,1.32694 -0.644027,0.36974 -1.775905,0.98338 -2.514646,1.36368 -0.738768,0.38033 -1.83592,0.91408 -2.438993,1.18626 -0.602323,0.27148 -1.588486,0.6914 -2.191559,0.93389 -0.602322,0.24178 -1.75111,0.65747 -2.551393,0.92329 -0.80027,0.26581 -1.961798,0.60868 -2.580384,0.76209 -0.618585,0.15412 -1.442899,0.34358 -1.831723,0.42206 -0.388825,0.0785 -1.040635,0.19088 -1.449257,0.25026 -0.40791,0.0586 -1.071748,0.14067 -1.474686,0.18098 -0.402252,0.0403 -1.404754,0.0735 -2.226907,0.0735 -0.865307,0 -1.867834,-0.0439 -2.37885,-0.10388 -0.485676,-0.0566 -1.206769,-0.16826 -1.602727,-0.24814 -0.395895,-0.0792 -0.996806,-0.22482 -1.335457,-0.32308 -0.338626,-0.0983 -0.921864,-0.29197 -1.295151,-0.43124 -0.373974,-0.13927 -1.076694,-0.45458 -1.563056,-0.7013 -0.485675,-0.24673 -1.201822,-0.66171 -1.590647,-0.92187 -0.388825,-0.26015 -0.945196,-0.66595 -1.23717,-0.90278 -0.291263,-0.23612 -0.848346,-0.74866 -1.23717,-1.1389 -0.388825,-0.39025 -0.923987,-0.97913 -1.189807,-1.30926 -0.26582,-0.33015 -0.74796,-0.99822 -1.071748,-1.48384 -0.324487,-0.48639 -0.768457,-1.20465 -0.986914,-1.59625 -0.218443,-0.39236 -0.598787,-1.15587 -0.845522,-1.69669 -0.246722,-0.54152 -0.610804,-1.42942 -0.808751,-1.97387 -0.197947,-0.54436 -0.457397,-1.30787 -0.577579,-1.69669 -0.11947,-0.38883 -0.32661,-1.1276 -0.460232,-1.64227 -0.13361,-0.51396 -0.352066,-1.46833 -0.486388,-2.12087 -0.133609,-0.65181 -0.324487,-1.7108 -0.422761,-2.35202 -0.09897,-0.64192 -0.250257,-1.78722 -0.337215,-2.54504 -0.118058,-1.03356 -0.156941,-1.76738 -0.154118,-2.93386 0.0022,-1.23363 0.03535,-1.76738 0.158353,-2.58038 0.08555,-0.56415 0.248146,-1.41111 0.360546,-1.88258 0.112401,-0.47154 0.349231,-1.29236 0.526681,-1.82321 0.17815,-0.53093 0.515365,-1.40196 0.750783,-1.93497 0.235419,-0.53305 0.653933,-1.38276 0.928933,-1.8883 0.275713,-0.50548 0.710489,-1.25344 0.967116,-1.66135 0.255915,-0.40862 0.750084,-1.14032 1.097903,-1.62599 0.34712,-0.48639 0.866731,-1.1799 1.154459,-1.54259 0.287728,-0.36195 0.80734,-0.98832 1.155871,-1.39127 0.347819,-0.40297 1.037099,-1.16153 1.532031,-1.68461 0.494868,-0.52386 1.377162,-1.40616 1.9604,-1.961803 0.583237,-0.555671 1.553901,-1.4415 2.156211,-1.969554 0.603034,-0.528093 1.443661,-1.245651 1.869233,-1.595606 0.425584,-0.349231 1.316384,-1.057609 1.979472,-1.574373 0.663126,-0.516076 1.922255,-1.457775 2.796666,-2.093271 0.875212,-0.634848 2.152015,-1.541186 2.838371,-2.013422 0.686458,-0.471536 2.022576,-1.36165 2.969208,-1.97731 0.946607,-0.615051 2.310317,-1.484604 3.029351,-1.932046 0.719682,-0.447504 1.912337,-1.179901 2.651079,-1.626758 0.738767,-0.447504 1.96396,-1.179901 2.721774,-1.628156 0.758565,-0.447505 2.523802,-1.466168 3.923597,-2.263653 1.399795,-0.797447 3.642977,-2.054364 4.984028,-2.793233 1.341815,-0.739479 3.377869,-1.852958 4.524508,-2.47434 1.14739,-0.62212 4.532262,-2.44179 7.522702,-4.045152 2.99108,-1.602727 6.17238,-3.310607 7.06955,-3.794921 0.89783,-0.484264 1.76814,-0.914794 1.9342,-0.956512 0.22553,-0.05727 0.38176,-0.05373 0.61646,0.01208 0.17321,0.04808 0.42207,0.19159 0.55214,0.318842 0.13079,0.126539 0.29056,0.34216 0.3556,0.479317 0.0651,0.136445 0.11812,0.379632 0.11812,0.540108 0,0.161188 -0.0439,0.394483 -0.0983,0.519612 -0.0538,0.125128 -0.23683,0.357724 -0.4065,0.516789 -0.16967,0.159064 -0.92824,0.793912 -1.68677,1.410348 -0.75786,0.616462 -2.44396,2.012023 -3.74686,3.101445 -1.30291,1.088709 -2.79743,2.345664 -3.32269,2.793232 -0.52527,0.447505 -1.73344,1.481807 -2.68643,2.298365 -0.95226,0.816532 -2.495567,2.153414 -3.428721,2.969971 -0.93318,0.817245 -2.284887,2.010624 -3.004556,2.651842 -0.71897,0.641917 -2.010624,1.809091 -2.869523,2.593862 -0.954388,0.872376 -1.652188,1.568014 -1.794214,1.789255 -0.142103,0.22128 -0.246735,0.488511 -0.268643,0.68787 -0.02619,0.231883 -0.0013,0.392359 0.08557,0.553547 0.06714,0.125129 0.238953,0.291975 0.381056,0.371151 0.142802,0.07848 0.390948,0.164723 0.550712,0.190878 0.160476,0.02616 0.493457,0.01132 0.738768,-0.03322 0.246022,-0.04454 0.65111,-0.173916 0.899955,-0.286317 0.248845,-0.113112 1.061843,-0.6306 1.806294,-1.149513 0.744426,-0.519611 1.910938,-1.325539 2.590937,-1.79218 0.6808,-0.46659 2.446115,-1.659181 3.923595,-2.650316 1.47748,-0.991859 4.1025,-2.752163 5.83237,-3.911518 1.73064,-1.160117 3.95755,-2.666591 4.94869,-3.347479 0.99185,-0.681499 2.54999,-1.764589 3.46407,-2.407206 0.9141,-0.642616 2.1866,-1.548942 2.82782,-2.014057 0.6412,-0.465178 1.8508,-1.360887 2.68643,-1.990788 0.83561,-0.629902 2.09263,-1.600565 2.79247,-2.156974 0.69988,-0.556371 1.74335,-1.406153 2.31883,-1.888942 0.57617,-0.48214 1.13254,-0.921863 1.23717,-0.976309 0.10528,-0.05443 0.34359,-0.09969 0.53022,-0.09969 z"
     id="icon" /></svg>