<?xml version="1.0" encoding="UTF-8" standalone="no"?>
<svg
   xmlns:dc="http://purl.org/dc/elements/1.1/"
   xmlns:cc="http://creativecommons.org/ns#"
   xmlns:rdf="http://www.w3.org/1999/02/22-rdf-syntax-ns#"
   xmlns:svg="http://www.w3.org/2000/svg"
   xmlns="http://www.w3.org/2000/svg"
   id="svg11"
   xml:space="preserve"
   enable-background="new 0 0 200 200"
   viewBox="0 0 200 200"
   y="0px"
   x="0px"
   version="1.1"><metadata
     id="metadata15"><rdf:RDF><cc:Work
         rdf:about=""><dc:format>image/svg+xml</dc:format><dc:type
           rdf:resource="http://purl.org/dc/dcmitype/StillImage" /></cc:Work></rdf:RDF></metadata><defs
     id="defs271218" /><linearGradient
     spreadMethod="pad"
     y2="30%"
     x2="-10%"
     y1="120%"
     x1="30%"
     id="3d_gradient2-logo-BC75E7444A964FE88B4FB82A677F4E2A"><stop
       id="stop271195"
       stop-opacity="1"
       stop-color="#ffffff"
       offset="0%" /><stop
       id="stop271197"
       stop-opacity="1"
       stop-color="#000000"
       offset="100%" /></linearGradient><linearGradient
     gradientTransform="rotate(-30)"
     spreadMethod="pad"
     y2="30%"
     x2="-10%"
     y1="120%"
     x1="30%"
     id="3d_gradient3-logo-BC75E7444A964FE88B4FB82A677F4E2A"><stop
       id="stop271200"
       stop-opacity="1"
       stop-color="#ffffff"
       offset="0%" /><stop
       id="stop271202"
       stop-opacity="1"
       stop-color="#cccccc"
       offset="50%" /><stop
       id="stop271204"
       stop-opacity="1"
       stop-color="#000000"
       offset="100%" /></linearGradient><path
     style="fill:#853d46;stroke-width:0.83302146"
     d="m 100.15663,40.003507 c -0.33116,-0.0097 -0.725312,0.0014 -0.876339,0.02547 -0.150527,0.02362 -0.431663,0.08615 -0.624341,0.139414 -0.192678,0.0528 -0.522446,0.176468 -0.732717,0.275114 -0.210738,0.09866 -0.533559,0.279745 -0.717898,0.402483 -0.18434,0.122737 -0.502529,0.390903 -0.706786,0.595627 -0.204257,0.205181 -0.451114,0.486318 -0.548378,0.625266 -0.09773,0.138948 -0.553942,0.909159 -1.01387,1.711859 -0.460378,0.802191 -0.849432,1.472865 -0.865176,1.490442 -0.01529,0.01714 -0.465943,0.08615 -1.000876,0.153767 -0.534949,0.06716 -1.410305,0.194527 -1.945271,0.282994 -0.53495,0.088 -1.441377,0.254272 -2.014746,0.369137 -0.572927,0.114865 -1.542339,0.332084 -2.153694,0.482611 -0.611371,0.150527 -1.409889,0.358483 -1.774835,0.461769 -0.364972,0.103286 -0.687793,0.173218 -0.717898,0.154692 -0.03011,-0.01853 -0.481687,-0.366821 -1.004124,-0.773944 -0.52198,-0.407114 -1.053689,-0.832763 -1.181058,-0.945812 -0.127369,-0.113008 -0.345979,-0.283452 -0.486318,-0.3784 -0.139873,-0.09541 -0.410821,-0.251956 -0.602108,-0.348295 -0.19082,-0.09587 -0.49095,-0.223708 -0.666484,-0.283452 -0.175534,-0.05974 -0.485393,-0.140339 -0.688259,-0.178783 -0.204257,-0.03844 -0.620634,-0.06947 -0.931401,-0.06947 -0.366821,4.63e-4 -0.707244,0.03057 -0.979134,0.08708 -0.229264,0.04771 -0.584972,0.151918 -0.791079,0.23158 -0.205639,0.07966 -0.557641,0.253813 -0.781815,0.387663 -0.228798,0.136165 -0.588213,0.412679 -0.819327,0.630364 -0.264926,0.249182 -0.517814,0.546529 -0.708168,0.833688 -0.163031,0.245008 -0.346445,0.56089 -0.408047,0.700762 -0.0616,0.14034 -0.167204,0.421476 -0.234821,0.625266 -0.07827,0.236678 -0.163497,0.689184 -0.235745,1.250532 -0.06206,0.484002 -0.170444,1.311176 -0.240377,1.838312 l -0.127835,0.958308 -0.23482,0.125978 c -0.129219,0.06947 -0.557642,0.313557 -0.952727,0.542363 -0.395077,0.229264 -1.082428,0.645184 -1.528428,0.924904 -0.445558,0.279745 -1.164814,0.74847 -1.597902,1.041194 -0.433054,0.293182 -1.147237,0.794319 -1.587239,1.113916 -0.440002,0.31958 -1.112084,0.82674 -1.49419,1.127328 l -0.694274,0.546529 -1.261611,-0.348761 C 63.537605,56.62057 62.86619,56.425643 62.738738,56.378993 62.611369,56.332211 62.34042,56.260888 62.13663,56.220594 c -0.203791,-0.04029 -0.547454,-0.08661 -0.764214,-0.10282 -0.216294,-0.01621 -0.58219,-0.0065 -0.812379,0.02131 -0.230656,0.02826 -0.584973,0.09448 -0.787372,0.147287 -0.202866,0.0528 -0.559033,0.18573 -0.791079,0.295497 -0.232505,0.109768 -0.552085,0.287626 -0.710026,0.394611 -0.157941,0.107451 -0.43213,0.332084 -0.609522,0.499288 -0.177392,0.167662 -0.427032,0.441851 -0.554867,0.60998 -0.127369,0.167662 -0.344588,0.534483 -0.482611,0.814695 -0.137557,0.280212 -0.293182,0.676214 -0.345521,0.880004 -0.0528,0.20379 -0.117181,0.558108 -0.143579,0.787372 -0.02687,0.229264 -0.03474,0.614611 -0.01806,0.856846 0.02362,0.348294 0.131534,0.822575 0.518272,2.276897 l 0.48771,1.837396 -0.458529,0.579416 c -0.252422,0.318656 -0.731326,0.950894 -1.064351,1.404724 -0.333009,0.454364 -0.908743,1.27419 -1.278355,1.821568 -0.370062,0.547454 -0.922155,1.401976 -1.226874,1.898956 -0.305219,0.496506 -0.745688,1.238453 -0.979134,1.648883 l -0.424716,0.745221 -1.238453,0.145895 c -0.681311,0.08013 -1.443209,0.167204 -1.693782,0.193136 -0.250107,0.02594 -0.543288,0.06669 -0.651206,0.09124 -0.107918,0.02408 -0.382574,0.108843 -0.60998,0.188505 -0.227873,0.07966 -0.549311,0.219076 -0.715116,0.309392 -0.165813,0.09078 -0.436295,0.264001 -0.602108,0.385814 -0.165813,0.121346 -0.44834,0.373768 -0.628506,0.560424 -0.180166,0.187113 -0.411746,0.465009 -0.515032,0.617852 -0.10282,0.152842 -0.255205,0.413603 -0.339032,0.57895 -0.08337,0.165346 -0.20055,0.444633 -0.260294,0.620167 -0.05974,0.175535 -0.140339,0.485394 -0.178783,0.688259 -0.03844,0.202866 -0.06994,0.614612 -0.06994,0.914741 0,0.30013 0.03242,0.716507 0.07226,0.92582 0.03937,0.208889 0.125519,0.529394 0.19082,0.711417 0.06577,0.182024 0.198234,0.489101 0.295031,0.68177 0.09634,0.192678 0.246399,0.442784 0.333475,0.555792 0.08661,0.113008 0.580799,0.757733 1.097673,1.432547 0.517348,0.674822 0.957391,1.248699 0.978217,1.275106 0.02038,0.0264 -0.03474,0.297347 -0.123204,0.602108 -0.08847,0.304761 -0.284843,1.054605 -0.436295,1.66596 -0.151452,0.611371 -0.368212,1.559916 -0.481686,2.107377 -0.113475,0.547454 -0.290867,1.506187 -0.394611,2.130536 -0.103286,0.623875 -0.239919,1.546505 -0.303836,2.049983 -0.06392,0.503453 -0.116257,0.943896 -0.116257,0.978633 0,0.03474 -0.515957,0.354318 -1.146321,0.710484 -0.630364,0.355709 -1.318173,0.737349 -1.528427,0.848016 -0.210272,0.110692 -0.554401,0.339956 -0.765139,0.509476 -0.210738,0.16952 -0.488634,0.431205 -0.618319,0.581732 -0.129218,0.150061 -0.321896,0.4011 -0.427956,0.557642 -0.10606,0.156549 -0.277429,0.465009 -0.380716,0.685476 -0.103286,0.220468 -0.241768,0.603033 -0.308001,0.849932 -0.10606,0.397851 -0.119955,0.53819 -0.119955,1.213963 0,0.67575 0.01389,0.81609 0.119955,1.21396 0.06623,0.24686 0.204715,0.62943 0.308001,0.84993 0.103287,0.22046 0.274656,0.52893 0.380716,0.68548 0.106527,0.15654 0.287626,0.39507 0.402483,0.52985 0.114398,0.13524 0.366821,0.37655 0.559957,0.5368 0.224166,0.18573 0.911492,0.61415 1.902621,1.18522 0.85318,0.49234 1.565914,0.90733 1.583574,0.92266 0.0176,0.0152 0.08615,0.45482 0.151918,0.9773 0.06577,0.52198 0.192211,1.39456 0.281136,1.93877 0.08847,0.54467 0.256129,1.46171 0.372377,2.03791 0.116257,0.57663 0.323288,1.50993 0.45992,2.07405 0.136632,0.56368 0.344129,1.36216 0.460844,1.77434 0.116256,0.41268 0.196843,0.7744 0.178317,0.80451 -0.01853,0.0301 -0.365897,0.48168 -0.772553,1.00412 -0.406656,0.52198 -0.832297,1.05369 -0.945812,1.18106 -0.113941,0.12737 -0.284844,0.34598 -0.379792,0.48632 -0.09541,0.13987 -0.246399,0.40063 -0.335791,0.57895 -0.08939,0.17831 -0.215835,0.47334 -0.281602,0.65537 -0.06531,0.18202 -0.151452,0.50253 -0.190821,0.71141 -0.03983,0.20935 -0.07226,0.62573 -0.07226,0.92583 0,0.30012 0.0315,0.71187 0.06994,0.91474 0.03844,0.20286 0.11903,0.51271 0.178783,0.68825 0.05974,0.17554 0.176925,0.45436 0.260294,0.62017 0.08384,0.16535 0.236211,0.42611 0.339031,0.57895 0.103287,0.15285 0.334867,0.43074 0.515032,0.61785 0.180166,0.18666 0.462694,0.44001 0.628507,0.56321 0.165813,0.12274 0.457603,0.30708 0.648424,0.41036 0.191286,0.10282 0.534949,0.24825 0.764214,0.32282 0.229264,0.0746 0.562739,0.15748 0.741056,0.18434 0.178316,0.0268 1.012954,0.13756 1.855388,0.2464 l 1.530761,0.19824 0.460844,0.80682 c 0.252888,0.44417 0.722996,1.22879 1.043942,1.74426 0.320972,0.5155 0.8476,1.32742 1.170395,1.8045 0.323288,0.47705 0.858262,1.2362 1.189388,1.68778 0.331626,0.45112 0.821185,1.09817 1.088926,1.43763 0.309851,0.39368 0.477521,0.64425 0.462235,0.69242 -0.01297,0.0412 -0.170902,0.60628 -0.351077,1.25612 -0.179707,0.64934 -0.364971,1.28526 -0.411745,1.41263 -0.04724,0.12737 -0.122738,0.40851 -0.168129,0.62527 -0.05697,0.27326 -0.08198,0.59238 -0.08059,1.04211 0.0014,0.42101 0.02779,0.7656 0.07642,0.9833 0.04122,0.18387 0.118572,0.46501 0.172294,0.62526 0.05373,0.15979 0.164421,0.42611 0.245941,0.59238 0.08152,0.16581 0.229264,0.42611 0.327919,0.57895 0.09911,0.15239 0.4011,0.49558 0.671582,0.76329 0.341347,0.33764 0.611371,0.55672 0.883669,0.71697 0.215369,0.12645 0.573394,0.29874 0.795244,0.38211 0.222317,0.0838 0.545137,0.18711 0.717898,0.23066 0.230655,0.0574 0.512258,0.0783 1.055521,0.0778 l 0.741056,-4.6e-4 1.86097,-0.49975 1.860554,-0.50021 0.43213,0.3432 c 0.237136,0.1885 0.723454,0.56181 1.080095,0.82952 0.356633,0.26817 0.929985,0.6864 1.27369,0.92957 0.34413,0.24362 1.052273,0.72392 1.574744,1.06802 0.522446,0.34413 1.293599,0.83276 1.713692,1.08609 0.420551,0.25382 1.046275,0.61971 1.390396,0.81378 l 0.626657,0.35293 0.149136,1.2417 c 0.08244,0.68316 0.171369,1.4557 0.198234,1.71694 0.02687,0.26122 0.08893,0.62851 0.138023,0.81609 0.0491,0.18803 0.16164,0.51179 0.249182,0.72021 0.088,0.20842 0.25752,0.53541 0.376551,0.72669 0.119497,0.19129 0.39137,0.53125 0.60489,0.75542 0.213053,0.22417 0.539115,0.51179 0.72392,0.63962 0.185264,0.12737 0.484469,0.30615 0.66556,0.39693 0.180632,0.0908 0.493265,0.21722 0.69474,0.2816 0.201008,0.0639 0.501603,0.1422 0.66695,0.17323 0.165813,0.0315 0.561815,0.0556 0.880004,0.0537 0.402949,-0.002 0.708634,-0.0324 1.004624,-0.0986 0.233895,-0.0519 0.588213,-0.15979 0.787372,-0.23899 0.199158,-0.0792 0.507626,-0.22927 0.685943,-0.33348 0.178316,-0.10421 0.501604,-0.33163 0.717898,-0.50484 0.21676,-0.17322 0.841601,-0.6563 1.388563,-1.0741 l 0.994878,-0.75913 0.39461,0.11163 c 0.217219,0.0611 0.967971,0.25705 1.668292,0.43537 0.700763,0.17832 1.888793,0.44648 2.640012,0.59655 0.75171,0.14959 1.856305,0.34505 2.454748,0.43444 0.598867,0.0889 1.383482,0.19777 1.743764,0.24131 l 0.655371,0.0792 0.593769,1.04627 c 0.326528,0.57571 0.684086,1.2218 0.794786,1.4363 0.110692,0.21398 0.265392,0.48261 0.34413,0.59748 0.07874,0.11439 0.264001,0.34875 0.412212,0.52012 0.147745,0.17183 0.441393,0.45112 0.653056,0.62017 0.222316,0.17832 0.598401,0.41453 0.893415,0.56088 0.2904,0.14452 0.708635,0.30616 0.972636,0.37656 0.412212,0.1093 0.547453,0.12273 1.227374,0.12273 0.679914,0 0.815154,-0.0134 1.227374,-0.12273 0.264,-0.0704 0.68223,-0.23204 0.97263,-0.37656 0.29457,-0.14635 0.67112,-0.38256 0.893,-0.55995 0.21074,-0.16906 0.52569,-0.47752 0.69983,-0.68501 0.17415,-0.20797 0.39925,-0.52384 0.49975,-0.70216 0.10051,-0.17831 0.5118,-0.89208 0.91425,-1.58632 0.40249,-0.69427 0.74986,-1.26211 0.77255,-1.26211 0.0222,0 0.4525,-0.0528 0.95597,-0.11718 0.50347,-0.0644 1.41539,-0.19869 2.02683,-0.29827 0.61137,-0.10005 1.61181,-0.28624 2.22317,-0.41453 0.61137,-0.12784 1.49694,-0.32839 1.96843,-0.44463 0.47149,-0.11672 1.18522,-0.30477 1.58682,-0.41824 0.40156,-0.11347 0.73688,-0.20611 0.74522,-0.20611 0.009,0 0.47335,0.35942 1.03286,0.79896 0.55996,0.43953 1.17831,0.92865 1.37465,1.08659 0.19638,0.1584 0.47659,0.35709 0.62249,0.44185 0.14589,0.0848 0.41453,0.22 0.59702,0.30059 0.18248,0.0811 0.50067,0.18989 0.7077,0.2427 0.20657,0.0528 0.57849,0.11532 0.82628,0.13895 0.28716,0.0278 0.61415,0.0264 0.90266,-0.002 0.24918,-0.0255 0.635,-0.0982 0.85685,-0.16164 0.22232,-0.0639 0.57756,-0.19824 0.78969,-0.29874 0.21166,-0.1005 0.53865,-0.28948 0.7267,-0.41916 0.18804,-0.13015 0.50484,-0.40666 0.70354,-0.61461 0.19915,-0.20797 0.44463,-0.503 0.5456,-0.65584 0.10097,-0.15284 0.25196,-0.41314 0.33532,-0.57895 0.0834,-0.16581 0.21398,-0.48863 0.2904,-0.7179 0.10653,-0.32143 0.1811,-0.74059 0.32422,-1.82948 0.10236,-0.77718 0.20981,-1.60065 0.23852,-1.8309 l 0.0523,-0.41823 0.83877,-0.47937 c 0.46177,-0.264 1.22462,-0.71928 1.69611,-1.01204 0.4715,-0.29272 1.27369,-0.81423 1.78317,-1.15882 0.50947,-0.34458 1.27044,-0.87858 1.69053,-1.18664 0.42009,-0.308 1.06202,-0.79432 1.42563,-1.08101 l 0.66186,-0.52152 1.42238,0.4011 c 0.78274,0.22046 1.60573,0.4488 1.82948,0.50809 0.22371,0.0588 0.61971,0.12087 0.88001,0.13755 0.28437,0.0185 0.63592,0.009 0.88,-0.0237 0.22371,-0.0301 0.58404,-0.10559 0.80127,-0.16858 0.21722,-0.063 0.54467,-0.18619 0.72808,-0.27419 0.18342,-0.0875 0.46919,-0.24872 0.63453,-0.35803 0.16581,-0.10884 0.45343,-0.34273 0.63916,-0.51966 0.18619,-0.17647 0.44279,-0.45807 0.56969,-0.62573 0.12737,-0.1672 0.34413,-0.53356 0.48215,-0.81377 0.13756,-0.28021 0.29272,-0.67437 0.34459,-0.87534 0.0519,-0.20148 0.11671,-0.54561 0.1445,-0.76422 0.0297,-0.2325 0.0375,-0.59886 0.0185,-0.8805 -0.025,-0.37793 -0.094,-0.71327 -0.32051,-1.55158 -0.15932,-0.58822 -0.3784,-1.40523 -0.48724,-1.81608 l -0.19823,-0.74661 0.57339,-0.7355 c 0.31541,-0.40434 0.79803,-1.04302 1.07176,-1.41863 0.27419,-0.37563 0.79756,-1.12591 1.16349,-1.66738 0.36589,-0.54143 0.91615,-1.39273 1.2232,-1.89204 0.30708,-0.49929 0.74662,-1.24037 0.97681,-1.64605 l 0.4187,-0.73828 1.47195,-0.1723 c 0.81006,-0.0949 1.63913,-0.19637 1.84289,-0.2251 0.20379,-0.0287 0.52152,-0.10096 0.70632,-0.16071 0.1848,-0.0597 0.46964,-0.16951 0.6336,-0.24362 0.1635,-0.0745 0.44324,-0.22926 0.62156,-0.34459 0.17832,-0.11533 0.48308,-0.3608 0.67761,-0.54561 0.19406,-0.18479 0.45621,-0.47242 0.58219,-0.64008 0.12597,-0.1672 0.31402,-0.46687 0.41823,-0.66556 0.10375,-0.19869 0.23899,-0.50901 0.30013,-0.68964 0.0616,-0.18064 0.14358,-0.49466 0.18202,-0.69753 0.0384,-0.20286 0.07,-0.61461 0.07,-0.91474 0,-0.30013 -0.0315,-0.71187 -0.07,-0.91474 -0.0384,-0.20286 -0.11903,-0.51271 -0.17878,-0.68826 -0.0597,-0.17553 -0.19268,-0.48585 -0.2955,-0.68964 -0.10236,-0.20379 -0.26678,-0.47613 -0.36543,-0.60535 -0.0982,-0.12922 -0.60952,-0.79756 -1.13657,-1.48577 l -0.95731,-1.25054 0.16026,-0.55255 c 0.088,-0.30337 0.2941,-1.094 0.45713,-1.75634 0.16304,-0.66232 0.39091,-1.67337 0.50624,-2.24633 0.11532,-0.57339 0.28253,-1.49044 0.37238,-2.0379 0.0894,-0.54792 0.21537,-1.40756 0.27928,-1.91103 0.0644,-0.50346 0.11672,-0.94348 0.11672,-0.9773 0,-0.0342 0.5368,-0.36451 1.19264,-0.73411 0.65583,-0.3696 1.3385,-0.74801 1.51685,-0.84061 0.17878,-0.0922 0.50206,-0.31077 0.71882,-0.48538 0.21676,-0.17462 0.50021,-0.44047 0.6299,-0.591 0.12922,-0.15006 0.32189,-0.4011 0.42796,-0.55764 0.10606,-0.15655 0.27743,-0.46501 0.38072,-0.68547 0.10328,-0.22047 0.24176,-0.60304 0.308,-0.84994 0.10606,-0.39785 0.11995,-0.53819 0.11995,-1.21396 0,-0.675744 -0.0139,-0.816084 -0.11995,-1.21396 -0.0662,-0.246866 -0.20472,-0.629431 -0.308,-0.849931 -0.10329,-0.220468 -0.27466,-0.528927 -0.38072,-0.685477 -0.10607,-0.15655 -0.29689,-0.405265 -0.42426,-0.553476 -0.12737,-0.147745 -0.37932,-0.389055 -0.56042,-0.536341 -0.18063,-0.147287 -0.47474,-0.351077 -0.65306,-0.452972 -0.17831,-0.102362 -0.89208,-0.514574 -1.58632,-0.916157 -0.69427,-0.401558 -1.26211,-0.747537 -1.26211,-0.769312 0,-0.02177 -0.0537,-0.462236 -0.11903,-0.979134 -0.0657,-0.517348 -0.19129,-1.377901 -0.27975,-1.912867 -0.088,-0.53495 -0.25381,-1.438545 -0.36822,-2.007832 -0.1144,-0.569686 -0.3205,-1.497356 -0.45759,-2.061061 -0.13757,-0.564131 -0.34552,-1.369071 -0.46224,-1.788248 l -0.21213,-0.762364 0.28716,-0.372377 c 0.1584,-0.204715 0.54931,-0.701688 0.86843,-1.10467 0.31958,-0.402483 0.69103,-0.871674 0.82535,-1.04211 0.13431,-0.170445 0.33903,-0.493732 0.45528,-0.718364 0.11626,-0.224633 0.26169,-0.555792 0.32283,-0.735958 0.0611,-0.180166 0.14312,-0.493732 0.18155,-0.69659 0.0384,-0.202865 0.07,-0.614611 0.07,-0.91474 0,-0.30013 -0.0315,-0.711876 -0.07,-0.914741 -0.0384,-0.202866 -0.11903,-0.512717 -0.17877,-0.688259 -0.0597,-0.175535 -0.17693,-0.454822 -0.2603,-0.620168 -0.0838,-0.165347 -0.23436,-0.4224 -0.33486,-0.570612 -0.10097,-0.148677 -0.3219,-0.417768 -0.49188,-0.5984 -0.16952,-0.180633 -0.46641,-0.446025 -0.65954,-0.590063 -0.19314,-0.14358 -0.52661,-0.34737 -0.74106,-0.452506 -0.21444,-0.105135 -0.55671,-0.244083 -0.7605,-0.308926 -0.21861,-0.06947 -0.73087,-0.163955 -1.25054,-0.231113 -0.484,-0.06206 -1.30792,-0.169978 -1.83089,-0.239452 l -0.9509,-0.126444 -0.46177,-0.809606 c -0.25381,-0.4451 -0.72577,-1.232955 -1.0481,-1.751177 -0.32236,-0.517815 -0.85219,-1.333418 -1.1769,-1.811905 -0.32468,-0.478446 -0.85868,-1.235704 -1.18664,-1.68262 -0.32792,-0.447416 -0.81516,-1.091175 -1.08334,-1.431631 -0.26771,-0.339956 -0.47751,-0.642868 -0.46593,-0.672973 0.0111,-0.02964 0.14866,-0.521522 0.30521,-1.092591 0.15655,-0.571078 0.34598,-1.225958 0.42056,-1.455289 0.0745,-0.229264 0.16534,-0.562739 0.20193,-0.741056 0.0366,-0.178316 0.0801,-0.522446 0.0973,-0.764214 0.0176,-0.249181 0.009,-0.612762 -0.0194,-0.838352 -0.0278,-0.21861 -0.0926,-0.56274 -0.1445,-0.764214 -0.0519,-0.201008 -0.20611,-0.595161 -0.34274,-0.875339 -0.13663,-0.280212 -0.35154,-0.645184 -0.47752,-0.81053 -0.12598,-0.165813 -0.38349,-0.44695 -0.572,-0.625266 -0.18804,-0.178317 -0.45899,-0.4011 -0.60118,-0.495581 -0.14265,-0.09402 -0.40295,-0.243159 -0.57895,-0.331626 -0.176,-0.088 -0.45066,-0.204257 -0.61045,-0.257978 -0.16025,-0.05373 -0.44139,-0.132001 -0.62526,-0.173685 -0.239,-0.05466 -0.54097,-0.0755 -1.05277,-0.07272 l -0.7179,0.0042 -0.74106,0.20564 c -0.40758,0.113474 -1.23337,0.337182 -1.83506,0.49743 l -1.09351,0.290866 -0.4349,-0.345054 c -0.239,-0.189895 -0.72624,-0.56413 -1.08285,-0.831838 -0.35663,-0.268167 -0.92957,-0.686402 -1.27369,-0.929569 -0.34413,-0.243625 -1.05227,-0.723921 -1.57474,-1.068017 -0.52198,-0.344129 -1.2936,-0.832763 -1.71369,-1.086093 -0.42009,-0.253347 -1.04628,-0.620635 -1.39131,-0.816086 l -0.62713,-0.355709 -0.10652,-0.868925 c -0.0588,-0.477521 -0.14543,-1.233871 -0.19267,-1.680787 -0.0472,-0.446483 -0.10746,-0.908743 -0.13386,-1.026866 -0.0269,-0.118105 -0.12042,-0.416377 -0.20842,-0.662785 -0.0885,-0.246866 -0.24825,-0.597476 -0.35571,-0.7795 -0.10745,-0.182023 -0.28346,-0.446024 -0.39091,-0.585897 -0.10745,-0.140339 -0.33857,-0.391837 -0.51364,-0.559032 -0.17462,-0.167204 -0.4488,-0.392762 -0.60905,-0.501138 -0.16073,-0.107918 -0.4627,-0.277896 -0.67159,-0.377009 -0.20935,-0.09958 -0.56783,-0.236211 -0.7971,-0.303836 -0.33579,-0.09911 -0.5456,-0.127369 -1.07959,-0.146362 -0.41685,-0.01482 -0.79478,-0.0023 -1.01895,0.03381 -0.19591,0.03103 -0.52291,0.109309 -0.7267,0.173218 -0.20379,0.06438 -0.54745,0.206106 -0.76421,0.314949 -0.21676,0.109309 -0.47706,0.261219 -0.57895,0.337182 -0.1019,0.07642 -0.767,0.586364 -1.47845,1.132909 l -1.29268,0.993961 -0.39785,-0.112549 c -0.21861,-0.06206 -0.97031,-0.257979 -1.67104,-0.435371 -0.7003,-0.17785 -1.8364,-0.435836 -2.52423,-0.574318 -0.68779,-0.138023 -1.64655,-0.314024 -2.13053,-0.390904 -0.484,-0.07689 -1.29218,-0.192211 -1.79616,-0.256587 -0.50392,-0.06392 -0.94298,-0.116256 -0.97539,-0.116256 -0.0324,0 -0.36312,-0.536799 -0.73411,-1.192637 -0.37146,-0.655838 -0.75032,-1.338499 -0.84251,-1.516849 -0.0917,-0.178783 -0.31217,-0.504378 -0.4891,-0.724845 -0.17693,-0.220001 -0.46362,-0.520131 -0.63731,-0.667417 -0.17322,-0.147287 -0.42842,-0.340423 -0.56737,-0.429348 -0.13895,-0.08893 -0.42611,-0.243159 -0.63869,-0.342738 -0.2126,-0.09958 -0.58915,-0.232971 -0.83602,-0.296422 -0.33255,-0.08568 -0.60674,-0.120422 -1.05186,-0.133392 z m -0.34737,14.991055 c 0.64981,-0.0037 1.62939,0.01389 2.17685,0.03937 0.54792,0.02547 1.37099,0.07781 1.82948,0.116257 0.45853,0.03798 1.2612,0.122737 1.78317,0.187579 0.52245,0.06531 1.38673,0.191745 1.92161,0.281137 0.53449,0.08939 1.352,0.243625 1.81699,0.343205 0.46455,0.09911 1.25653,0.283918 1.76051,0.410363 0.50345,0.126902 1.3325,0.355242 1.84197,0.507626 0.50948,0.152843 1.31168,0.411746 1.78317,0.576168 0.4715,0.164422 1.07735,0.383032 1.34683,0.486318 0.26956,0.103286 0.8008,0.316798 1.18106,0.474739 0.38025,0.157474 1.09767,0.473348 1.59423,0.700763 0.49698,0.227873 1.24079,0.589137 1.65305,0.802657 0.41268,0.213521 1.03795,0.548845 1.38948,0.745221 0.352,0.196843 0.95223,0.545138 1.33433,0.773944 0.38211,0.229264 1.04903,0.650273 1.48212,0.935566 0.43305,0.28531 1.1,0.742906 1.48211,1.017536 0.38211,0.274189 0.96572,0.708635 1.29685,0.965222 0.33116,0.256587 0.89391,0.708635 1.25053,1.005041 0.35663,0.296422 0.95089,0.806823 1.32,1.135241 0.36961,0.327919 1.16157,1.08701 1.76001,1.686869 0.59887,0.599792 1.33067,1.36124 1.62614,1.692366 0.29549,0.33116 0.82443,0.946229 1.17548,1.366322 0.35108,0.420084 0.97538,1.213462 1.38715,1.762757 0.41221,0.548844 1.00046,1.372319 1.30701,1.829482 0.30661,0.456679 0.72067,1.091174 0.91982,1.409888 0.19916,0.31819 0.5896,0.974969 0.86751,1.458954 0.27789,0.484002 0.81192,1.494607 1.18664,2.246326 0.37423,0.751244 0.85035,1.762757 1.05694,2.247742 0.20703,0.484468 0.4488,1.088926 0.5368,1.343164 0.0885,0.253813 0.20796,0.649348 0.26585,0.878587 0.0648,0.257521 0.107,0.570154 0.10977,0.818869 0.004,0.340422 -0.01,0.421475 -0.0922,0.532634 -0.0537,0.07179 -0.151,0.149602 -0.21584,0.17276 -0.0931,0.03335 -0.17507,0.01436 -0.38257,-0.08708 -0.1621,-0.0792 -0.40155,-0.265392 -0.61971,-0.482152 -0.19591,-0.194061 -0.48492,-0.523371 -0.64286,-0.731327 -0.15794,-0.208422 -0.55996,-0.802191 -0.89392,-1.320005 -0.33393,-0.517815 -0.81608,-1.240369 -1.07085,-1.605316 -0.2552,-0.36543 -0.65259,-0.91749 -0.88325,-1.227374 -0.23066,-0.310317 -0.65537,-0.859595 -0.94348,-1.221793 -0.28809,-0.362189 -0.7971,-0.976801 -1.13108,-1.366321 -0.3344,-0.389521 -0.98654,-1.113 -1.44879,-1.607649 -0.4627,-0.494656 -1.22646,-1.263527 -1.69795,-1.709026 -0.47149,-0.445559 -1.15098,-1.067601 -1.51035,-1.382566 -0.35895,-0.314949 -0.92165,-0.792928 -1.25053,-1.062519 -0.32838,-0.269099 -1.00321,-0.795244 -1.49927,-1.168563 -0.49651,-0.37331 -1.43438,-1.033779 -2.08422,-1.467784 -0.65027,-0.433521 -1.53626,-0.999459 -1.96935,-1.257445 -0.43305,-0.257979 -1.1,-0.640086 -1.48211,-0.849432 -0.38211,-0.209347 -1.13008,-0.598401 -1.66179,-0.86476 -0.53217,-0.266317 -1.33484,-0.647499 -1.78409,-0.8471 -0.44926,-0.200083 -1.19172,-0.513182 -1.64979,-0.696589 -0.45807,-0.182948 -1.16623,-0.452972 -1.57383,-0.600258 -0.40758,-0.147287 -1.00271,-0.352468 -1.32276,-0.456213 -0.32004,-0.103744 -0.98696,-0.305686 -1.48211,-0.448799 -0.49511,-0.143113 -1.26861,-0.351535 -1.71836,-0.462693 -0.45018,-0.111158 -1.22179,-0.285768 -1.7151,-0.387663 -0.49281,-0.102362 -1.27136,-0.248257 -1.72902,-0.325137 -0.45807,-0.07642 -1.14541,-0.181557 -1.52751,-0.233429 -0.38211,-0.05187 -1.10093,-0.134783 -1.59791,-0.184339 -0.4965,-0.05002 -1.29918,-0.11764 -1.78316,-0.150994 -0.52337,-0.03613 -1.70628,-0.06068 -2.917909,-0.06021 -1.167146,4.63e-4 -2.394104,0.02594 -2.871592,0.05974 -0.458528,0.03242 -1.156483,0.08939 -1.551586,0.127369 -0.39461,0.03752 -1.124079,0.120888 -1.621059,0.184797 -0.496506,0.06392 -1.277855,0.179241 -1.735934,0.256129 -0.457603,0.07735 -1.239452,0.224166 -1.73685,0.326528 -0.496972,0.102362 -1.383482,0.308001 -1.969346,0.456679 -0.585897,0.148678 -1.516848,0.407114 -2.068475,0.574785 -0.552085,0.167204 -1.364906,0.431205 -1.806324,0.586364 -0.441851,0.155625 -1.241702,0.456679 -1.778084,0.669266 -0.535875,0.212587 -1.296848,0.527536 -1.690534,0.699838 -0.393686,0.172294 -1.288518,0.599325 -1.989256,0.948978 -0.700296,0.350152 -1.742431,0.905911 -2.315799,1.235287 -0.572927,0.329769 -1.250532,0.730402 -1.50527,0.891083 -0.254738,0.160715 -0.775793,0.500213 -1.1579,0.754951 -0.382107,0.254272 -1.016203,0.692424 -1.408972,0.973136 -0.392762,0.280678 -1.007873,0.739665 -1.366322,1.019451 -0.358483,0.280212 -0.943897,0.752635 -1.300513,1.05094 -0.356634,0.297814 -0.887918,0.755876 -1.181058,1.018452 -0.292716,0.262152 -0.822109,0.749853 -1.176393,1.083345 -0.353851,0.333475 -1.010622,0.992545 -1.458954,1.464535 -0.44834,0.471957 -1.079179,1.159732 -1.401559,1.528428 -0.322362,0.368678 -0.831372,0.972136 -1.131076,1.341747 -0.299205,0.369137 -0.808681,1.025866 -1.131993,1.458954 -0.323287,0.433055 -0.773944,1.053689 -1.001792,1.379317 -0.227415,0.325603 -0.663243,0.981883 -0.967554,1.458038 -0.304761,0.47613 -0.708168,1.074098 -0.897164,1.328836 -0.188505,0.254271 -0.501138,0.620634 -0.69474,0.813312 -0.205182,0.205181 -0.456679,0.403415 -0.603957,0.476588 -0.138482,0.06855 -0.291325,0.125053 -0.339032,0.125053 -0.04817,0 -0.146362,-0.05929 -0.21861,-0.131534 -0.09078,-0.09078 -0.14173,-0.20055 -0.164888,-0.355242 -0.02131,-0.142188 -0.0069,-0.386738 0.03937,-0.670191 0.04029,-0.245474 0.139414,-0.653522 0.220467,-0.906827 0.08105,-0.253347 0.229731,-0.668799 0.331159,-0.923571 0.100971,-0.254271 0.34089,-0.817011 0.532634,-1.250532 0.191745,-0.433054 0.584507,-1.259778 0.87259,-1.836895 0.288551,-0.577559 0.685011,-1.338083 0.881837,-1.690534 0.196376,-0.352468 0.555325,-0.97172 0.79756,-1.376068 0.241768,-0.403874 0.708168,-1.140323 1.036528,-1.636304 0.327919,-0.496048 0.818869,-1.207465 1.090759,-1.581242 0.271873,-0.37331 0.703078,-0.947145 0.958308,-1.275106 0.255204,-0.327919 0.674822,-0.848932 0.932817,-1.1579 0.257978,-0.308926 0.733642,-0.858262 1.056938,-1.220876 0.323745,-0.362189 0.924903,-1.00504 1.336249,-1.427882 0.411288,-0.422867 1.103254,-1.096756 1.537675,-1.49694 0.434445,-0.400166 1.019451,-0.925403 1.299597,-1.166729 0.280211,-0.24131 0.770236,-0.647958 1.088425,-0.903662 0.318656,-0.255663 0.79756,-0.63268 1.065268,-0.837853 0.267708,-0.205182 0.819793,-0.608589 1.227374,-0.897164 0.407581,-0.288084 1.032863,-0.714658 1.38948,-0.947645 0.356633,-0.232505 1.035612,-0.654447 1.508935,-0.936983 0.473348,-0.282528 1.150986,-0.672973 1.50527,-0.867509 0.354784,-0.194527 1.124079,-0.590062 1.710026,-0.879087 0.585898,-0.288551 1.377901,-0.660928 1.760008,-0.827207 0.382107,-0.166271 1.018036,-0.431205 1.412638,-0.589138 0.395077,-0.157474 0.916157,-0.358949 1.1579,-0.447874 0.242234,-0.08892 0.804974,-0.283919 1.250532,-0.433055 0.446024,-0.149135 1.133825,-0.367287 1.528428,-0.484468 0.395077,-0.117639 1.124579,-0.315874 1.621059,-0.440469 0.496973,-0.125053 1.299181,-0.310783 1.783166,-0.412678 0.484002,-0.102362 1.244951,-0.248257 1.690534,-0.324679 0.446025,-0.07642 1.113,-0.180166 1.482112,-0.230655 0.369603,-0.05048 0.974052,-0.123204 1.343164,-0.16164 0.369603,-0.03844 0.953143,-0.09356 1.296847,-0.121812 0.34413,-0.02871 0.969387,-0.06808 1.38948,-0.08753 0.420551,-0.01992 1.295932,-0.0389 1.945272,-0.04261 z"
     id="icon" /></svg>