<?xml version="1.0" encoding="UTF-8" standalone="no"?>
<svg
   xmlns:dc="http://purl.org/dc/elements/1.1/"
   xmlns:cc="http://creativecommons.org/ns#"
   xmlns:rdf="http://www.w3.org/1999/02/22-rdf-syntax-ns#"
   xmlns:svg="http://www.w3.org/2000/svg"
   xmlns="http://www.w3.org/2000/svg"
   id="svg11"
   xml:space="preserve"
   enable-background="new 0 0 200 200"
   viewBox="0 0 200 200"
   y="0px"
   x="0px"
   version="1.1"><metadata
     id="metadata15"><rdf:RDF><cc:Work
         rdf:about=""><dc:format>image/svg+xml</dc:format><dc:type
           rdf:resource="http://purl.org/dc/dcmitype/StillImage" /></cc:Work></rdf:RDF></metadata><defs
     id="defs531457" /><linearGradient
     spreadMethod="pad"
     y2="30%"
     x2="-10%"
     y1="120%"
     x1="30%"
     id="3d_gradient2-logo-8DBD3F5A310F4E9E8FD88A2B5D041965"><stop
       id="stop531434"
       stop-opacity="1"
       stop-color="#ffffff"
       offset="0%" /><stop
       id="stop531436"
       stop-opacity="1"
       stop-color="#000000"
       offset="100%" /></linearGradient><linearGradient
     gradientTransform="rotate(-30)"
     spreadMethod="pad"
     y2="30%"
     x2="-10%"
     y1="120%"
     x1="30%"
     id="3d_gradient3-logo-8DBD3F5A310F4E9E8FD88A2B5D041965"><stop
       id="stop531439"
       stop-opacity="1"
       stop-color="#ffffff"
       offset="0%" /><stop
       id="stop531441"
       stop-opacity="1"
       stop-color="#cccccc"
       offset="50%" /><stop
       id="stop531443"
       stop-opacity="1"
       stop-color="#000000"
       offset="100%" /></linearGradient><path
     style="fill:#853d46;stroke-width:0.80931324"
     d="m 137.63166,40.005141 c -0.19799,-0.0117 -0.47968,-0.0027 -0.62637,0.0198 -0.1467,0.02295 -0.38969,0.099 -0.53998,0.16964 -0.15029,0.07064 -0.48597,0.28844 -0.74606,0.48418 -0.25964,0.195741 -0.67497,0.558871 -0.92246,0.806359 -0.24794,0.247488 -0.61332,0.652469 -0.81222,0.899957 -0.19889,0.247488 -0.48508,0.621868 -0.63537,0.832459 -0.15074,0.210138 -0.40498,0.584972 -0.56518,0.83246 -0.16064,0.247488 -0.62051,0.986391 -1.02281,1.64242 -0.40182,0.655617 -0.92019,1.475945 -1.15149,1.822412 -0.23174,0.346483 -0.59172,0.845084 -0.80096,1.107868 -0.20878,0.262784 -0.51882,0.625923 -0.68846,0.80636 -0.16964,0.180444 -0.48553,0.476078 -0.70287,0.656968 -0.21689,0.181343 -0.65202,0.498577 -0.96745,0.705114 -0.31499,0.20699 -0.73482,0.467977 -0.93282,0.580472 -0.19799,0.112494 -0.72446,0.386528 -1.16994,0.609267 -0.44548,0.222286 -1.17448,0.571472 -1.61992,0.775314 -0.44548,0.203842 -1.27572,0.597573 -1.84491,0.874787 -0.56922,0.276736 -1.25767,0.631766 -1.52993,0.788813 -0.27223,0.156594 -0.86936,0.518373 -1.32743,0.803664 -0.45808,0.285283 -1.35892,0.865722 -2.00241,1.289641 -0.64346,0.423878 -1.58479,1.061981 -2.09239,1.418321 -0.50713,0.356381 -1.22619,0.869769 -1.59743,1.141132 -0.37123,0.270885 -1.00929,0.747417 -1.41743,1.058339 -0.40813,0.310938 -1.24011,0.964296 -1.84847,1.45207 -0.60791,0.487773 -1.55963,1.277015 -2.1149,1.753539 -0.55482,0.476523 -1.41387,1.234283 -1.90884,1.683857 -0.49498,0.449525 -1.36572,1.262205 -1.93491,1.806225 -0.56922,0.54402 -1.49253,1.463319 -2.05193,2.043354 -0.55933,0.579573 -1.28827,1.348154 -1.61992,1.707651 -0.33164,0.359529 -0.949489,1.04798 -1.373326,1.529926 -0.423433,0.481929 -1.143884,1.325655 -1.600579,1.875097 -0.457181,0.549427 -1.114182,1.359404 -1.460649,1.799913 -0.346483,0.440525 -0.933704,1.205958 -1.304451,1.700934 -0.371232,0.494976 -0.907159,1.223924 -1.191956,1.619921 -0.284385,0.395981 -0.781166,1.106007 -1.104227,1.57808 -0.323086,0.472024 -0.849536,1.261719 -1.170834,1.754915 -0.320836,0.493179 -0.816678,1.271188 -1.101556,1.729259 -0.285283,0.45808 -0.78386,1.281548 -1.108273,1.8301 -0.323985,0.548974 -0.840553,1.449804 -1.14793,2.002403 -0.307337,0.552575 -0.731215,1.328811 -0.942284,1.724727 -0.211036,0.395981 -0.718168,1.388215 -1.126726,2.204893 -0.408581,0.816678 -0.956203,1.94389 -1.217207,2.505068 -0.260987,0.560676 -0.625016,1.360698 -0.809062,1.777413 -0.184491,0.41623 -0.511624,1.17221 -0.727168,1.67973 -0.215536,0.507124 -0.62097,1.499334 -0.900442,2.204887 -0.27944,0.70512 -0.662819,1.69729 -0.851397,2.20489 -0.188538,0.50713 -0.490023,1.33731 -0.670468,1.84492 -0.233988,0.65786 -0.346936,0.91978 -0.393277,0.91347 -0.036,-0.005 -0.39913,-0.0603 -0.807711,-0.12285 -0.408129,-0.063 -1.09662,-0.15434 -1.529926,-0.20339 -0.432877,-0.049 -1.030418,-0.10934 -1.327436,-0.13454 -0.296985,-0.0248 -1.056072,-0.068 -1.687418,-0.0958 -0.634469,-0.0279 -1.560113,-0.0374 -2.069899,-0.0211 -0.507577,0.0162 -1.337309,0.0594 -1.844911,0.0963 -0.507577,0.0364 -1.236064,0.10665 -1.619921,0.15525 -0.383833,0.0486 -1.001201,0.13994 -1.372433,0.20339 -0.371232,0.063 -0.95847,0.17459 -1.304937,0.24748 -0.346483,0.0733 -0.979593,0.22455 -1.406667,0.33569 -0.427026,0.11114 -1.156023,0.32578 -1.619436,0.47698 -0.463478,0.15164 -1.116367,0.38158 -1.450694,0.51162 -0.334335,0.13004 -0.871145,0.35234 -1.192928,0.49408 -0.321734,0.14174 -0.939127,0.43827 -1.372433,0.65876 -0.432878,0.22049 -1.146959,0.61828 -1.586659,0.88418 -0.439182,0.26549 -1.07501,0.67497 -1.412494,0.91031 -0.337484,0.23489 -0.919299,0.67317 -1.293202,0.97328 -0.373935,0.30014 -0.974656,0.81854 -1.335124,1.15239 -0.360436,0.33389 -0.876567,0.84864 -1.147444,1.14388 -0.270885,0.29518 -0.652922,0.72806 -0.849536,0.96203 -0.196194,0.23399 -0.522873,0.64842 -0.725363,0.92067 -0.20249,0.27224 -0.560676,0.78836 -0.795563,1.14745 -0.235341,0.35863 -0.565176,0.89542 -0.733918,1.19244 -0.168289,0.29699 -0.472477,0.88417 -0.67542,1.30494 -0.203389,0.42073 -0.473829,1.02418 -0.60162,1.34046 -0.127345,0.31679 -0.340631,0.90401 -0.47293,1.30494 -0.132743,0.40139 -0.334335,1.09977 -0.448181,1.55242 -0.113393,0.45314 -0.266386,1.17173 -0.339281,1.59743 -0.07335,0.42613 -0.163788,1.03762 -0.201138,1.3594 -0.03735,0.32173 -0.09314,0.91889 -0.123744,1.32743 -0.03104,0.40813 -0.05579,1.49165 -0.05535,2.40739 4.5e-4,0.91614 0.0261,1.97853 0.0567,2.36238 0.0306,0.38384 0.09539,1.0615 0.14354,1.50654 0.0486,0.44458 0.139493,1.1434 0.202037,1.55242 0.063,0.40859 0.195287,1.14834 0.294283,1.64332 0.099,0.49497 0.278986,1.2847 0.400027,1.75491 0.121041,0.47023 0.324437,1.19916 0.451775,1.61992 0.127345,0.42073 0.359982,1.11952 0.517021,1.55243 0.15704,0.43333 0.41623,1.10155 0.575972,1.48492 0.159743,0.38384 0.436479,1.01108 0.615572,1.39494 0.17864,0.38338 0.487773,1.0012 0.687115,1.37243 0.198889,0.37123 0.512975,0.92788 0.698365,1.23744 0.184944,0.30913 0.509827,0.82574 0.721761,1.14744 0.211943,0.32174 0.607471,0.87835 0.878348,1.23744 0.271338,0.35863 0.64707,0.83424 0.83513,1.05608 0.188093,0.22184 0.576871,0.65742 0.863942,0.96745 0.287088,0.31004 0.793313,0.80996 1.124946,1.11102 0.331632,0.30058 0.795563,0.70737 1.030417,0.90312 0.23534,0.19574 0.670468,0.53907 0.967453,0.76226 0.296986,0.22363 0.813522,0.58812 1.147445,0.81085 0.334335,0.22229 0.840552,0.54628 1.125835,0.71996 0.284838,0.1737 0.862162,0.50083 1.282438,0.72627 0.420276,0.22544 1.0984,0.56517 1.506537,0.75461 0.408581,0.18945 1.117256,0.49588 1.574923,0.68082 0.458079,0.18494 1.308498,0.49542 1.889908,0.68937 0.581824,0.19394 1.442197,0.45537 1.912407,0.58092 0.470228,0.12554 1.168568,0.29743 1.552425,0.38248 0.383833,0.0846 0.972876,0.20474 1.309469,0.26639 0.336132,0.0621 0.97417,0.16424 1.417431,0.22724 0.442775,0.063 1.09929,0.14444 1.457897,0.18044 0.358631,0.0364 0.986796,0.0904 1.394932,0.12015 0.408582,0.0297 1.471413,0.0536 2.362386,0.0531 1.092087,-4.5e-4 1.934906,-0.0252 2.587374,-0.0761 0.532326,-0.0414 1.36256,-0.12554 1.84491,-0.18674 0.482829,-0.0612 1.124056,-0.15209 1.425525,-0.20159 0.301485,-0.0495 0.837882,-0.14939 1.192442,-0.22139 0.354584,-0.0724 0.826632,-0.17414 1.049355,-0.22634 0.22274,-0.0522 0.708716,-0.17684 1.079948,-0.27718 0.371232,-0.0999 1.046199,-0.30284 1.499738,-0.45089 0.453127,-0.14804 1.080838,-0.36627 1.394933,-0.48507 0.313633,-0.11834 0.843709,-0.33164 1.177631,-0.47293 0.334336,-0.14174 1.012451,-0.45672 1.507427,-0.70017 0.494976,-0.24343 1.153271,-0.58766 1.462429,-0.7654 0.309587,-0.1773 0.744714,-0.43604 0.967453,-0.57462 0.222739,-0.1386 0.606119,-0.39329 0.852288,-0.56608 0.246136,-0.17324 0.651117,-0.47697 0.899956,-0.67586 0.24884,-0.1989 0.78836,-0.69613 1.198755,-1.10561 0.410378,-0.40948 0.939127,-0.97692 1.17488,-1.26172 0.23534,-0.28483 0.61647,-0.77081 0.84638,-1.07994 0.229938,-0.30959 0.707368,-0.99805 1.060118,-1.52993 0.35324,-0.53232 1.12632,-1.75718 1.7185,-2.72237 0.59217,-0.96518 1.17399,-1.91151 1.29231,-2.10275 l 0.21599,-0.34784 0.60432,0.58363 c 0.33253,0.32128 0.8514,0.78205 1.15287,1.0241 0.30148,0.24209 0.77081,0.59353 1.04304,0.78161 0.27224,0.1881 0.78881,0.51839 1.14744,0.73438 0.35909,0.21598 1.01699,0.57056 1.46243,0.78836 0.44548,0.21734 1.09258,0.51207 1.43767,0.65426 0.34558,0.14264 0.94269,0.36898 1.32743,0.50353 0.38473,0.13499 1.07412,0.35233 1.5322,0.48373 0.45807,0.13139 1.106,0.30148 1.44041,0.37798 0.33478,0.0761 0.92917,0.20024 1.32161,0.27538 0.39193,0.0747 1.06012,0.18629 1.48404,0.24704 0.42432,0.0608 1.06505,0.1413 1.42374,0.17864 0.35909,0.0378 0.92561,0.09 1.25994,0.11609 0.33434,0.0257 1.28559,0.0589 2.1149,0.0738 0.91209,0.0162 1.91597,0.006 2.54237,-0.0252 0.56923,-0.0283 1.37915,-0.0828 1.79992,-0.12059 0.42073,-0.0373 1.15602,-0.11789 1.63432,-0.17819 0.47833,-0.0608 1.17666,-0.16199 1.55243,-0.22544 0.37573,-0.0639 0.98137,-0.17504 1.34589,-0.24749 0.36448,-0.0724 1.03317,-0.22139 1.48581,-0.33073 0.45269,-0.10979 1.11637,-0.28259 1.47457,-0.38473 0.35819,-0.10215 0.8743,-0.25739 1.14656,-0.34514 0.27223,-0.0873 0.72806,-0.24073 1.01245,-0.34018 0.28484,-0.0994 0.86167,-0.31814 1.28244,-0.48598 0.42073,-0.16784 0.97417,-0.39913 1.22934,-0.51433 0.25559,-0.11518 0.75192,-0.35323 1.10245,-0.52872 0.35098,-0.17549 0.89138,-0.46213 1.20053,-0.63716 0.30959,-0.17505 0.78522,-0.45808 1.05745,-0.62907 0.27224,-0.17145 0.69747,-0.45494 0.94496,-0.63043 0.24748,-0.17549 0.58182,-0.42117 0.74246,-0.54537 0.16109,-0.12419 0.46483,-0.36718 0.67497,-0.53997 0.21059,-0.17279 0.67317,-0.59847 1.02864,-0.94585 0.35548,-0.34783 0.84953,-0.8743 1.0984,-1.16994 0.24838,-0.29609 0.61827,-0.76182 0.82169,-1.03495 0.20339,-0.27359 0.56202,-0.79106 0.79736,-1.14971 0.23579,-0.35909 0.57418,-0.90578 0.75282,-1.21494 0.17864,-0.30959 0.52332,-0.96745 0.76586,-1.46243 0.24298,-0.49498 0.58272,-1.255 0.75551,-1.68831 0.17234,-0.43378 0.43558,-1.16274 0.58407,-1.61992 0.14895,-0.45763 0.35279,-1.15554 0.45358,-1.55153 0.10079,-0.39599 0.24389,-1.02371 0.31859,-1.39494 0.0742,-0.37123 0.18584,-1.02952 0.24793,-1.46243 0.0621,-0.43333 0.14355,-1.14202 0.1809,-1.57492 0.0378,-0.43333 0.0814,-1.24327 0.0972,-1.79991 0.0167,-0.59037 0.006,-1.41565 -0.0234,-1.97991 -0.0288,-0.53232 -0.0819,-1.26131 -0.11879,-1.61992 -0.0369,-0.35863 -0.10845,-0.94633 -0.1593,-1.30493 -0.0513,-0.35909 -0.17279,-1.05745 -0.27043,-1.55243 -0.0976,-0.49497 -0.27854,-1.28875 -0.40139,-1.7639 -0.12284,-0.47518 -0.35728,-1.27523 -0.52152,-1.77741 -0.16379,-0.50262 -0.42793,-1.24602 -0.58677,-1.65229 -0.15884,-0.40679 -0.39239,-0.97377 -0.51883,-1.25994 -0.12644,-0.28664 -0.40137,-0.86532 -0.61152,-1.286 -0.20969,-0.42073 -0.54852,-1.05883 -0.75236,-1.41743 -0.20429,-0.35909 -0.51792,-0.88555 -0.69747,-1.16995 -0.17954,-0.28483 -0.48958,-0.75056 -0.68847,-1.03495 -0.19934,-0.28483 -0.55616,-0.77081 -0.79285,-1.07994 -0.2367,-0.30959 -0.67318,-0.84598 -0.97013,-1.19245 -0.29653,-0.34648 -0.88466,-0.97417 -1.30672,-1.39493 -0.42162,-0.42073 -1.00978,-0.97198 -1.30582,-1.2253 -0.29654,-0.25288 -0.76182,-0.63312 -1.03406,-0.8446 -0.27224,-0.21149 -0.76182,-0.56652 -1.08804,-0.78881 -0.32578,-0.22229 -0.86257,-0.56742 -1.19245,-0.76676 -0.32938,-0.1998 -1.02459,-0.57282 -1.54433,-0.8293 -0.51972,-0.256941 -1.23833,-0.581823 -1.59742,-0.723121 -0.35863,-0.140845 -0.92294,-0.344687 -1.25322,-0.452229 -0.33028,-0.107994 -0.96025,-0.286189 -1.39987,-0.396879 -0.43963,-0.110244 -1.09071,-0.251534 -1.44665,-0.314531 -0.35638,-0.06254 -0.90044,-0.143993 -1.21,-0.18089 -0.30913,-0.03735 -0.92699,-0.09089 -1.37243,-0.119244 -0.49363,-0.03195 -1.20774,-0.0405 -1.82784,-0.0225 l -1.01787,0.02925 -0.0266,-0.170094 c -0.0148,-0.09314 -0.0675,-0.615118 -0.11744,-1.159584 -0.0499,-0.544473 -0.12105,-1.425524 -0.1584,-1.957405 -0.0369,-0.532325 -0.0882,-1.453445 -0.11429,-2.0474 -0.0256,-0.593971 -0.0473,-2.041978 -0.0473,-3.217344 0,-1.17577 0.0216,-2.582842 0.0473,-3.127348 0.0261,-0.544474 0.0774,-1.425525 0.11429,-1.957405 0.0369,-0.531873 0.10755,-1.382793 0.15705,-1.889908 0.0495,-0.507577 0.15074,-1.398089 0.22499,-1.979904 0.0738,-0.581824 0.22634,-1.613204 0.33884,-2.292218 0.11249,-0.679014 0.29518,-1.681591 0.40677,-2.227392 0.11115,-0.545825 0.34199,-1.559628 0.51252,-2.252562 0.171,-0.692966 0.44233,-1.705384 0.60343,-2.24989 0.16109,-0.544474 0.43423,-1.407963 0.60702,-1.91872 0.17279,-0.511179 0.44683,-1.275235 0.60927,-1.698182 0.16199,-0.42298 0.44817,-1.128992 0.63582,-1.568611 0.18719,-0.439627 0.56067,-1.24958 0.82979,-1.800398 0.26909,-0.550325 0.65562,-1.299514 0.85949,-1.664919 0.20339,-0.364936 0.54177,-0.947221 0.75192,-1.293688 0.20968,-0.346483 0.57417,-0.913471 0.80996,-1.259938 0.23533,-0.346484 0.61062,-0.872926 0.83335,-1.169944 0.22274,-0.296985 0.64841,-0.833835 0.94544,-1.192442 0.29744,-0.359084 0.9265,-1.038106 1.39849,-1.510097 0.56653,-0.565176 1.0012,-0.956689 1.27702,-1.149225 0.22994,-0.160641 0.8743,-0.584972 1.43183,-0.942688 0.55708,-0.357733 1.5848,-1.026371 2.28364,-1.486304 0.69882,-0.459876 1.48226,-0.993998 1.74051,-1.187505 0.25874,-0.193491 0.62232,-0.478329 0.80771,-0.632673 0.18585,-0.154789 0.46033,-0.409933 0.61018,-0.567425 0.14983,-0.157493 0.33973,-0.385185 0.42207,-0.505773 0.0828,-0.120595 0.17819,-0.313188 0.21284,-0.427479 0.0346,-0.114291 0.0805,-0.380231 0.10214,-0.59037 0.0234,-0.227692 0.0221,-0.551676 -0.003,-0.799609 -0.0234,-0.229489 -0.0918,-0.587222 -0.1521,-0.79511 -0.0603,-0.207888 -0.18764,-0.558871 -0.28258,-0.77936 -0.0954,-0.220943 -0.28033,-0.582269 -0.41173,-0.802313 -0.13094,-0.220489 -0.41218,-0.634016 -0.62502,-0.918409 -0.22184,-0.296532 -0.68532,-0.816273 -1.08578,-1.217612 -0.38473,-0.385184 -0.90133,-0.860785 -1.14833,-1.057448 -0.24659,-0.196639 -0.75371,-0.560223 -1.12673,-0.808164 -0.37258,-0.247488 -0.97061,-0.595768 -1.32832,-0.773064 -0.35773,-0.177742 -0.88466,-0.403184 -1.17043,-0.500828 -0.28619,-0.0981 -0.68082,-0.209693 -0.87746,-0.248839 -0.19664,-0.0387 -0.51972,-0.07964 -0.71771,-0.09135 z m -11.59584,19.343396 c 0.007,0.0077 -0.19215,0.425682 -0.44414,0.928768 -0.25199,0.503522 -0.65022,1.330592 -0.88555,1.838597 -0.23489,0.508023 -0.60972,1.348559 -0.83246,1.8683 -0.22229,0.519725 -0.58542,1.399869 -0.80637,1.955625 -0.22093,0.556176 -0.57056,1.477239 -0.77755,2.0474 -0.20655,0.570121 -0.55122,1.573548 -0.76632,2.229173 -0.21463,0.655616 -0.53862,1.708541 -0.71996,2.339886 -0.18089,0.630868 -0.43154,1.552425 -0.55708,2.047401 -0.12509,0.494976 -0.31858,1.304936 -0.42927,1.799912 -0.11115,0.494976 -0.28349,1.31481 -0.38294,1.822412 -0.0999,0.507123 -0.25244,1.358027 -0.33973,1.889908 -0.0868,0.531873 -0.20834,1.341841 -0.26953,1.799913 -0.0612,0.458079 -0.15255,1.22708 -0.20249,1.709917 -0.0499,0.482375 -0.1215,1.292311 -0.15885,1.799912 -0.0373,0.507124 -0.0882,1.418322 -0.11295,2.024902 -0.0252,0.606119 -0.0455,1.57808 -0.0455,2.159895 0,0.58137 0.0202,1.533082 0.045,2.114897 0.0248,0.581371 0.0756,1.472303 0.11339,1.979904 0.0378,0.507124 0.11969,1.377856 0.18179,1.934906 0.0621,0.556622 0.14264,1.209519 0.17864,1.450694 0.036,0.241192 0.0657,0.458978 0.0657,0.483727 0,0.02925 -0.39103,0.04545 -1.09751,0.04545 -0.60343,0 -1.45928,0.0207 -1.90116,0.04635 -0.44189,0.0252 -1.10738,0.07695 -1.47862,0.114291 -0.37123,0.03735 -0.94811,0.107542 -1.28243,0.156141 -0.33434,0.04904 -0.87074,0.140845 -1.19245,0.204287 -0.32173,0.0639 -0.90627,0.195741 -1.29911,0.293384 -0.39283,0.09764 -1.00031,0.269987 -1.34993,0.383833 -0.34963,0.113393 -0.9193,0.317688 -1.26577,0.454025 -0.34648,0.136345 -0.89324,0.373029 -1.21494,0.526474 -0.32173,0.153446 -0.80771,0.406329 -1.07995,0.562029 -0.27223,0.15524 -0.77846,0.47112 -1.12494,0.70151 -0.34648,0.23039 -0.90311,0.63762 -1.23744,0.90489 -0.33388,0.26729 -0.93233,0.81086 -1.32922,1.20823 -0.39688,0.39688 -0.89542,0.93411 -1.10738,1.19422 -0.21239,0.25964 -0.56068,0.71142 -0.77396,1.00387 -0.212844,0.29249 -0.548077,0.78971 -0.744263,1.10561 -0.196194,0.31543 -0.519272,0.87656 -0.718613,1.24601 -0.199342,0.36944 -0.501726,0.98542 -0.671819,1.36928 -0.170094,0.38338 -0.37888,0.87519 -0.463025,1.09298 l -0.153891,0.39508 -0.109791,-0.027 c -0.06029,-0.0148 -0.316336,-0.12464 -0.569222,-0.24389 -0.252887,-0.11924 -0.659218,-0.33433 -0.902628,-0.47743 -0.243886,-0.14308 -0.847755,-0.52287 -1.342245,-0.84371 -0.494078,-0.32082 -1.193818,-0.7609 -1.554206,-0.97821 -0.36088,-0.21689 -0.904893,-0.51927 -1.209114,-0.67182 -0.304188,-0.15299 -0.769009,-0.36448 -1.032683,-0.47023 -0.263691,-0.10619 -0.661921,-0.24613 -0.884661,-0.31138 -0.222739,-0.0648 -0.597119,-0.15885 -0.832459,-0.20789 -0.234887,-0.0495 -0.582722,-0.10305 -0.772166,-0.11924 -0.189889,-0.0162 -0.36763,-0.0436 -0.395527,-0.0608 -0.0342,-0.0211 0.07695,-0.39419 0.350982,-1.17488 0.220943,-0.62907 0.522873,-1.46785 0.671366,-1.86385 0.148493,-0.39598 0.426128,-1.11507 0.616924,-1.59742 0.19124,-0.48283 0.555723,-1.36345 0.80996,-1.957409 0.254691,-0.593971 0.639422,-1.464695 0.855444,-1.934906 0.21599,-0.470227 0.662367,-1.40165 0.992218,-2.0699 0.329836,-0.668217 0.815383,-1.619921 1.078572,-2.114897 0.263691,-0.494976 0.714114,-1.315296 1.001201,-1.822412 0.287088,-0.507577 0.782962,-1.354466 1.101071,-1.882219 0.318586,-0.527826 0.813522,-1.327921 1.099776,-1.777414 0.286189,-0.449525 0.794665,-1.22263 1.130368,-1.717606 0.335233,-0.494975 0.862647,-1.254516 1.171723,-1.687418 0.309587,-0.43333 0.906674,-1.243267 1.327438,-1.799912 0.42073,-0.557075 1.0084,-1.316186 1.30582,-1.687418 0.29744,-0.371232 0.82753,-1.019168 1.17804,-1.43993 0.35053,-0.42073 0.94763,-1.119523 1.32695,-1.552425 0.37933,-0.433331 1.01423,-1.142022 1.41112,-1.574924 0.39688,-0.43333 1.39089,-1.462914 2.20845,-2.288171 0.81757,-0.825257 1.90205,-1.890394 2.40917,-2.366917 0.50757,-0.476524 1.23655,-1.14793 1.61992,-1.491646 0.38383,-0.344233 1.06198,-0.940907 1.50743,-1.326545 0.44547,-0.38563 1.23517,-1.051621 1.75491,-1.479991 0.51973,-0.428831 1.40076,-1.137085 1.95741,-1.574033 0.55707,-0.437377 1.41743,-1.09929 1.9124,-1.471008 0.49498,-0.371685 1.23429,-0.918894 1.64242,-1.215427 0.40813,-0.296532 1.15732,-0.831569 1.66492,-1.188881 0.50713,-0.357279 1.64105,-1.128506 2.51988,-1.713963 0.87835,-0.58587 1.60373,-1.058825 1.61134,-1.051136 z"
     id="icon" /></svg>