<?xml version="1.0" encoding="UTF-8" standalone="no"?>
<svg
   xmlns:dc="http://purl.org/dc/elements/1.1/"
   xmlns:cc="http://creativecommons.org/ns#"
   xmlns:rdf="http://www.w3.org/1999/02/22-rdf-syntax-ns#"
   xmlns:svg="http://www.w3.org/2000/svg"
   xmlns="http://www.w3.org/2000/svg"
   id="svg11"
   xml:space="preserve"
   enable-background="new 0 0 200 200"
   viewBox="0 0 200 200"
   y="0px"
   x="0px"
   version="1.1"><metadata
     id="metadata15"><rdf:RDF><cc:Work
         rdf:about=""><dc:format>image/svg+xml</dc:format><dc:type
           rdf:resource="http://purl.org/dc/dcmitype/StillImage" /></cc:Work></rdf:RDF></metadata><defs
     id="defs719094" /><linearGradient
     spreadMethod="pad"
     y2="30%"
     x2="-10%"
     y1="120%"
     x1="30%"
     id="3d_gradient2-logo-8DBD3F5A310F4E9E8FD88A2B5D041965"><stop
       id="stop719071"
       stop-opacity="1"
       stop-color="#ffffff"
       offset="0%" /><stop
       id="stop719073"
       stop-opacity="1"
       stop-color="#000000"
       offset="100%" /></linearGradient><linearGradient
     gradientTransform="rotate(-30)"
     spreadMethod="pad"
     y2="30%"
     x2="-10%"
     y1="120%"
     x1="30%"
     id="3d_gradient3-logo-8DBD3F5A310F4E9E8FD88A2B5D041965"><stop
       id="stop719076"
       stop-opacity="1"
       stop-color="#ffffff"
       offset="0%" /><stop
       id="stop719078"
       stop-opacity="1"
       stop-color="#cccccc"
       offset="50%" /><stop
       id="stop719080"
       stop-opacity="1"
       stop-color="#000000"
       offset="100%" /></linearGradient><path
     style="fill:#853d46;stroke-width:0.7036888"
     d="m 117.53037,40.002461 c -0.0106,0.0031 -0.20658,0.01878 -0.43547,0.03521 -0.22848,0.01643 -0.60722,0.06769 -0.84119,0.113857 -0.23397,0.04617 -0.63656,0.15415 -0.89481,0.239838 -0.25822,0.08568 -0.69838,0.268401 -0.97812,0.406507 -0.27975,0.138113 -0.6933,0.372082 -0.91944,0.51997 -0.22575,0.147894 -0.59549,0.415507 -0.82163,0.594701 -0.22575,0.179194 -0.66669,0.582964 -0.97932,0.897133 -0.31261,0.314176 -0.71523,0.747317 -0.89439,0.962505 -0.17881,0.215189 -0.50902,0.634221 -0.73282,0.931192 -0.22419,0.296957 -0.59823,0.825145 -0.83106,1.173753 -0.23279,0.348607 -0.57279,0.871307 -0.75548,1.162001 -0.18311,0.290307 -0.80516,1.311465 -1.38268,2.269256 -0.57748,0.957368 -1.20035,1.977787 -1.38387,2.267285 l -0.33335,0.526626 -0.13302,-0.291876 c -0.0732,-0.160412 -0.3177,-0.714033 -0.54345,-1.23047 -0.22576,-0.516451 -0.59979,-1.326312 -0.83063,-1.799754 -0.23123,-0.473414 -0.56223,-1.098599 -0.73592,-1.388941 -0.17371,-0.290701 -0.45111,-0.721844 -0.61661,-0.958565 -0.16589,-0.236707 -0.47107,-0.641652 -0.67804,-0.899877 -0.20736,-0.258226 -0.65025,-0.742955 -0.98439,-1.076714 -0.33374,-0.334126 -0.77427,-0.739859 -0.978898,-0.901848 -0.204232,-0.162369 -0.521145,-0.401032 -0.704252,-0.530926 -0.182713,-0.129894 -0.508626,-0.343907 -0.723814,-0.474976 -0.215188,-0.131463 -0.663952,-0.370513 -0.99769,-0.530926 -0.333344,-0.160807 -0.779406,-0.356038 -0.991005,-0.434289 -0.211275,-0.07825 -0.595095,-0.203056 -0.852941,-0.277394 -0.257445,-0.07394 -0.64517,-0.170588 -0.861174,-0.214794 -0.21597,-0.04382 -0.571621,-0.106813 -0.790313,-0.140069 -0.219101,-0.03286 -0.813042,-0.06964 -1.324765,-0.08177 -0.588438,-0.01409 -1.107606,-0.0051 -1.422225,0.02465 -0.272701,0.02543 -0.706574,0.08099 -0.964828,0.12285 -0.257831,0.04226 -0.691733,0.130675 -0.964054,0.197187 -0.272313,0.06612 -0.732399,0.199144 -1.023093,0.295395 -0.290306,0.09625 -0.737536,0.263313 -0.993397,0.370513 -0.255875,0.107594 -0.671777,0.298913 -0.924506,0.425682 -0.252751,0.126763 -0.615827,0.322001 -0.806357,0.433895 -0.190932,0.111901 -0.57749,0.359951 -0.859204,0.550489 -0.281701,0.190932 -0.704252,0.500801 -0.939003,0.688601 -0.23475,0.187801 -0.55597,0.464027 -0.71361,0.61387 -0.159632,0.151026 -0.398295,0.438982 -0.537576,0.648302 -0.137719,0.206969 -0.328257,0.542663 -0.423333,0.745699 -0.09468,0.20345 -0.244137,0.580613 -0.331782,0.838445 -0.08725,0.257831 -0.220663,0.723814 -0.296175,1.036041 -0.07551,0.311825 -0.181151,0.806005 -0.234357,1.098247 -0.05321,0.291876 -0.13185,0.802487 -0.174501,1.134628 -0.04264,0.331782 -0.100163,0.858782 -0.127937,1.171008 -0.02778,0.318476 -0.04969,1.124847 -0.0493,1.83888 3.91e-4,0.699164 0.0223,1.526653 0.04891,1.838879 0.02699,0.311826 0.08372,0.857656 0.126762,1.212878 0.04264,0.354863 0.122069,0.908462 0.176457,1.229696 0.05399,0.32122 0.143201,0.805161 0.197582,1.075941 0.05438,0.270357 0.167844,0.779757 0.251963,1.131531 0.08451,0.352126 0.251181,0.985938 0.370907,1.408504 0.119332,0.422945 0.355257,1.182337 0.524276,1.688219 0.168632,0.505495 0.635783,1.80834 1.038012,2.895257 0.402207,1.086496 1.039559,2.820948 1.416736,3.853822 0.376776,1.032875 0.904944,2.494225 1.173331,3.247383 0.268401,0.753159 0.690952,1.950415 0.93858,2.660507 0.24805,0.710092 0.589227,1.704686 0.758647,2.210568 0.169413,0.505889 0.42177,1.315405 0.560664,1.799754 0.138894,0.483976 0.476545,1.743037 0.750414,2.797445 0.273481,1.054407 0.51567,1.991861 0.537576,2.083411 0.0223,0.09155 0.03286,0.17215 0.02387,0.179581 -0.009,0.0078 -0.248839,0.140457 -0.532883,0.295001 l -0.516057,0.281306 -0.46207,-0.261357 c -0.253919,-0.143981 -0.540708,-0.315351 -0.637739,-0.381469 -0.09664,-0.06573 -0.367382,-0.29657 -0.601351,-0.512539 -0.234357,-0.215969 -0.55127,-0.505495 -0.704252,-0.642827 -0.155515,-0.13933 -0.492582,-0.428546 -0.750836,-0.645282 -0.258254,-0.216033 -0.713541,-0.575618 -1.011905,-0.798687 -0.298364,-0.222366 -0.764909,-0.551692 -1.037237,-0.730429 -0.271624,-0.178737 -0.669912,-0.426435 -0.88524,-0.550988 -0.215329,-0.12385 -0.628394,-0.345512 -0.919018,-0.491175 -0.290307,-0.145938 -0.744151,-0.354082 -1.007893,-0.462457 -0.264095,-0.108376 -0.695252,-0.266832 -0.958565,-0.35252 -0.263314,-0.08529 -0.661995,-0.201889 -0.885804,-0.258226 -0.223794,-0.05673 -0.655345,-0.145157 -0.958564,-0.196407 -0.303614,-0.05126 -0.824372,-0.114243 -1.158131,-0.140069 -0.36347,-0.02817 -0.888548,-0.03717 -1.310691,-0.02269 -0.387339,0.01291 -0.924155,0.05086 -1.193316,0.08451 -0.268788,0.03326 -0.726558,0.105244 -1.017252,0.160413 -0.290307,0.05478 -0.760617,0.159238 -1.044626,0.2324 -0.284438,0.07278 -0.795028,0.223013 -1.134628,0.334126 -0.339994,0.111112 -0.864693,0.298913 -1.165942,0.417076 -0.301263,0.118157 -0.796998,0.326695 -1.102188,0.462852 -0.304781,0.136156 -0.820853,0.381469 -1.147153,0.545014 -0.326301,0.16315 -0.851745,0.439763 -1.16749,0.613869 -0.315738,0.174501 -0.776239,0.454246 -1.023938,0.621308 -0.247269,0.167457 -0.630695,0.465195 -0.851745,0.661609 -0.221056,0.196406 -0.536794,0.518801 -0.701514,0.716777 -0.165106,0.197976 -0.393988,0.504714 -0.509407,0.681171 -0.115419,0.176844 -0.313395,0.53797 -0.440552,0.802064 -0.126762,0.264489 -0.291482,0.665521 -0.366213,0.891644 -0.07434,0.225751 -0.182326,0.620914 -0.239839,0.877571 -0.05751,0.256663 -0.154938,0.767231 -0.21675,1.134627 -0.06182,0.367382 -0.143982,0.922959 -0.182713,1.235185 -0.05595,0.451114 -0.07043,0.859204 -0.07082,1.99538 -3.91e-4,1.154613 0.0133,1.532916 0.07082,1.975818 0.03913,0.301263 0.124026,0.820078 0.188582,1.152642 0.06495,0.332563 0.194844,0.873278 0.289132,1.201126 0.09429,0.328257 0.261357,0.836475 0.370907,1.129913 0.109944,0.293044 0.30557,0.763714 0.434683,1.0454 0.128718,0.281307 0.34195,0.706996 0.473019,0.945265 0.131069,0.238663 0.370126,0.644783 0.53132,0.902974 0.161194,0.258225 0.411989,0.636567 0.557139,0.841197 0.145157,0.20423 0.419814,0.5767 0.610745,0.82746 0.190538,0.2504 0.540321,0.68196 0.777014,0.95857 0.236706,0.27661 0.652608,0.72459 0.924506,0.99614 0.272313,0.27113 0.664732,0.63656 0.872855,0.81142 0.208145,0.17489 0.527014,0.42803 0.708967,0.56301 0.182326,0.1346 0.520364,0.36386 0.751188,0.5098 0.231232,0.14555 0.607614,0.36113 0.836897,0.4789 0.228882,0.11737 0.660433,0.30987 0.958565,0.42724 0.298131,0.11698 0.779757,0.27544 1.070099,0.35173 0.290701,0.0763 0.730851,0.17294 0.978128,0.21441 0.247663,0.0419 0.696426,0.0974 0.99769,0.12364 0.340388,0.0293 0.843933,0.0387 1.330253,0.0246 0.430376,-0.0125 0.940972,-0.0434 1.134628,-0.0689 0.201888,-0.0263 0.552445,-0.0368 0.821627,-0.0246 0.316519,0.0145 0.595876,0.054 0.858007,0.12168 0.213626,0.0552 0.556752,0.18076 0.76294,0.27935 l 0.374425,0.1788 1.461703,1.47465 c 0.804035,0.81107 1.73987,1.76886 2.07947,2.12838 0.339995,0.35956 0.793058,0.85252 1.006698,1.0955 0.213626,0.24296 0.535232,0.61778 0.714807,0.83296 0.179581,0.21519 0.510976,0.63774 0.737114,0.939 0.22575,0.30126 0.554795,0.76765 0.731273,1.03682 0.176457,0.26878 0.52897,0.84977 0.783276,1.29112 0.254313,0.44094 0.737536,1.34785 1.073196,2.01495 0.335695,0.66708 0.753158,1.5384 0.928447,1.93669 0.174888,0.3979 0.423726,0.97932 0.552445,1.29113 0.129113,0.31182 0.3353,0.8314 0.457763,1.15419 0.122463,0.32278 0.350564,0.94758 0.506276,1.38894 0.15572,0.44133 0.39947,1.17178 0.541883,1.62369 0.142025,0.45189 0.347819,1.12956 0.456982,1.50632 0.109157,0.37638 0.320045,1.15109 0.469108,1.7215 0.149069,0.57005 0.375995,1.49456 0.504713,2.05407 0.128719,0.55949 0.339608,1.5384 0.469107,2.17573 0.129507,0.63695 0.305957,1.5439 0.392032,2.01494 0.08568,0.47107 0.245707,1.37565 0.355258,2.01065 0.10955,0.63461 0.278963,1.55917 0.375995,2.05407 0.09703,0.49493 0.309088,1.49851 0.471063,2.23013 0.161975,0.73163 0.511364,2.19298 0.776661,3.24739 0.26527,1.0544 0.729303,2.85029 1.030975,3.99076 0.302044,1.14046 0.65652,2.48718 0.788342,2.99307 0.13185,0.50549 0.302439,1.10408 0.37912,1.33025 0.07629,0.22575 0.2101,0.56927 0.29735,0.76294 0.08686,0.19367 0.219882,0.46637 0.295395,0.60644 0.07551,0.13967 0.264094,0.44798 0.41942,0.68469 0.154938,0.2367 0.401426,0.57983 0.548145,0.76294 0.146325,0.18271 0.496495,0.56262 0.777435,0.84351 0.281307,0.28091 0.696427,0.66121 0.922187,0.84548 0.22615,0.18389 0.62209,0.48437 0.88032,0.66708 0.25822,0.18311 0.68429,0.46716 0.94681,0.63149 0.26214,0.16432 0.74028,0.44915 1.06187,0.63303 0.32161,0.1835 0.79348,0.42021 1.04856,0.52546 0.2551,0.10525 0.61388,0.23475 0.79658,0.28756 0.18311,0.0529 0.50863,0.12638 0.72381,0.16355 0.24102,0.0414 0.60135,0.0673 0.93901,0.0677 0.34469,3.9e-4 0.6929,-0.0246 0.939,-0.0673 0.21519,-0.0371 0.57631,-0.12755 0.80206,-0.20111 0.22615,-0.0735 0.58688,-0.21988 0.80207,-0.32473 0.21518,-0.10486 0.55753,-0.30009 0.76097,-0.43351 0.20345,-0.13381 0.54657,-0.38617 0.76294,-0.56105 0.21636,-0.17489 0.6033,-0.50276 0.85997,-0.72888 0.25666,-0.22575 0.7101,-0.64635 1.00783,-0.93429 0.29735,-0.28796 0.76997,-0.77469 1.05011,-1.08101 0.28013,-0.30674 0.68782,-0.77589 0.90649,-1.04188 0.21871,-0.26644 0.5681,-0.71326 0.77666,-0.99297 0.20854,-0.27975 0.58141,-0.81692 0.82867,-1.19332 0.24687,-0.37678 0.60448,-0.95779 0.79503,-1.29113 0.19015,-0.33374 0.50745,-0.94097 0.70467,-1.34981 0.19758,-0.40886 0.46128,-0.98988 0.5857,-1.29113 0.12481,-0.30127 0.313,-0.7856 0.41825,-1.07594 0.10525,-0.29031 0.27856,-0.81501 0.38499,-1.16594 0.10642,-0.35057 0.26253,-0.91396 0.34743,-1.25201 0.0845,-0.33765 0.20658,-0.87834 0.27113,-1.20112 0.0645,-0.32279 0.16159,-0.87757 0.21597,-1.23244 0.0547,-0.35526 0.12599,-0.89207 0.15925,-1.19332 0.0329,-0.30126 0.0786,-0.76801 0.10172,-1.03681 0.0227,-0.26919 0.0516,-1.1143 0.0638,-1.87801 0.0141,-0.86547 0.006,-1.70588 -0.0231,-2.23013 -0.0254,-0.46285 -0.072,-1.13188 -0.10368,-1.48675 -0.0317,-0.35526 -0.0927,-0.93626 -0.13616,-1.29113 -0.0434,-0.35526 -0.14124,-1.05054 -0.21715,-1.54544 -0.0763,-0.49494 -0.19992,-1.22583 -0.27465,-1.62369 -0.0747,-0.3983 -0.21597,-1.11113 -0.31418,-1.58457 -0.0978,-0.47341 -0.29148,-1.36276 -0.43076,-1.97582 -0.1389,-0.61348 -0.45347,-1.9692 -0.69878,-3.01263 -0.24531,-1.04385 -0.55127,-2.37291 -0.6796,-2.95395 -0.12873,-0.581 -0.29774,-1.37247 -0.3756,-1.75908 -0.0779,-0.38655 -0.2105,-1.11738 -0.29461,-1.62369 -0.0845,-0.50667 -0.24297,-1.53721 -0.35213,-2.29036 -0.10955,-0.75316 -0.23397,-1.59632 -0.27661,-1.87372 -0.0431,-0.277 -0.0732,-0.50902 -0.0669,-0.51489 0.006,-0.006 0.19875,0.0732 0.42803,0.17567 0.22966,0.10252 0.617,0.30597 0.86075,0.4519 0.24414,0.14594 0.64635,0.41668 0.89362,0.60136 0.25275,0.18858 0.70854,0.59391 1.03955,0.92373 0.32436,0.32356 0.72227,0.74647 0.88426,0.9402 0.16237,0.19367 0.61661,0.76568 1.01022,1.27156 0.3932,0.5055 0.8846,1.12133 1.09156,1.36818 0.20658,0.24649 0.60566,0.67804 0.88615,0.95857 0.28054,0.28053 0.67648,0.64674 0.88032,0.81382 0.20345,0.16745 0.52858,0.41785 0.72226,0.55635 0.19367,0.13851 0.53954,0.35839 0.76878,0.48868 0.22928,0.13029 0.60449,0.31574 0.83373,0.41199 0.22927,0.0959 0.56145,0.21831 0.73754,0.27192 0.17606,0.0536 0.49649,0.13537 0.71171,0.18193 0.29618,0.0637 0.5767,0.0888 1.15497,0.10289 0.58805,0.0145 0.86701,0.004 1.21287,-0.0462 0.24689,-0.036 0.65183,-0.11581 0.89911,-0.17802 0.24727,-0.0618 0.60839,-0.16824 0.80206,-0.23632 0.19367,-0.068 0.55088,-0.21832 0.79348,-0.33295 0.24258,-0.11503 0.62131,-0.32709 0.84119,-0.47107 0.21988,-0.14437 0.5231,-0.36308 0.67373,-0.48671 0.15063,-0.12325 0.44134,-0.3983 0.64635,-0.61075 0.20502,-0.21245 0.48006,-0.52975 0.61113,-0.70467 0.13146,-0.17528 0.33687,-0.47694 0.4562,-0.66983 0.11933,-0.19288 0.30753,-0.53131 0.41825,-0.75196 0.11072,-0.22028 0.2774,-0.58805 0.37052,-0.81691 0.0931,-0.22888 0.24218,-0.64165 0.33099,-0.91712 0.0892,-0.27505 0.22263,-0.75041 0.29696,-1.05638 0.0739,-0.30557 0.17802,-0.79348 0.23084,-1.08375 0.0532,-0.2907 0.12833,-0.7837 0.16707,-1.0955 0.0559,-0.45033 0.0704,-0.85372 0.0704,-1.95626 0,-1.0924 -0.0148,-1.51025 -0.0697,-1.95625 -0.0379,-0.31222 -0.12325,-0.88426 -0.18898,-1.27157 -0.0661,-0.38734 -0.22262,-1.10922 -0.34821,-1.60413 -0.1252,-0.49493 -0.32826,-1.20816 -0.45033,-1.58456 -0.12208,-0.37678 -0.35369,-1.03682 -0.51489,-1.46719 -0.16081,-0.43038 -0.38812,-1.05131 -0.50471,-1.37959 -0.11698,-0.32825 -0.28562,-0.76842 -0.37482,-0.97812 -0.0888,-0.20971 -0.34235,-0.681959 -0.56262,-1.049699 -0.22027,-0.36817 -0.59118,-0.966798 -0.82395,-1.330254 -0.23319,-0.363863 -0.86272,-1.32202 -1.3995,-2.128799 -0.53641,-0.807131 -1.30407,-1.977788 -1.70546,-2.601819 -0.40142,-0.624045 -0.98242,-1.5396 -1.29113,-2.034505 -0.30869,-0.494932 -0.75512,-1.216818 -0.99185,-1.604129 -0.2367,-0.387338 -0.68507,-1.126817 -0.99614,-1.643254 -0.31144,-0.516451 -0.95701,-1.599414 -1.43475,-2.406193 -0.47771,-0.807131 -0.97693,-1.662043 -1.10957,-1.900312 -0.13264,-0.238269 -0.38852,-0.74028 -0.56889,-1.115065 -0.18036,-0.375207 -0.43429,-0.946039 -0.56379,-1.268821 -0.12989,-0.322782 -0.31573,-0.824372 -0.41316,-1.115065 -0.0978,-0.290701 -0.23201,-0.721844 -0.29853,-0.958565 -0.0665,-0.236707 -0.17449,-0.657696 -0.23983,-0.935484 -0.0654,-0.277788 -0.16941,-0.806005 -0.23084,-1.173753 -0.0619,-0.367776 -0.14124,-0.941747 -0.17685,-1.275084 -0.036,-0.333739 -0.0747,-1.055604 -0.0861,-1.604129 -0.0125,-0.585314 -0.003,-1.272762 0.0235,-1.662817 0.0246,-0.365819 0.072,-0.894036 0.10525,-1.173753 0.0329,-0.279744 0.0947,-0.719873 0.13655,-0.978127 0.0422,-0.258226 0.11346,-0.645564 0.15845,-0.860752 0.0446,-0.215188 0.23906,-1.060318 0.43155,-1.878005 0.1925,-0.817686 0.50941,-2.11944 0.70426,-2.892512 0.19445,-0.772721 0.48319,-1.856894 0.64087,-2.408164 0.15806,-0.551664 0.41394,-1.389363 0.56849,-1.861538 0.15493,-0.472239 0.36582,-1.089663 0.4691,-1.372123 0.10329,-0.282482 0.32983,-0.876374 0.50354,-1.319276 0.17333,-0.442895 0.38616,-1.039137 0.47303,-1.325187 0.0865,-0.285613 0.20853,-0.766035 0.27074,-1.067355 0.0626,-0.301263 0.14555,-0.776661 0.18389,-1.056377 0.0536,-0.386164 0.0704,-0.767654 0.0708,-1.584567 4e-4,-0.803612 -0.0172,-1.214848 -0.0692,-1.623691 -0.0383,-0.301263 -0.1295,-0.84703 -0.20267,-1.212878 -0.0732,-0.36582 -0.20423,-0.922958 -0.29109,-1.23793 -0.0868,-0.314957 -0.23944,-0.816912 -0.33882,-1.115065 -0.0998,-0.298132 -0.29149,-0.823949 -0.42685,-1.168264 -0.13499,-0.344301 -0.33648,-0.837249 -0.4476,-1.095503 -0.11111,-0.258225 -0.27739,-0.611526 -0.36934,-0.784824 -0.0919,-0.173712 -0.26644,-0.464026 -0.38734,-0.645564 -0.12089,-0.181537 -0.33295,-0.471063 -0.47145,-0.643214 -0.13812,-0.17215 -0.43351,-0.490238 -0.65652,-0.706996 -0.2234,-0.216363 -0.57827,-0.521926 -0.78954,-0.678426 -0.21128,-0.1565 -0.5634,-0.398682 -0.78251,-0.537576 -0.2191,-0.138894 -0.63656,-0.373645 -0.92725,-0.521145 -0.29069,-0.1475 -0.70425,-0.338038 -0.91944,-0.422945 -0.21479,-0.08529 -0.55048,-0.201494 -0.74534,-0.25862 -0.19484,-0.05673 -0.53445,-0.1385 -0.75513,-0.18115 -0.22066,-0.04264 -0.64204,-0.09508 -0.93668,-0.1162 -0.295,-0.02152 -0.54462,-0.03639 -0.55558,-0.03365 z m 0.48906,3.144856 c 0.47537,0.0094 0.76878,0.03521 1.02823,0.09116 0.19954,0.04304 0.48124,0.116594 0.626,0.163931 0.14437,0.04695 0.37834,0.135376 0.51919,0.196407 0.14125,0.06104 0.40025,0.191713 0.57632,0.290306 0.17566,0.09899 0.45658,0.281701 0.62365,0.405726 0.16745,0.124025 0.41746,0.330213 0.55557,0.458158 0.13812,0.127551 0.35487,0.361907 0.48164,0.521145 0.12637,0.158851 0.28913,0.405726 0.36112,0.548926 0.072,0.143201 0.23123,0.497283 0.3533,0.786795 0.12246,0.28992 0.31574,0.773495 0.42998,1.074744 0.11385,0.301263 0.27818,0.767654 0.36504,1.036815 0.0872,0.268788 0.21284,0.700339 0.28014,0.958565 0.0669,0.258225 0.16354,0.698383 0.21518,0.978127 0.0512,0.279744 0.11308,0.684689 0.13694,0.899877 0.0239,0.215188 0.0438,0.712063 0.0438,1.104088 3.9e-4,0.431551 -0.0246,0.910081 -0.0634,1.212878 -0.0352,0.275051 -0.13146,0.764136 -0.21362,1.086918 -0.0826,0.322782 -0.23084,0.796223 -0.32983,1.051662 -0.0994,0.255876 -0.30752,0.713611 -0.46324,1.017253 -0.15571,0.304001 -0.45385,0.807553 -0.66278,1.11978 -0.20892,0.311826 -0.41472,0.611133 -0.45776,0.665127 l -0.0783,0.09781 -0.63305,-0.212056 c -0.34821,-0.116595 -0.93471,-0.332958 -1.30288,-0.480458 -0.36855,-0.1475 -1.07474,-0.468326 -1.56972,-0.713259 -0.49493,-0.244532 -1.18627,-0.618176 -1.53608,-0.830212 -0.35017,-0.212056 -0.87637,-0.552839 -1.16946,-0.757099 -0.29344,-0.204625 -0.77272,-0.563401 -1.06574,-0.797349 -0.29305,-0.234357 -0.72613,-0.597833 -0.96285,-0.807905 -0.23671,-0.210101 -0.72149,-0.678821 -1.07749,-1.04153 -0.35604,-0.362688 -0.81185,-0.851745 -1.01296,-1.086918 -0.20071,-0.235145 -0.4695,-0.568095 -0.59705,-0.739858 -0.12755,-0.171757 -0.30948,-0.472633 -0.40455,-0.667864 -0.0947,-0.195626 -0.2101,-0.514101 -0.25588,-0.70777 -0.0704,-0.297351 -0.0806,-0.434289 -0.0654,-0.880315 0.0145,-0.424507 0.0387,-0.597439 0.12324,-0.880315 0.0583,-0.193669 0.19015,-0.528189 0.29344,-0.743377 0.10329,-0.215188 0.31065,-0.576314 0.4605,-0.802064 0.14985,-0.226145 0.40455,-0.56927 0.56653,-0.762939 0.16159,-0.19367 0.46324,-0.513714 0.67021,-0.710937 0.20698,-0.197188 0.51372,-0.463239 0.68157,-0.590789 0.16745,-0.127551 0.43702,-0.316913 0.59822,-0.420595 0.16158,-0.103287 0.52232,-0.299307 0.80206,-0.43507 0.27975,-0.135762 0.69643,-0.307913 0.92606,-0.383032 0.22927,-0.07473 0.608,-0.171756 0.84119,-0.215188 0.23279,-0.04304 0.48515,-0.08647 0.56066,-0.09586 0.0755,-0.009 0.43624,-0.01096 0.80206,-0.0035 z m -25.978781,0.547357 c 0.593139,0.0074 1.039911,0.03365 1.310691,0.07629 0.226144,0.03561 0.622089,0.115419 0.880314,0.177238 0.258226,0.06142 0.680777,0.184669 0.939003,0.273482 0.258225,0.08881 0.733595,0.290701 1.056377,0.448763 0.322782,0.158457 0.798124,0.426858 1.056378,0.597052 0.258225,0.170194 0.636958,0.447982 0.841189,0.617395 0.204626,0.169414 0.528189,0.467939 0.7191,0.662777 0.190932,0.194844 0.48202,0.521926 0.646345,0.726136 0.16472,0.204626 0.397514,0.521539 0.517624,0.704252 0.12012,0.183107 0.30909,0.49337 0.41942,0.689777 0.11073,0.196406 0.29031,0.557138 0.39947,0.802064 0.10916,0.244532 0.31026,0.744151 0.44681,1.109999 0.13654,0.36582 0.33921,0.964405 0.45033,1.330253 0.1115,0.36582 0.29735,1.034845 0.41276,1.486754 0.11582,0.451895 0.2821,1.144409 0.36935,1.539178 0.0876,0.39477 0.34273,1.631925 0.56731,2.749312 0.22497,1.117388 0.43585,2.273197 0.46872,2.568957 0.0333,0.295395 0.0775,1.197256 0.0986,2.004387 0.0211,0.806779 0.0457,1.602159 0.0547,1.767315 l 0.0165,0.300088 -0.28014,0.251962 c -0.15415,0.138113 -0.47341,0.40612 -0.71009,0.595096 -0.23631,0.188976 -0.65573,0.492582 -0.93154,0.675302 -0.27583,0.182326 -0.75119,0.460895 -1.05638,0.618571 -0.30518,0.157675 -0.757099,0.367775 -1.004727,0.46715 -0.24727,0.09977 -0.622089,0.232014 -0.832183,0.294614 -0.2101,0.0626 -0.527013,0.147894 -0.704252,0.189756 -0.177238,0.04148 -0.50667,0.104463 -0.732821,0.139676 -0.22575,0.03521 -0.454632,0.07316 -0.508626,0.08412 -0.0536,0.01096 -0.890096,0.03561 -1.858442,0.05438 -0.968346,0.01878 -1.971877,0.0536 -2.230131,0.07707 -0.258225,0.02387 -0.927251,0.09468 -1.486753,0.158062 -0.559489,0.06299 -1.404563,0.158851 -1.878005,0.213232 -0.473414,0.05399 -0.98242,0.1029 -1.131532,0.108769 l -0.268809,0.01056 -0.304697,-0.450361 c -0.167478,-0.247699 -0.453176,-0.740281 -0.635431,-1.095644 -0.181552,-0.354659 -0.427139,-0.891573 -0.545359,-1.192752 -0.117516,-0.301883 -0.312438,-0.847241 -0.431361,-1.21316 -0.119627,-0.365918 -0.439805,-1.448895 -0.711429,-2.405912 -0.271624,-0.95772 -0.643172,-2.188472 -0.825427,-2.734534 -0.181552,-0.546766 -0.320179,-1.00346 -0.30892,-1.015423 0.01174,-0.01213 0.676864,0.0086 1.478169,0.04577 0.800868,0.03677 1.843594,0.08607 2.316966,0.10955 0.473413,0.02308 1.292324,0.03208 1.819317,0.01956 0.527407,-0.01213 1.302105,-0.05829 1.721504,-0.10212 0.419814,-0.04382 1.044626,-0.115419 1.388941,-0.159237 0.344301,-0.04382 0.960535,-0.131851 1.369378,-0.196407 0.408857,-0.06416 1.139694,-0.196019 1.623692,-0.293438 0.48437,-0.09742 1.290354,-0.281701 1.791169,-0.409639 0.501195,-0.128331 0.96715,-0.262138 1.036041,-0.29735 0.06847,-0.03561 0.226145,-0.161588 0.350564,-0.280526 0.124419,-0.11855 0.312219,-0.349388 0.416682,-0.512933 0.104857,-0.16315 0.24297,-0.402594 0.307526,-0.531707 0.06453,-0.129113 0.207366,-0.458158 0.318086,-0.731273 0.11072,-0.273095 0.2011,-0.508232 0.2011,-0.521926 0,-0.01369 -0.0747,0.0313 -0.16628,0.100163 -0.0915,0.06886 -0.348212,0.246094 -0.570831,0.394382 -0.222619,0.148282 -0.555577,0.351732 -0.739859,0.451895 -0.184282,0.10055 -0.507845,0.259007 -0.719099,0.352126 -0.21167,0.09272 -0.59157,0.240619 -0.84513,0.328257 -0.253138,0.08764 -0.706997,0.220275 -1.008246,0.294613 -0.301263,0.07434 -0.84703,0.178019 -1.212878,0.230057 -0.365819,0.05243 -0.929221,0.1162 -1.252003,0.141632 -0.375601,0.03012 -1.685123,0.0493 -3.638634,0.0536 -2.562694,0.0058 -3.150766,0.01761 -3.669174,0.07316 -0.339607,0.03639 -0.788765,0.09351 -0.99769,0.126762 -0.209319,0.03326 -0.53797,0.09508 -0.730499,0.136938 -0.192888,0.04186 -0.379119,0.0759 -0.413945,0.0759 -0.04656,0 -0.1072,-0.128719 -0.225363,-0.479282 -0.08881,-0.263701 -0.205801,-0.655346 -0.259788,-0.870534 -0.05438,-0.215188 -0.133807,-0.59822 -0.177238,-0.851393 -0.04304,-0.253138 -0.09899,-0.752736 -0.124025,-1.111124 -0.03443,-0.492976 -0.03443,-0.822824 -3.92e-4,-1.359175 0.02504,-0.389295 0.07943,-0.937032 0.121288,-1.216819 0.04186,-0.279744 0.130675,-0.77272 0.197582,-1.095502 0.06691,-0.322783 0.156894,-0.727755 0.199932,-0.899878 0.04304,-0.17215 0.202669,-0.753158 0.354476,-1.291128 0.151807,-0.53797 0.311045,-1.048566 0.354476,-1.134628 0.04304,-0.08608 0.154938,-0.264488 0.248839,-0.396725 0.09351,-0.132245 0.307132,-0.366995 0.474194,-0.521145 0.167457,-0.154544 0.513714,-0.420595 0.769203,-0.59157 0.255488,-0.170588 0.678039,-0.414332 0.939002,-0.541102 0.260963,-0.127156 0.69447,-0.310263 0.96328,-0.407295 0.269182,-0.09664 0.709318,-0.229663 0.978127,-0.295788 0.269182,-0.06573 0.709318,-0.154939 0.978127,-0.197582 0.269182,-0.04304 0.568489,-0.08529 0.665127,-0.09468 0.09703,-0.009 0.581008,-0.01134 1.07594,-0.0051 z m 18.048211,8.841146 c 0.51097,0.516451 1.43939,1.458958 2.06343,2.094741 0.62404,0.635783 1.35488,1.355304 1.62369,1.599414 0.26918,0.244138 0.71206,0.62287 0.98474,0.841612 0.27309,0.2191 0.68743,0.53132 0.92099,0.694076 0.23396,0.162369 0.63578,0.427245 0.89319,0.588052 0.25744,0.161194 0.71445,0.434288 1.0157,0.606833 0.30127,0.172931 1.10254,0.617782 1.7802,0.988683 0.67764,0.370907 1.48478,0.816138 1.79349,0.989456 0.3087,0.172932 0.56966,0.337257 0.58022,0.364645 0.0106,0.02739 -0.36973,2.282555 -0.8447,5.011531 -0.47537,2.728975 -0.86385,4.97712 -0.86385,4.995486 0,0.01839 -0.0485,0.02191 -0.1076,0.0082 -0.0591,-0.01409 -0.30126,-0.08843 -0.53797,-0.164719 -0.2367,-0.07669 -0.59744,-0.210495 -0.80206,-0.296957 -0.20423,-0.08647 -0.53875,-0.2414 -0.74338,-0.344301 -0.20423,-0.1029 -0.55909,-0.301263 -0.78834,-0.440551 -0.22928,-0.139675 -0.59901,-0.382645 -0.82163,-0.54032 -0.22262,-0.158063 -0.66004,-0.492196 -0.97228,-0.743377 -0.31183,-0.251182 -0.94604,-0.789187 -1.40851,-1.195638 -0.46246,-0.406507 -1.06109,-0.923732 -1.33025,-1.149898 -0.26879,-0.22575 -0.69173,-0.561839 -0.939,-0.746473 -0.24727,-0.184669 -0.55127,-0.402594 -0.67569,-0.48437 -0.12403,-0.08177 -0.23397,-0.140069 -0.24415,-0.129507 -0.0101,0.01018 0.1029,0.263701 0.25197,0.563402 0.14906,0.299701 0.39203,0.729303 0.53993,0.955468 0.14828,0.225751 0.39007,0.56027 0.53797,0.743377 0.1475,0.182713 0.40025,0.47772 0.56144,0.655345 0.1612,0.177626 0.51489,0.523496 0.7856,0.769203 0.27113,0.245313 0.65104,0.573963 0.84471,0.730077 0.19367,0.155719 0.5548,0.435851 0.80206,0.622089 0.24727,0.185844 0.91121,0.667477 1.47501,1.070099 0.56379,0.402208 1.2152,0.887 1.44763,1.077137 0.2324,0.189756 0.5943,0.525838 0.80438,0.746895 0.20971,0.221057 0.47889,0.548145 0.59783,0.726911 0.11894,0.1788 0.26175,0.436638 0.3173,0.572788 0.0556,0.136544 0.18585,0.529751 0.28953,0.874052 0.10408,0.344301 0.32122,1.092758 0.4832,1.662817 0.16158,0.570051 0.45111,1.626435 0.6436,2.347505 0.19211,0.72107 0.608,2.331884 0.92451,3.579947 0.31613,1.248062 0.76604,3.016925 0.99924,3.930524 0.23319,0.913599 0.4159,1.674568 0.40572,1.690964 -0.0102,0.01643 -0.34782,0.248444 -0.75041,0.51567 -0.4026,0.267226 -0.95195,0.613089 -1.22111,0.76878 -0.26879,0.155719 -0.73557,0.411989 -1.03682,0.569664 -0.30126,0.157676 -0.79657,0.400638 -1.10057,0.539926 -0.304,0.139676 -0.806,0.354477 -1.11506,0.477327 -0.30909,0.12285 -0.92296,0.342344 -1.36431,0.487501 -0.44094,0.145157 -1.08375,0.335695 -1.42807,0.423726 -0.3443,0.08764 -0.83295,0.203845 -1.08572,0.25862 -0.25275,0.05477 -0.77589,0.151413 -1.162,0.214794 -0.38578,0.06377 -1.02429,0.151026 -1.41786,0.194063 -0.394,0.04304 -1.02936,0.09899 -1.41203,0.124025 -0.4468,0.02895 -1.28761,0.03795 -2.3475,0.02465 -1.0302,-0.0133 -1.91671,-0.0446 -2.35609,-0.08412 -0.38734,-0.03482 -1.08256,-0.107594 -1.54544,-0.161975 -0.46246,-0.05477 -1.28994,-0.170195 -1.83888,-0.256664 -0.54854,-0.08686 -1.43785,-0.244926 -1.97582,-0.351732 -0.537971,-0.106418 -1.365438,-0.282875 -1.83888,-0.391645 -0.473414,-0.108769 -1.265725,-0.301263 -1.760629,-0.427638 -0.494933,-0.126376 -1.242996,-0.324739 -1.662817,-0.440552 -0.419419,-0.115813 -0.769624,-0.205012 -0.777787,-0.198363 -0.0082,0.0067 0.07003,0.148282 0.173713,0.314563 0.103681,0.166282 0.294613,0.444464 0.424507,0.617783 0.129894,0.173325 0.429982,0.515276 0.667477,0.759843 0.237488,0.244138 0.590008,0.56262 0.783698,0.70777 0.193669,0.144763 0.492976,0.348608 0.665127,0.452676 0.17215,0.103682 0.480457,0.267226 0.684689,0.363469 0.204625,0.09586 0.60057,0.24962 0.880314,0.341564 0.279745,0.09194 0.719522,0.214013 0.976932,0.271525 0.257444,0.05751 0.697606,0.1385 0.978126,0.179582 0.28053,0.04147 0.89713,0.109944 1.37058,0.152194 0.47341,0.04226 1.38035,0.122068 2.01494,0.176844 0.635,0.05478 1.39204,0.118156 1.68238,0.140456 0.2907,0.0223 1.23244,0.05086 2.09319,0.06338 1.00353,0.01448 1.86668,0.0058 2.40619,-0.02347 0.46246,-0.02543 1.17573,-0.08138 1.58457,-0.124419 0.40886,-0.04264 0.97229,-0.112682 1.252,-0.155325 0.27975,-0.04264 0.78173,-0.13107 1.11507,-0.196801 0.33374,-0.06573 0.85294,-0.181932 1.15419,-0.25862 0.30126,-0.07629 0.8236,-0.233575 1.1608,-0.349388 0.33726,-0.115419 0.8635,-0.316914 1.16982,-0.447589 0.30635,-0.130288 0.91986,-0.418638 1.36276,-0.640476 0.44329,-0.221838 1.06144,-0.543445 1.37332,-0.715229 0.31222,-0.17137 1.1221,-0.628739 1.79975,-1.016479 0.67765,-0.387338 1.56698,-0.889322 1.97582,-1.115487 0.40886,-0.226532 0.88813,-0.483976 1.06461,-0.573183 l 0.32161,-0.161588 0.44641,0.753158 c 0.24571,0.413945 1.60181,2.704347 3.01418,5.089359 1.41202,2.385083 2.56741,4.353089 2.56741,4.373004 0,0.01996 -2.12408,2.839659 -4.72041,6.266279 -2.59633,3.42654 -4.72316,6.23341 -4.72591,6.23813 -0.003,0.005 -1.38345,-1.17256 -3.06738,-2.6159 -1.68392,-1.44333 -3.05647,-2.63862 -3.05021,-2.65579 0.006,-0.0176 2.07166,-2.63348 4.58939,-5.81317 2.51773,-3.179686 4.66919,-5.898458 4.7815,-6.042081 l 0.20383,-0.260963 -0.46715,-0.347819 c -0.25705,-0.191319 -0.48163,-0.35252 -0.49924,-0.358389 -0.018,-0.0058 -0.23397,0.213626 -0.48045,0.487888 -0.2461,0.274657 -0.59627,0.657696 -0.77779,0.851745 -0.18155,0.194064 -0.96603,1.01296 -1.74339,1.820091 -0.77744,0.80678 -1.6225,1.687094 -1.87801,1.956255 -0.25548,0.268788 -0.71009,0.761391 -1.01021,1.093953 -0.2997,0.33295 -0.76955,0.87363 -1.04343,1.2019 -0.27388,0.32787 -0.68078,0.83922 -0.90459,1.13582 -0.2234,0.29657 -0.61818,0.85646 -0.8768,1.24377 -0.25901,0.38734 -0.60722,0.94485 -0.77427,1.23906 -0.16706,0.29422 -0.4335,0.80481 -0.59235,1.13463 -0.15846,0.32982 -0.37599,0.81965 -0.4828,1.08888 -0.10721,0.26879 -0.26527,0.70152 -0.35213,0.96167 -0.0865,0.25978 -0.25705,0.86546 -0.37873,1.34552 -0.12168,0.48006 -0.26487,0.9891 -0.31848,1.13111 -0.0532,0.14202 -0.17567,0.40612 -0.27192,0.58687 -0.0962,0.18076 -0.26292,0.43703 -0.37012,0.56966 -0.10759,0.13225 -0.27544,0.30753 -0.37286,0.38891 -0.0974,0.0814 -0.30205,0.22497 -0.45425,0.31887 -0.15259,0.0939 -0.4292,0.22614 -0.61465,0.29304 -0.18584,0.0673 -0.4785,0.15572 -0.65065,0.19641 -0.17215,0.0403 -0.64596,0.13655 -1.05244,0.21323 -0.4069,0.0763 -1.10211,0.19993 -1.54544,0.27427 -0.44329,0.0739 -1.15067,0.18702 -1.57246,0.25118 -0.42138,0.0642 -1.36312,0.19602 -2.09319,0.29344 -0.72966,0.097 -1.88744,0.24766 -2.57248,0.33452 -0.68508,0.0872 -1.583017,0.19249 -1.995379,0.23436 -0.412376,0.0419 -1.313013,0.11229 -2.001643,0.15689 -0.688601,0.0442 -1.683153,0.1162 -2.210568,0.15963 -0.527013,0.0434 -1.240251,0.10408 -1.584566,0.13498 -0.344301,0.0309 -0.928025,0.0567 -1.297391,0.0575 -0.432332,7e-4 -0.778209,-0.0191 -0.971442,-0.0564 -0.16472,-0.0313 -0.430376,-0.12011 -0.590395,-0.19719 -0.207363,-0.0994 -0.368557,-0.21754 -0.561445,-0.41042 -0.14907,-0.14907 -0.402989,-0.4695 -0.564183,-0.71249 -0.161588,-0.24296 -0.499239,-0.81142 -0.750836,-1.26333 -0.251182,-0.4519 -0.541101,-0.98911 -0.643608,-1.19332 -0.1029,-0.20462 -0.240619,-0.52427 -0.306738,-0.71086 -0.06573,-0.18624 -0.148675,-0.47694 -0.184669,-0.64557 -0.03756,-0.17606 -0.06573,-0.48906 -0.06651,-0.73676 -7.74e-4,-0.23671 0.02034,-0.54501 0.04656,-0.68469 0.02661,-0.14007 0.101725,-0.42137 0.167062,-0.62561 0.07356,-0.22927 0.319651,-0.76061 0.644002,-1.38894 0.288745,-0.55988 0.848649,-1.66908 1.24377,-2.4653 0.395164,-0.79622 0.854912,-1.75591 1.020771,-2.13232 0.166282,-0.37677 0.412376,-0.95779 0.547358,-1.29113 0.134587,-0.33373 0.328256,-0.835341 0.429594,-1.115058 0.101726,-0.279744 0.271139,-0.781728 0.377164,-1.115065 0.105637,-0.333739 0.254313,-0.844286 0.330213,-1.134628 0.07551,-0.290701 0.197187,-0.827467 0.269963,-1.193315 0.07277,-0.36582 0.176063,-0.982068 0.230057,-1.369379 0.05399,-0.387338 0.124806,-0.977353 0.157675,-1.31069 0.03286,-0.333739 0.07747,-0.870534 0.09899,-1.193316 0.02191,-0.322782 0.05986,-1.167912 0.08451,-1.878004 0.02504,-0.710093 0.03482,-1.678439 0.02191,-2.151881 -0.01291,-0.473413 -0.05086,-1.151446 -0.0849,-1.506316 -0.03365,-0.354863 -0.09664,-0.927251 -0.140069,-1.271566 -0.04343,-0.3443 -0.173326,-1.303653 -0.288745,-2.132317 -0.115419,-0.828664 -0.239444,-1.741067 -0.275438,-2.02782 -0.03599,-0.286789 -0.05713,-0.529364 -0.04734,-0.539145 0.0098,-0.0098 0.508626,0.13185 1.10838,0.314957 0.600176,0.182712 1.245741,0.393207 1.434751,0.467544 0.188976,0.07394 0.567708,0.257832 0.84119,0.407683 0.273876,0.150237 0.710514,0.379513 0.970668,0.50902 0.260182,0.129894 0.665127,0.318475 0.899877,0.41942 0.234751,0.10055 0.70383,0.286394 1.042304,0.413163 0.338432,0.126376 0.884256,0.310264 1.212878,0.408464 0.328658,0.09781 0.800098,0.229275 1.047378,0.291482 0.24766,0.06221 0.75632,0.176062 1.13111,0.253137 0.37442,0.07708 1.04343,0.191713 1.48675,0.255095 0.44289,0.06338 1.09628,0.141631 1.45115,0.173712 0.35525,0.03208 0.98009,0.07825 1.38894,0.102507 0.40885,0.02426 1.38619,0.04382 2.17144,0.04343 0.7856,0 1.63073,-0.01996 1.878,-0.04343 0.24727,-0.02387 0.63501,-0.07003 0.86076,-0.102901 0.22614,-0.03326 0.61348,-0.104856 0.86075,-0.159237 0.24727,-0.05438 0.71403,-0.186239 1.03681,-0.292658 0.33883,-0.1119 0.8514,-0.323563 1.21288,-0.500801 0.3443,-0.169019 0.81107,-0.431157 1.03682,-0.582183 0.22614,-0.151412 0.57827,-0.41512 0.7825,-0.586095 0.20462,-0.170975 0.53014,-0.476151 0.72381,-0.677645 0.19367,-0.201889 0.4292,-0.460114 0.5235,-0.574358 l 0.17137,-0.206969 -0.23006,0.105244 c -0.12637,0.05791 -0.47654,0.2101 -0.77779,0.338038 -0.30126,0.127937 -0.8314,0.327088 -1.17804,0.442113 -0.34665,0.115025 -0.91902,0.280139 -1.27157,0.366601 -0.3529,0.08686 -0.89636,0.2011 -1.20858,0.253919 -0.31183,0.05282 -0.849,0.126763 -1.19332,0.164325 -0.45033,0.04891 -0.96637,0.06886 -1.83888,0.07043 -0.69447,0.0015 -1.45544,-0.01917 -1.78019,-0.04813 -0.31183,-0.02778 -0.83999,-0.0849 -1.17375,-0.127156 -0.33335,-0.04186 -0.92064,-0.129507 -1.30485,-0.194064 -0.38421,-0.06495 -1.02661,-0.186625 -1.42807,-0.270357 -0.40142,-0.08412 -1.03759,-0.22575 -1.41434,-0.315351 -0.37638,-0.08921 -0.84316,-0.203844 -1.03682,-0.254313 -0.19367,-0.05047 -0.59861,-0.1565 -0.89987,-0.235145 -0.30127,-0.07903 -1.295852,-0.342738 -2.210577,-0.586876 C 97.720304,80.57869 96.603691,80.289165 96.1534,80.17922 95.703068,80.068889 95.017224,79.909257 94.628718,79.824357 94.143567,79.717938 93.833338,79.62717 93.636094,79.533656 93.478032,79.458538 93.213543,79.30438 93.048437,79.190918 92.882936,79.077061 92.55311,78.790667 92.315263,78.55396 92.076994,78.317253 91.731905,77.920914 91.547609,77.673645 91.363721,77.426376 91.12819,77.082856 91.024508,76.910706 90.920827,76.738555 90.70642,76.33361 90.548357,76.010828 c -0.158456,-0.322782 -0.409251,-0.895162 -0.557532,-1.271565 -0.148282,-0.376776 -0.439377,-1.169038 -0.64674,-1.76063 -0.207363,-0.591964 -0.498063,-1.410051 -0.645958,-1.818894 -0.148281,-0.408463 -0.265269,-0.746896 -0.260576,-0.75161 0.0051,-0.0051 1.090788,-0.123244 2.413231,-0.262919 1.322442,-0.139289 2.888572,-0.298913 3.480163,-0.354083 0.591964,-0.05517 1.287187,-0.127156 1.545441,-0.160018 0.258226,-0.03326 0.716003,-0.104076 1.017253,-0.158063 0.301263,-0.05399 0.794253,-0.159238 1.095502,-0.233575 0.301264,-0.07473 0.794254,-0.216364 1.095503,-0.315352 0.301263,-0.09859 0.741406,-0.258225 0.978126,-0.354476 0.23671,-0.09625 0.69447,-0.309482 1.01725,-0.474589 0.32279,-0.164719 0.82473,-0.458157 1.11549,-0.652213 0.29109,-0.19367 0.69603,-0.486714 0.89988,-0.651039 0.20423,-0.164326 0.57983,-0.507064 0.83493,-0.761392 0.25509,-0.254313 0.6127,-0.647914 0.79502,-0.874825 0.18193,-0.226926 0.45034,-0.588833 0.59627,-0.804035 0.14593,-0.215188 0.36699,-0.564183 0.49063,-0.775465 0.12364,-0.211276 0.34508,-0.633827 0.49219,-0.939003 0.14672,-0.305175 0.33648,-0.730851 0.42177,-0.946039 0.0849,-0.215188 0.23554,-0.637739 0.33452,-0.939002 0.099,-0.301263 0.23984,-0.768006 0.313,-1.036815 0.0732,-0.269182 0.23358,-0.973413 0.35604,-1.565004 0.12246,-0.591964 0.49454,-2.294659 0.82634,-3.784157 0.33179,-1.48985 0.60331,-2.72229 0.60371,-2.738756 0,-0.01683 0.41824,0.392032 0.92922,0.908462 z m -34.264015,29.182677 0.215188,0.0047 0.03521,0.352126 c 0.01917,0.193669 0.03639,1.214848 0.03795,2.269256 0.0023,1.539178 -0.01018,2.059908 -0.06534,2.640944 -0.03717,0.398294 -0.103288,1.014508 -0.146325,1.369378 -0.04304,0.354863 -0.123244,0.936258 -0.178019,1.291128 -0.05478,0.354863 -0.160019,0.957791 -0.233576,1.339261 -0.07316,0.381469 -0.196406,0.976931 -0.273482,1.32399 -0.07669,0.346651 -0.227319,0.976579 -0.334913,1.399496 -0.1072,0.422945 -0.27427,1.050889 -0.371295,1.395204 -0.09664,0.344301 -0.291481,1.004375 -0.432332,1.467191 -0.141244,0.462457 -0.310263,0.973061 -0.375601,1.134628 -0.06534,0.161194 -0.199932,0.432726 -0.298913,0.602526 -0.09937,0.170195 -0.309482,0.447202 -0.46715,0.61544 -0.158063,0.168632 -0.405726,0.384988 -0.550883,0.481632 -0.145157,0.09625 -0.396339,0.228488 -0.558314,0.293044 -0.161975,0.06495 -0.396339,0.144763 -0.520758,0.177239 -0.124419,0.03208 -0.377951,0.07903 -0.563401,0.103681 -0.217144,0.02934 -0.594308,0.03638 -1.06067,0.02073 -0.397901,-0.01369 -0.820431,-0.04147 -0.939003,-0.0622 -0.193275,-0.03326 -0.236312,-0.06025 -0.422157,-0.264095 C 68.207205,99.54899 67.969717,99.26572 67.792873,99.043882 67.616416,98.82241 67.321809,98.431159 67.138308,98.174475 66.956053,97.917628 66.671059,97.483452 66.507803,97.20831 66.343844,96.933871 66.108108,96.506029 65.984259,96.25833 65.860234,96.010667 65.663433,95.57051 65.546452,95.280203 65.429471,94.989502 65.264357,94.514167 65.17907,94.223825 65.09378,93.933124 64.981882,93.466726 64.930231,93.18701 c -0.05164,-0.279744 -0.115024,-0.735918 -0.141244,-1.013734 -0.02934,-0.314563 -0.03834,-0.786443 -0.02426,-1.252003 0.01291,-0.410814 0.05126,-0.931965 0.08607,-1.157709 0.03443,-0.226144 0.107594,-0.613483 0.162369,-0.860752 0.05477,-0.247269 0.161194,-0.652608 0.235926,-0.899877 0.07473,-0.247269 0.198363,-0.617396 0.27427,-0.821627 0.0759,-0.204626 0.197976,-0.501582 0.270744,-0.660433 0.07278,-0.158851 0.228488,-0.433508 0.346257,-0.610352 0.117375,-0.176457 0.374039,-0.49102 0.570445,-0.698383 0.196407,-0.207363 0.518408,-0.50667 0.716004,-0.66552 0.197581,-0.158851 0.563401,-0.423332 0.813394,-0.588052 0.2504,-0.164325 0.690163,-0.420989 0.978127,-0.570051 0.287569,-0.149457 0.73437,-0.361907 0.992623,-0.472633 0.258226,-0.111112 0.751188,-0.295788 1.095503,-0.410813 0.344301,-0.115025 0.810298,-0.255489 1.035267,-0.31222 0.225363,-0.05673 0.615045,-0.145157 0.866593,-0.196406 0.251576,-0.05126 0.665908,-0.122069 0.920988,-0.157676 0.255094,-0.03561 0.692514,-0.07825 0.972286,-0.09468 0.279745,-0.01643 0.605264,-0.02817 0.723815,-0.02543 z m 2.343565,0.178801 c 0.04186,0.0223 0.65652,0.2324 1.366282,0.466763 0.709318,0.234357 1.458958,0.506276 1.665561,0.604089 0.206582,0.09781 0.521145,0.27427 0.698777,0.392032 0.206582,0.137332 0.57592,0.462852 1.027034,0.906562 0.387338,0.380689 0.943717,0.902622 1.235959,1.159257 0.292657,0.257051 0.724236,0.616615 0.958565,0.799743 0.23475,0.182712 0.673345,0.496888 0.974609,0.697989 0.301263,0.201494 0.758998,0.485545 1.017252,0.631476 0.258226,0.146325 0.654564,0.35252 0.880315,0.458545 0.226144,0.106031 0.578657,0.259787 0.783698,0.341563 0.205013,0.08177 0.566139,0.212838 0.802064,0.291088 0.235926,0.07864 0.631871,0.193669 0.879119,0.256269 0.247663,0.0626 0.626001,0.147895 0.841189,0.189757 0.215188,0.04226 0.558708,0.09821 0.76294,0.1252 0.204625,0.02661 0.376382,0.05204 0.381863,0.05634 0.0058,0.0043 -0.02465,0.276226 -0.06729,0.604088 -0.04264,0.328257 -0.130288,0.898681 -0.195232,1.268047 -0.06456,0.369339 -0.162369,0.87363 -0.217144,1.121329 -0.05477,0.247269 -0.185844,0.784472 -0.291088,1.193315 -0.105638,0.408857 -0.280138,1.033719 -0.388514,1.388941 -0.107988,0.354863 -0.313394,0.988683 -0.456588,1.408503 -0.142807,0.41942 -0.418639,1.185505 -0.612702,1.701942 -0.194063,0.516451 -0.758647,1.951188 -1.254325,3.188694 -0.496108,1.23715 -1.074744,2.70744 -1.286062,3.26694 -0.211275,0.55949 -0.542663,1.50125 -0.73634,2.0932 -0.193669,0.59157 -0.383426,1.1855 -0.42177,1.31927 l -0.06925,0.24297 -1.07594,-0.66826 c -0.59157,-0.36777 -2.475436,-1.53995 -4.186385,-2.60533 -1.710527,-1.06539 -3.730958,-2.324 -4.489605,-2.79702 -0.758647,-0.47302 -1.379582,-0.88032 -1.379582,-0.90495 -3.91e-4,-0.0246 0.616615,-4.34056 1.371349,-9.591274 0.754706,-5.250574 1.379582,-9.569464 1.388941,-9.596908 0.01252,-0.03756 0.03639,-0.0403 0.09234,-0.01018 z m 54.58936,20.601892 c 0.10642,0.14047 0.33021,0.46481 0.49806,0.7215 0.16785,0.25627 0.42959,0.70931 0.58179,1.00627 0.1522,0.29735 0.33335,0.68156 0.4022,0.85372 0.0689,0.17215 0.18546,0.48906 0.25902,0.70425 0.0736,0.21519 0.18545,0.59352 0.24805,0.84119 0.063,0.24727 0.14985,0.65221 0.19289,0.89987 0.0431,0.24727 0.10015,0.64361 0.12676,0.88032 0.0263,0.23671 0.0474,0.86153 0.0469,1.38894 -7e-4,0.52701 -0.0227,1.16981 -0.0489,1.42807 -0.0263,0.25822 -0.0916,0.77469 -0.14476,1.14792 -0.0532,0.37326 -0.16511,1.0098 -0.24923,1.41519 -0.0841,0.40495 -0.22301,0.94682 -0.30909,1.20387 -0.0857,0.25705 -0.22966,0.61505 -0.32004,0.79545 -0.09,0.18076 -0.26253,0.47772 -0.38343,0.66082 -0.12051,0.18272 -0.36973,0.48946 -0.55323,0.68117 -0.1835,0.19132 -0.47302,0.45229 -0.64322,0.57906 -0.17058,0.12715 -0.46988,0.3083 -0.66512,0.40259 -0.19563,0.0943 -0.46598,0.20776 -0.60096,0.25275 -0.13538,0.0446 -0.37286,0.10994 -0.52819,0.14515 -0.19289,0.0434 -0.48202,0.0649 -0.90888,0.0669 -0.44799,0.002 -0.72072,-0.0156 -0.95857,-0.0642 -0.1831,-0.0368 -0.47341,-0.11267 -0.64556,-0.16784 -0.17215,-0.0555 -0.52428,-0.20306 -0.7825,-0.32826 -0.25823,-0.1252 -0.65104,-0.35408 -0.87328,-0.50941 -0.22184,-0.15493 -0.58962,-0.46089 -0.81734,-0.6796 -0.22731,-0.21871 -0.53953,-0.54775 -0.69407,-0.73043 -0.15415,-0.18311 -0.52388,-0.64948 -0.82086,-1.03682 -0.29735,-0.38733 -0.55518,-0.72304 -0.57318,-0.74569 -0.0199,-0.0246 0.0227,-0.11894 0.10525,-0.23476 0.0759,-0.10641 0.32748,-0.49258 0.5591,-0.85843 0.23201,-0.36581 0.61504,-0.99107 0.85216,-1.38894 0.23671,-0.39829 0.68312,-1.15538 0.99143,-1.68238 0.30831,-0.5274 0.76252,-1.28451 1.00902,-1.68237 0.24649,-0.3983 0.6084,-0.96131 0.80439,-1.25123 0.19562,-0.28992 0.56106,-0.80052 0.81149,-1.13463 0.2504,-0.33413 0.63735,-0.81853 0.85921,-1.07672 0.22183,-0.25822 0.65965,-0.72501 0.97306,-1.03723 0.31339,-0.31261 0.7281,-0.70151 0.92176,-0.8647 0.19367,-0.16315 0.51684,-0.42293 0.71832,-0.5767 l 0.3666,-0.27974 z M 113.10022,113.583 c 0.005,0.0145 0.16863,0.70425 0.36425,1.53291 0.19524,0.82824 0.63462,2.69457 0.97658,4.14726 0.34157,1.45235 0.75668,3.23057 0.92254,3.95164 0.20775,0.90184 0.30752,1.41906 0.32043,1.65852 0.0113,0.20502 -7e-4,0.43742 -0.0293,0.56731 -0.0263,0.12051 -0.11033,0.33922 -0.18663,0.48555 -0.0943,0.18037 -0.22184,0.34195 -0.39712,0.50276 -0.16941,0.15532 -0.37912,0.29539 -0.61035,0.40729 -0.22419,0.10876 -0.63696,0.2504 -1.13463,0.3889 -0.43037,0.12012 -1.17846,0.32239 -1.66281,0.44955 -0.48398,0.12755 -1.25004,0.31926 -1.70194,0.42646 -0.4519,0.10681 -1.12091,0.25666 -1.48676,0.33296 -0.36582,0.0767 -1.00824,0.19993 -1.42806,0.27387 -0.41942,0.0743 -1.12365,0.17998 -1.56501,0.23515 -0.44094,0.0548 -1.03097,0.12207 -1.31069,0.14906 -0.31847,0.0313 -1.10845,0.0501 -2.11275,0.0501 -1.0466,0 -1.77393,-0.0176 -2.093197,-0.0512 -0.268788,-0.0282 -0.742954,-0.0865 -1.052859,-0.1295 -0.310263,-0.0431 -0.814168,-0.12834 -1.120131,-0.18976 -0.30557,-0.0619 -0.741407,-0.17411 -0.967924,-0.25001 -0.226926,-0.0759 -0.541489,-0.20267 -0.699559,-0.28171 -0.158062,-0.079 -0.403769,-0.22066 -0.546576,-0.31495 -0.142412,-0.0943 -0.415507,-0.3353 -0.606439,-0.53562 -0.208925,-0.2195 -0.414726,-0.48437 -0.517232,-0.66473 -0.0939,-0.16512 -0.229663,-0.43704 -0.302044,-0.60449 -0.07199,-0.16707 -0.254314,-0.76174 -0.404551,-1.32124 -0.150632,-0.5591 -0.396339,-1.43081 -0.546576,-1.93627 -0.150238,-0.50589 -0.554401,-1.80834 -0.898329,-2.89526 -0.34352,-1.08692 -0.698383,-2.21057 -0.787991,-2.49774 -0.08959,-0.28719 -0.157282,-0.52702 -0.150238,-0.53328 0.0067,-0.006 0.408858,-0.0313 0.892841,-0.0567 0.48437,-0.025 2.464881,-0.0619 4.401573,-0.0818 1.936692,-0.0203 3.935172,-0.0552 4.440702,-0.0782 0.50589,-0.0227 1.14835,-0.0587 1.42806,-0.0798 0.27975,-0.0211 0.69369,-0.0564 0.91944,-0.0778 0.22615,-0.0215 0.68391,-0.0747 1.01725,-0.11777 0.33374,-0.0431 0.90734,-0.13029 1.27509,-0.19406 0.36777,-0.0638 0.90459,-0.16941 1.19331,-0.23476 0.28875,-0.0657 0.71833,-0.17215 0.95505,-0.23709 0.23671,-0.0649 0.70347,-0.20698 1.03682,-0.31613 0.33373,-0.10916 0.85294,-0.2954 1.15419,-0.41355 0.30126,-0.11855 0.89987,-0.38695 1.33025,-0.59666 0.43038,-0.20971 0.98516,-0.49689 1.23244,-0.63852 0.24727,-0.14124 0.45385,-0.24532 0.45894,-0.23045 z m 3.48291,14.56565 0.088,-0.004 v 0.19015 c 0,0.10485 0.061,0.97186 0.13577,1.92691 0.0747,0.95547 0.16237,2.16792 0.19445,2.69534 0.0317,0.52701 0.0692,1.41631 0.0825,1.97582 0.0141,0.57396 0.007,1.28993 -0.0153,1.64325 -0.0281,0.43742 -0.0657,0.70854 -0.1252,0.89988 -0.0466,0.15063 -0.1522,0.41472 -0.23475,0.58687 -0.0825,0.17215 -0.23945,0.44799 -0.3486,0.61349 -0.10916,0.1651 -0.33022,0.44054 -0.49181,0.6123 -0.16158,0.17137 -0.41198,0.39282 -0.55714,0.49181 -0.14515,0.099 -0.5454,0.30126 -0.88968,0.44915 -0.3443,0.1479 -0.89009,0.37091 -1.21287,0.49494 -0.32279,0.12402 -0.97419,0.35642 -1.44763,0.51605 -0.47342,0.15963 -1.3185,0.42842 -1.87801,0.59705 -0.55949,0.16863 -1.55445,0.45737 -2.21056,0.64126 -0.65652,0.18389 -1.42223,0.38852 -1.70195,0.45503 -0.27974,0.0665 -0.75512,0.17371 -1.05637,0.23788 -0.30127,0.0642 -1.31344,0.2594 -2.2497,0.43389 l -1.70194,0.31731 -0.4695,-0.008 c -0.25823,-0.004 -0.592745,-0.0246 -0.743376,-0.0454 -0.150632,-0.0203 -0.411595,-0.0829 -0.579446,-0.1385 -0.168238,-0.0556 -0.414726,-0.1741 -0.547357,-0.26331 -0.132631,-0.0892 -0.324738,-0.26683 -0.426858,-0.39399 -0.102119,-0.12755 -0.240225,-0.36269 -0.306738,-0.52232 -0.09155,-0.22067 -0.217925,-0.78405 -0.527013,-2.35025 -0.223407,-1.13308 -0.75161,-3.81237 -1.173331,-5.95328 -0.42177,-2.14132 -0.777013,-3.93404 -0.789539,-3.98414 l -0.0223,-0.0916 0.48437,0.0243 c 0.266445,0.0137 1.611166,0.0884 2.988355,0.16667 2.205853,0.1252 2.725453,0.14241 4.362453,0.14398 1.49533,0.001 1.99615,-0.0118 2.56269,-0.0673 0.38734,-0.0379 1.00353,-0.11228 1.36938,-0.16471 0.36582,-0.0528 0.95582,-0.14985 1.31069,-0.21558 0.35526,-0.0661 0.9625,-0.19054 1.34981,-0.27661 0.38734,-0.0861 1.9457,-0.46207 3.46258,-0.83535 1.51729,-0.37326 2.86394,-0.70503 2.99307,-0.73712 0.12911,-0.0321 0.27427,-0.0602 0.32278,-0.0622 z m 0.0196,13.57556 c 0.0161,-0.001 0.0336,0.35331 0.0391,0.78912 0.006,0.43585 0.004,1.02119 -0.002,1.30091 -0.006,0.27974 -0.0387,0.64048 -0.0716,0.80206 -0.0329,0.1612 -0.13928,0.53993 -0.23671,0.84119 -0.0978,0.30127 -0.27426,0.79426 -0.39281,1.09551 -0.11855,0.30126 -0.35135,0.82943 -0.51763,1.17375 -0.16628,0.3443 -0.43937,0.86385 -0.60683,1.15419 -0.16784,0.29031 -0.45424,0.7571 -0.63695,1.03682 -0.18272,0.27974 -0.53054,0.77272 -0.77314,1.0955 -0.24297,0.32278 -0.58806,0.76174 -0.76724,0.97538 -0.1788,0.21362 -0.51019,0.59196 -0.73591,0.84119 -0.22537,0.24883 -0.70545,0.74612 -1.06659,1.10486 -0.36112,0.35878 -0.91669,0.88461 -1.23441,1.16827 -0.31769,0.28365 -0.76251,0.65495 -0.98868,0.82556 -0.22575,0.1702 -0.56262,0.38812 -0.74809,0.48398 -0.18506,0.0959 -0.43977,0.2011 -0.56575,0.23397 -0.12559,0.0325 -0.36191,0.0595 -0.52506,0.0595 -0.16315,0 -0.40143,-0.0266 -0.52975,-0.0587 -0.12833,-0.0325 -0.40925,-0.14554 -0.62444,-0.25157 -0.21519,-0.10603 -0.60566,-0.33961 -0.86737,-0.51841 -0.26175,-0.17919 -0.68586,-0.48789 -0.94252,-0.68665 -0.25665,-0.19836 -0.66629,-0.55048 -0.91001,-0.7825 -0.24414,-0.23162 -0.60331,-0.608 -0.79854,-0.83647 -0.19524,-0.2281 -0.45464,-0.55401 -0.57632,-0.72382 -0.12207,-0.1698 -0.33256,-0.48475 -0.46793,-0.69994 -0.13538,-0.21519 -0.38186,-0.65535 -0.54775,-0.97813 -0.1659,-0.32278 -0.39399,-0.80713 -0.50667,-1.07594 -0.112683,-0.26918 -0.298527,-0.75787 -0.413552,-1.08649 -0.114638,-0.32866 -0.289132,-0.87448 -0.387339,-1.21288 -0.09781,-0.33843 -0.274656,-1.01177 -0.392813,-1.49576 -0.117769,-0.48437 -0.222619,-0.91902 -0.232794,-0.96603 -0.01643,-0.0759 0.09899,-0.1565 1.005923,-0.70112 0.563405,-0.33844 1.044625,-0.61505 1.069325,-0.61505 0.0246,0 0.24492,0.0841 0.48906,0.18741 0.24454,0.10329 0.70308,0.27192 1.0188,0.37521 0.31614,0.10329 0.81931,0.2414 1.11781,0.30713 0.29853,0.0653 0.73402,0.14672 0.96715,0.18037 0.23359,0.0333 0.68235,0.0747 0.99769,0.0919 0.31536,0.0172 0.89052,0.0176 1.27783,10e-4 0.38734,-0.0164 0.95976,-0.0673 1.27157,-0.11307 0.31222,-0.0454 0.77194,-0.12598 1.02154,-0.1788 0.25001,-0.0524 0.7101,-0.16589 1.02274,-0.25157 0.31261,-0.0857 0.83022,-0.24571 1.1499,-0.35565 0.31966,-0.11033 0.89833,-0.32826 1.28564,-0.48515 0.38734,-0.1565 0.95076,-0.39555 1.252,-0.53093 0.30127,-0.13576 1.11113,-0.53249 1.79976,-0.88186 0.6886,-0.34939 1.2653,-0.63657 1.28135,-0.63852 z m -23.191466,-41.96518 -0.626002,-0.02465 0.117375,0.09703 c 0.06456,0.05321 0.357601,0.24766 0.651433,0.43195 0.293438,0.18388 0.811072,0.48397 1.149898,0.6663 0.338826,0.18232 0.864271,0.44563 1.167912,0.58492 0.303614,0.13967 0.778984,0.3443 1.055956,0.45502 0.277007,0.11072 0.717129,0.27701 0.978127,0.36973 0.260963,0.0923 0.713259,0.24023 1.005501,0.32865 0.292263,0.088 0.802838,0.23084 1.134626,0.31731 0.33178,0.0861 0.95547,0.22653 1.38585,0.31144 0.43037,0.0849 1.03801,0.19053 1.34981,0.23513 0.31222,0.0442 0.82867,0.10721 1.14835,0.14007 0.31927,0.0329 0.9801,0.0759 1.46797,0.0959 0.54032,0.0223 1.21991,0.0223 1.73677,3.9e-4 0.46715,-0.0196 1.09156,-0.063 1.38775,-0.0966 0.29657,-0.0336 0.79073,-0.10446 1.09902,-0.15767 0.3083,-0.0532 0.80129,-0.15767 1.0955,-0.23201 0.29422,-0.0743 0.71129,-0.19563 0.92648,-0.26918 0.21518,-0.0732 0.5274,-0.1882 0.69407,-0.25471 0.16628,-0.0669 0.47616,-0.20853 0.68822,-0.31496 0.21205,-0.10642 0.56887,-0.31691 0.79263,-0.46754 0.22419,-0.15063 0.52702,-0.37404 0.67335,-0.4965 0.14632,-0.12207 0.25979,-0.22849 0.25236,-0.23592 -0.007,-0.007 -0.2328,0.0466 -0.50081,0.1205 -0.268,0.0736 -0.75118,0.18663 -1.07397,0.25118 -0.32278,0.0645 -0.79812,0.14399 -1.05637,0.17646 -0.25823,0.0329 -0.71601,0.0798 -1.01726,0.10446 -0.34938,0.0289 -1.00824,0.0372 -1.81931,0.0235 -0.88503,-0.0153 -1.5016,-0.0466 -2.02825,-0.10329 -0.41629,-0.045 -1.01493,-0.11738 -1.33025,-0.1612 -0.31535,-0.0438 -0.83767,-0.12363 -1.16045,-0.17723 -0.32278,-0.0536 -0.82437,-0.14203 -1.11507,-0.19602 -0.2903,-0.0544 -1.34672,-0.25588 -2.3475,-0.4472 -1.00044,-0.19172 -2.18003,-0.41042 -2.621384,-0.48594 -0.440938,-0.0759 -1.0435,-0.17293 -1.338486,-0.21596 -0.295001,-0.0431 -0.823176,-0.11347 -1.173753,-0.156119 -0.350564,-0.04304 -0.971865,-0.103681 -1.380708,-0.135375 -0.408857,-0.0313 -1.025063,-0.06808 -1.369378,-0.08177 z"
     id="icon" /></svg>