<?xml version="1.0" encoding="UTF-8" standalone="no"?>
<svg
   xmlns:dc="http://purl.org/dc/elements/1.1/"
   xmlns:cc="http://creativecommons.org/ns#"
   xmlns:rdf="http://www.w3.org/1999/02/22-rdf-syntax-ns#"
   xmlns:svg="http://www.w3.org/2000/svg"
   xmlns="http://www.w3.org/2000/svg"
   id="svg11"
   xml:space="preserve"
   enable-background="new 0 0 200 200"
   viewBox="0 0 200 200"
   y="0px"
   x="0px"
   version="1.1"><metadata
     id="metadata15"><rdf:RDF><cc:Work
         rdf:about=""><dc:format>image/svg+xml</dc:format><dc:type
           rdf:resource="http://purl.org/dc/dcmitype/StillImage" /></cc:Work></rdf:RDF></metadata><defs
     id="defs37403" /><linearGradient
     spreadMethod="pad"
     y2="30%"
     x2="-10%"
     y1="120%"
     x1="30%"
     id="3d_gradient2-logo-8DBD3F5A310F4E9E8FD88A2B5D041965"><stop
       id="stop37380"
       stop-opacity="1"
       stop-color="#ffffff"
       offset="0%" /><stop
       id="stop37382"
       stop-opacity="1"
       stop-color="#000000"
       offset="100%" /></linearGradient><linearGradient
     gradientTransform="rotate(-30)"
     spreadMethod="pad"
     y2="30%"
     x2="-10%"
     y1="120%"
     x1="30%"
     id="3d_gradient3-logo-8DBD3F5A310F4E9E8FD88A2B5D041965"><stop
       id="stop37385"
       stop-opacity="1"
       stop-color="#ffffff"
       offset="0%" /><stop
       id="stop37387"
       stop-opacity="1"
       stop-color="#cccccc"
       offset="50%" /><stop
       id="stop37389"
       stop-opacity="1"
       stop-color="#000000"
       offset="100%" /></linearGradient><path
     style="fill:#853d46;stroke-width:0.67083138"
     d="m 100.43579,40.008594 c -1.046229,-0.0078 -2.254664,7.45e-4 -2.685472,0.01865 -0.430795,0.0179 -1.186097,0.0593 -1.678421,0.09212 -0.492336,0.03245 -1.247612,0.09213 -1.67842,0.132784 -0.430794,0.04028 -1.068567,0.10742 -1.417332,0.148817 -0.348739,0.0414 -0.936213,0.117114 -1.305438,0.168587 -0.369253,0.0511 -1.072727,0.160007 -1.563574,0.241694 -0.490472,0.08168 -1.23755,0.21633 -1.659771,0.299506 -0.422214,0.08318 -1.069708,0.217819 -1.438933,0.299506 -0.369253,0.08168 -1.107744,0.258102 -1.641122,0.392376 -0.533365,0.134274 -1.397543,0.367012 -1.920859,0.517325 -0.52292,0.150313 -1.278202,0.377457 -1.67842,0.504271 -0.399836,0.127189 -1.13015,0.373358 -1.622473,0.547539 -0.492336,0.174181 -1.264383,0.460258 -1.715718,0.63519 -0.451309,0.175302 -1.080508,0.426689 -1.398684,0.559098 -0.318155,0.132033 -0.938828,0.399467 -1.380034,0.594162 -0.440864,0.194695 -1.4229,0.661668 -2.181946,1.037642 -0.759046,0.375967 -1.707534,0.863427 -2.10735,1.082789 -0.399835,0.219315 -1.084265,0.606841 -1.52064,0.861213 -0.436014,0.254373 -1.040259,0.616166 -1.342736,0.80379 -0.302116,0.187981 -0.937286,0.597148 -1.41096,0.908977 -0.474063,0.312185 -1.120087,0.748916 -1.435982,0.970492 -0.315914,0.221924 -0.826129,0.588567 -1.133839,0.814993 -0.30771,0.226399 -0.819421,0.612435 -1.137596,0.857456 -0.317779,0.245424 -0.83807,0.657194 -1.156245,0.915283 -0.317779,0.257733 -0.863427,0.713496 -1.212192,1.01262 -0.348739,0.298761 -0.900726,0.784738 -1.227085,1.07977 -0.325984,0.295032 -0.963783,0.891065 -1.417333,1.324825 -0.453173,0.43378 -1.135382,1.114452 -1.515408,1.512792 -0.380442,0.397971 -0.884357,0.933193 -1.120087,1.189786 -0.236099,0.256238 -0.655704,0.726175 -0.932455,1.044351 -0.277128,0.317779 -0.672106,0.779506 -0.877649,1.025701 -0.205516,0.246168 -0.575137,0.699342 -0.821299,1.007052 -0.246544,0.30771 -0.658314,0.836258 -0.915685,1.174894 -0.256982,0.338294 -0.643019,0.858597 -0.857859,1.156245 -0.214841,0.297266 -0.593042,0.83438 -0.840351,1.193543 -0.247288,0.358808 -0.638919,0.946275 -0.87094,1.305036 -0.231625,0.359183 -0.580732,0.913068 -0.775414,1.230841 -0.194695,0.318155 -0.485253,0.801174 -0.646004,1.073464 -0.160382,0.272278 -0.462122,0.800772 -0.670623,1.174895 -0.208126,0.374102 -0.569543,1.047302 -0.80265,1.496423 -0.23349,0.449068 -0.606841,1.195757 -0.829886,1.659771 -0.223044,0.463618 -0.5177,1.094327 -0.655328,1.4013 -0.137628,0.306966 -0.384547,0.876508 -0.549029,1.265188 -0.164487,0.389022 -0.423334,1.023823 -0.575137,1.41096 -0.151802,0.387156 -0.41662,1.093589 -0.588936,1.569477 -0.171948,0.476297 -0.423711,1.205819 -0.559474,1.621735 -0.135393,0.415875 -0.348362,1.095803 -0.472567,1.510578 -0.124204,0.41513 -0.340158,1.18234 -0.480402,1.705656 -0.139869,0.522919 -0.347618,1.354274 -0.461754,1.847 -0.114504,0.493081 -0.283466,1.273372 -0.375967,1.734367 -0.0925,0.461378 -0.235723,1.23272 -0.31778,1.714981 -0.08206,0.482267 -0.199545,1.228963 -0.260711,1.659771 -0.06117,0.430794 -0.153668,1.152488 -0.205141,1.603823 -0.05184,0.451309 -0.127558,1.214809 -0.168962,1.697069 -0.04103,0.481892 -0.09138,1.145043 -0.111895,1.47328 -0.02051,0.328225 -0.05669,1.117069 -0.08057,1.753017 -0.02611,0.698939 -0.03431,1.775758 -0.02089,2.722775 0.01231,0.86162 0.04028,1.88544 0.06192,2.27519 0.02163,0.38977 0.0649,1.05254 0.09586,1.47328 0.03133,0.42035 0.0981,1.17228 0.149193,1.67024 0.05073,0.49793 0.142853,1.28679 0.204764,1.75301 0.06192,0.46623 0.170827,1.2081 0.242439,1.64931 0.07199,0.44086 0.181272,1.0787 0.243558,1.41733 0.06192,0.3383 0.196936,1.00967 0.299875,1.49193 0.102946,0.48189 0.276752,1.24574 0.386413,1.69707 0.109654,0.45131 0.30174,1.19395 0.427064,1.65045 0.124949,0.45653 0.312561,1.1111 0.41662,1.45463 0.10406,0.34352 0.298762,0.96043 0.43266,1.37071 0.133898,0.41028 0.385661,1.14021 0.559473,1.62173 0.174181,0.48152 0.455783,1.22863 0.625866,1.65977 0.170082,0.43117 0.453173,1.12157 0.62885,1.53406 0.175678,0.41289 0.461378,1.05891 0.634446,1.43598 0.173437,0.37746 0.456527,0.97942 0.629964,1.33865 0.173061,0.3588 0.504646,1.01336 0.73664,1.45463 0.231994,0.44086 0.615045,1.14578 0.851151,1.56652 0.236099,0.42035 0.63034,1.1003 0.87577,1.51058 0.245048,0.41028 0.622881,1.02275 0.83921,1.36139 0.21633,0.33829 0.544554,0.84182 0.72953,1.11894 0.185001,0.27676 0.553878,0.81386 0.820158,1.19355 0.266307,0.37932 0.728791,1.01711 1.027915,1.41733 0.29913,0.39984 0.845918,1.10479 1.214808,1.56652 0.368877,0.46138 0.916759,1.12606 1.217425,1.47703 0.300996,0.3506 0.702294,0.81238 0.892541,1.02571 0.190221,0.21334 0.643395,0.70679 1.00779,1.09654 0.364034,0.38977 1.079033,1.12009 1.588529,1.62321 0.509866,0.50279 1.136858,1.10848 1.393116,1.34568 0.256613,0.23685 0.710142,0.64788 1.008528,0.91308 0.298385,0.26518 0.843704,0.73475 1.212192,1.04394 0.368508,0.3092 0.955197,0.78883 1.303962,1.06635 0.348738,0.2775 0.995111,0.7732 1.435982,1.10178 0.441239,0.32896 1.146182,0.8388 1.566525,1.1331 0.420725,0.29465 1.142426,0.78065 1.603824,1.08052 0.461753,0.29949 1.200251,0.76273 1.641122,1.02945 0.441239,0.26631 1.129411,0.66988 1.529227,0.89629 0.399836,0.22678 0.995849,0.55501 1.324087,0.72993 0.328224,0.17457 0.974248,0.50614 1.435579,0.73705 0.461378,0.2305 1.183078,0.57849 1.603824,0.77321 0.420725,0.1947 1.117471,0.50539 1.548279,0.69001 0.430794,0.185 1.135717,0.4748 1.566525,0.64452 0.430795,0.16933 1.152488,0.44236 1.603824,0.60647 0.451308,0.16411 1.206624,0.42482 1.67842,0.57924 0.471823,0.15441 1.168521,0.37334 1.547876,0.48637 0.379698,0.11264 0.967138,0.28084 1.305438,0.37335 0.338669,0.0925 0.951105,0.25213 1.361385,0.35471 0.410281,0.10256 1.16557,0.27898 1.678421,0.39199 0.51285,0.11264 1.251368,0.26446 1.641121,0.33682 0.389767,0.072 1.010809,0.18163 1.380035,0.24318 0.369252,0.0615 1.09956,0.17044 1.622473,0.24206 0.523295,0.0713 1.270018,0.16375 1.659771,0.20515 0.389766,0.0418 0.993971,0.1007 1.342736,0.13128 0.348738,0.0306 1.079032,0.085 1.622473,0.12122 0.781786,0.0519 1.515072,0.0657 3.506033,0.0664 1.645208,6.7e-4 2.782468,-0.0156 3.282238,-0.047 0.42073,-0.0265 1.08353,-0.0727 1.47328,-0.10295 0.38977,-0.0302 1.03617,-0.0888 1.43598,-0.1298 0.40022,-0.0414 1.12157,-0.12569 1.60343,-0.18798 0.48189,-0.0619 1.19501,-0.16262 1.58517,-0.22378 0.38977,-0.0608 1.07829,-0.17829 1.52963,-0.26109 0.45131,-0.0828 1.13947,-0.2182 1.52923,-0.30063 0.38976,-0.0828 1.06112,-0.23386 1.49193,-0.33605 0.43079,-0.10221 1.06856,-0.26109 1.41733,-0.35359 0.34874,-0.0921 1.00517,-0.27526 1.45839,-0.40656 0.45354,-0.13129 1.29276,-0.39238 1.86491,-0.57999 0.57252,-0.18761 1.40163,-0.47257 1.8425,-0.63332 0.44087,-0.16076 1.14619,-0.42856 1.56653,-0.59565 0.42072,-0.16673 1.1003,-0.44684 1.51058,-0.62214 0.41028,-0.17568 1.05629,-0.46138 1.43598,-0.63519 0.3797,-0.17418 1.2521,-0.59976 1.93951,-0.94587 0.6874,-0.34613 1.58517,-0.81573 1.99545,-1.04362 0.41028,-0.22751 1.00631,-0.56581 1.32409,-0.75119 0.31815,-0.18574 0.95593,-0.5729 1.41733,-0.86122 0.46175,-0.28794 1.16222,-0.73925 1.5572,-1.00255 0.39499,-0.2637 1.00746,-0.68331 1.36139,-0.93286 0.35395,-0.2499 0.97907,-0.70605 1.38936,-1.0145 0.41028,-0.30809 1.11519,-0.85672 1.56652,-1.2189 0.45131,-0.36217 1.1227,-0.9179 1.49193,-1.23493 0.36925,-0.31704 0.87275,-0.75791 1.11895,-0.97942 0.24616,-0.22155 0.86758,-0.80339 1.38043,-1.29235 0.51322,-0.48936 1.32114,-1.29726 1.79515,-1.79515 0.47406,-0.49831 1.04321,-1.10701 1.26478,-1.3532 0.22155,-0.24617 0.64787,-0.73288 0.94702,-1.08165 0.29913,-0.34874 0.76313,-0.9026 1.03093,-1.23084 0.2678,-0.32822 0.7139,-0.89066 0.99062,-1.24949 0.27712,-0.35918 0.66279,-0.87094 0.85786,-1.1376 0.1947,-0.26668 0.51397,-0.71161 0.7094,-0.9884 0.19582,-0.27713 0.59043,-0.85598 0.87765,-1.28679 0.2872,-0.43079 0.68961,-1.05179 0.89442,-1.38003 0.20477,-0.32823 0.55761,-0.9075 0.78366,-1.28679 0.22603,-0.3797 0.57925,-0.99216 0.78474,-1.36139 0.20514,-0.36925 0.56731,-1.04059 0.80453,-1.49193 0.23722,-0.4513 0.624,-1.22413 0.85974,-1.71685 0.23573,-0.49309 0.56619,-1.20663 0.73402,-1.58518 0.16822,-0.37894 0.43602,-1.00034 0.59565,-1.38077 0.15964,-0.38082 0.43639,-1.07568 0.61468,-1.54452 0.17866,-0.46884 0.45504,-1.2234 0.6143,-1.67655 0.15964,-0.45317 0.40096,-1.17637 0.53709,-1.60717 0.13577,-0.4308 0.37187,-1.21964 0.52442,-1.75302 0.15218,-0.53336 0.38678,-1.41472 0.52069,-1.95816 0.13427,-0.54381 0.32784,-1.38298 0.43079,-1.86491 0.10257,-0.48227 0.254,-1.24573 0.3368,-1.69707 0.0824,-0.45131 0.19992,-1.13981 0.26072,-1.52963 0.0612,-0.39013 0.16187,-1.10325 0.22379,-1.58517 0.0623,-0.48189 0.14658,-1.20361 0.18761,-1.60342 0.0411,-0.40021 0.0996,-1.05482 0.13054,-1.45463 0.0306,-0.40021 0.0772,-1.063 0.10332,-1.47328 0.0306,-0.48376 0.047,-1.63032 0.0462,-3.263593 -6.8e-4,-1.990625 -0.0146,-2.724649 -0.0664,-3.506033 -0.0361,-0.54381 -0.0992,-1.366215 -0.14023,-1.827613 -0.0411,-0.461753 -0.10854,-1.133101 -0.14957,-1.491929 -0.0414,-0.359183 -0.1257,-1.013761 -0.18724,-1.454631 -0.0615,-0.441239 -0.16187,-1.104054 -0.22304,-1.47328 -0.0615,-0.369252 -0.17083,-0.990281 -0.24319,-1.380034 -0.0724,-0.389767 -0.22192,-1.120087 -0.33195,-1.622473 -0.10965,-0.502781 -0.29466,-1.291619 -0.41028,-1.753017 -0.11563,-0.461753 -0.2775,-1.082788 -0.35918,-1.380034 -0.0821,-0.297641 -0.24132,-0.851151 -0.35396,-1.230841 -0.11302,-0.379698 -0.33196,-1.076081 -0.48712,-1.547877 -0.15516,-0.471822 -0.41587,-1.227084 -0.57999,-1.67842 -0.16373,-0.451308 -0.43675,-1.173016 -0.60609,-1.603823 -0.16971,-0.430795 -0.45952,-1.135718 -0.64452,-1.566526 -0.18462,-0.430794 -0.49867,-1.135717 -0.69786,-1.566525 -0.19955,-0.430795 -0.61207,-1.278605 -0.91757,-1.883561 -0.3051,-0.605351 -0.78286,-1.50984 -1.06112,-2.010347 -0.27824,-0.500541 -0.75569,-1.32449 -1.06038,-1.830565 -0.3051,-0.506511 -0.75938,-1.238288 -1.01,-1.626229 -0.25065,-0.388278 -0.59939,-0.915685 -0.77468,-1.171943 -0.1753,-0.256613 -0.5039,-0.726577 -0.72993,-1.04435 -0.2264,-0.318155 -0.65757,-0.905958 -0.95822,-1.306914 -0.30099,-0.400956 -0.75381,-0.988403 -1.00631,-1.305438 -0.25289,-0.317035 -0.71055,-0.875368 -1.01712,-1.240904 -0.30659,-0.365147 -0.784,-0.919039 -1.06078,-1.230841 -0.27713,-0.31144 -0.80151,-0.88543 -1.16597,-1.275251 -0.36441,-0.389766 -1.10513,-1.145042 -1.64596,-1.67842 -0.54082,-0.533364 -1.28531,-1.244996 -1.65453,-1.581082 -0.36926,-0.33606 -0.95668,-0.856719 -1.30544,-1.156648 -0.34874,-0.30025 -0.86906,-0.738115 -1.15625,-0.973108 -0.28719,-0.234979 -0.84109,-0.67546 -1.23084,-0.979078 -0.38977,-0.303605 -1.02979,-0.785879 -1.42256,-1.071586 -0.39276,-0.285707 -1.03054,-0.737043 -1.41734,-1.002558 -0.38678,-0.265937 -1.01678,-0.685522 -1.39982,-0.933193 -0.38305,-0.247658 -0.95372,-0.607586 -1.26814,-0.799698 -0.31443,-0.192086 -0.83176,-0.500541 -1.14994,-0.685188 -0.31778,-0.184626 -0.8213,-0.470702 -1.11895,-0.63519 -0.29726,-0.164856 -0.86792,-0.472567 -1.26814,-0.684046 -0.39983,-0.21148 -1.05441,-0.54269 -1.45463,-0.735902 -0.39983,-0.193207 -1.02087,-0.485622 -1.38003,-0.649734 -0.35881,-0.164112 -0.97982,-0.437879 -1.38004,-0.608337 -0.39983,-0.170451 -0.98726,-0.41401 -1.30543,-0.5412 -0.31778,-0.12719 -0.91381,-0.356943 -1.32409,-0.51061 -0.41028,-0.153667 -1.29128,-0.461378 -1.95816,-0.684047 -0.66651,-0.223044 -1.64856,-0.531124 -2.18194,-0.684784 -0.53337,-0.154043 -1.364,-0.380818 -1.84627,-0.503902 -0.48226,-0.123084 -1.24573,-0.307335 -1.69706,-0.408791 -0.45131,-0.10145 -1.12271,-0.243928 -1.49193,-0.31666 -0.36926,-0.07273 -1.01524,-0.191341 -1.43599,-0.263697 -0.42034,-0.07236 -1.04173,-0.173061 -1.38003,-0.223789 -0.33829,-0.05073 -0.9511,-0.135018 -1.36138,-0.186867 -0.41029,-0.05184 -1.18234,-0.135394 -1.71572,-0.186115 -0.53337,-0.05073 -1.22152,-0.109654 -1.52923,-0.131289 -0.30771,-0.02163 -0.8698,-0.05669 -1.24949,-0.07795 -0.37932,-0.02126 -1.546,-0.04513 -2.59223,-0.05259 z m 1.52923,4.554141 c 0.67693,0.0089 1.60865,0.03282 2.07005,0.05296 0.46175,0.02014 1.20025,0.06192 1.64112,0.09362 0.44124,0.03133 1.21333,0.0981 1.71572,0.148448 0.50278,0.05073 1.24131,0.133898 1.64112,0.185371 0.40021,0.05184 1.10513,0.153667 1.56653,0.226399 0.46175,0.07311 1.24204,0.20775 1.73436,0.299506 0.49234,0.09176 1.23943,0.242814 1.65977,0.335684 0.42073,0.0925 1.16598,0.268923 1.65682,0.391631 0.49048,0.122709 1.32147,0.346874 1.84627,0.497932 0.52478,0.151433 1.22265,0.360672 1.55082,0.465107 0.32823,0.104435 0.91569,0.300627 1.30544,0.435645 0.38977,0.135394 1.07789,0.386037 1.52923,0.556864 0.45131,0.171196 1.08614,0.420349 1.41062,0.554254 0.3245,0.133529 0.97908,0.415131 1.45463,0.62549 0.47556,0.210735 1.42666,0.663164 2.11406,1.005912 0.6874,0.342399 1.65233,0.847394 2.14465,1.122703 0.49234,0.274887 1.1973,0.681431 1.56653,0.903744 0.36925,0.2223 0.99886,0.614301 1.39868,0.871276 0.40021,0.256982 0.99585,0.651599 1.32409,0.877246 0.32822,0.225654 0.84035,0.586327 1.13759,0.800772 0.29764,0.21484 0.7508,0.550893 1.00705,0.747104 0.25662,0.195816 0.76012,0.591553 1.11895,0.879125 0.35918,0.287941 0.94661,0.774676 1.30544,1.082386 0.35918,0.307711 0.9295,0.811639 1.26774,1.119685 0.3383,0.308455 0.99061,0.92984 1.4498,1.381175 0.45877,0.451308 1.11559,1.122703 1.45946,1.491929 0.34389,0.369252 0.79708,0.864232 1.00705,1.100298 0.20999,0.235723 0.66316,0.764613 1.00631,1.174894 0.34352,0.41028 0.86645,1.056291 1.16182,1.435981 0.2954,0.379322 0.73966,0.966802 0.98726,1.305438 0.24766,0.338294 0.66988,0.934334 0.93802,1.324087 0.26818,0.389767 0.69599,1.035764 0.95071,1.435982 0.25474,0.399835 0.64301,1.026841 0.86268,1.392713 0.21931,0.365898 0.5688,0.969351 0.77616,1.34126 0.20738,0.371862 0.55239,1.012285 0.76682,1.423303 0.21447,0.411025 0.57067,1.124917 0.79185,1.586651 0.22155,0.461377 0.53262,1.132765 0.6915,1.491526 0.15926,0.359183 0.42855,0.991355 0.59901,1.405392 0.17007,0.41401 0.4472,1.118947 0.61579,1.566525 0.16822,0.447955 0.47891,1.334552 0.69075,1.970433 0.21149,0.635935 0.51062,1.594097 0.66429,2.128951 0.15404,0.535229 0.38044,1.374466 0.50315,1.864911 0.12308,0.490847 0.29055,1.194281 0.37223,1.563574 0.0817,0.369252 0.21708,1.019328 0.301,1.444568 0.0836,0.4252 0.21857,1.180462 0.29951,1.67842 0.0809,0.497932 0.18985,1.215547 0.24169,1.595237 0.0519,0.379322 0.12756,0.983573 0.16784,1.342737 0.0406,0.358807 0.10742,1.046966 0.14845,1.529227 0.0411,0.481891 0.0921,1.161813 0.11376,1.510578 0.0213,0.348738 0.0552,1.061859 0.0753,1.585174 0.0201,0.52292 0.0366,1.429274 0.0366,2.014105 0,0.584462 -0.0164,1.474022 -0.0373,1.976812 -0.0205,0.5024 -0.0626,1.26626 -0.094,1.69707 -0.0313,0.43079 -0.0899,1.11036 -0.13054,1.51057 -0.0403,0.39984 -0.11638,1.05442 -0.16934,1.45463 -0.0526,0.39984 -0.17119,1.18047 -0.2637,1.73437 -0.0921,0.55388 -0.23423,1.33415 -0.31554,1.73437 -0.0817,0.39984 -0.22416,1.05441 -0.31704,1.45463 -0.0929,0.39984 -0.21894,0.92011 -0.28085,1.15625 -0.0615,0.23572 -0.17903,0.6721 -0.26072,0.96975 -0.0821,0.29726 -0.25623,0.89328 -0.38715,1.32409 -0.13129,0.43079 -0.35843,1.13571 -0.50464,1.56652 -0.14659,0.4308 -0.40133,1.14357 -0.56619,1.58404 -0.16486,0.44011 -0.43825,1.13685 -0.60722,1.54787 -0.16933,0.41103 -0.43788,1.041 -0.59677,1.40016 -0.15926,0.35881 -0.43937,0.97123 -0.6225,1.36098 -0.18314,0.38977 -0.51024,1.05254 -0.72692,1.47328 -0.21633,0.42073 -0.55387,1.05817 -0.75005,1.41734 -0.19582,0.3588 -0.55687,0.99658 -0.80232,1.41693 -0.24542,0.41998 -0.63966,1.07453 -0.87651,1.45463 -0.23684,0.37969 -0.68216,1.06783 -0.99028,1.52963 -0.30771,0.46138 -0.78212,1.15175 -1.05407,1.53332 -0.27191,0.38193 -0.70793,0.9776 -0.96902,1.32408 -0.26072,0.3465 -0.70122,0.91529 -0.97908,1.26405 -0.2775,0.34874 -0.71537,0.88583 -0.9727,1.19354 -0.25736,0.30771 -0.7031,0.82768 -0.99062,1.15551 -0.28757,0.32785 -0.7404,0.83136 -1.00631,1.11895 -0.26594,0.28756 -0.77542,0.82505 -1.13237,1.19428 -0.35657,0.36925 -1.01188,1.02194 -1.45577,1.45054 -0.44422,0.42818 -1.10962,1.05179 -1.47885,1.38526 -0.36925,0.33382 -0.98169,0.87276 -1.36138,1.19838 -0.37932,0.32561 -0.95037,0.80339 -1.26888,1.06226 -0.31853,0.25885 -0.91716,0.73067 -1.33079,1.04918 -0.41364,0.31853 -1.07642,0.81238 -1.47255,1.09808 -0.39648,0.2857 -1.03952,0.73852 -1.42927,1.00632 -0.38977,0.2678 -1.06112,0.71316 -1.49193,0.98954 -0.43079,0.27638 -1.16074,0.72953 -1.62247,1.00665 -0.46138,0.27712 -1.267,0.74261 -1.79032,1.03389 -0.52292,0.29167 -1.56391,0.83625 -2.31249,1.21031 -0.74858,0.3741 -1.68848,0.82801 -2.0887,1.00853 -0.39983,0.18015 -1.09654,0.48339 -1.54787,0.67358 -0.45131,0.18985 -1.24835,0.50875 -1.77167,0.70793 -0.52292,0.19954 -1.52178,0.55313 -2.21924,0.78588 -0.69747,0.23274 -1.58706,0.51583 -1.97681,0.62884 -0.38977,0.11302 -1.03576,0.29093 -1.43598,0.39536 -0.39984,0.10407 -1.04623,0.26371 -1.43598,0.35434 -0.38977,0.0906 -0.99397,0.22304 -1.34274,0.29428 -0.34874,0.0712 -0.96975,0.1891 -1.38003,0.26146 -0.41028,0.0727 -1.08984,0.18202 -1.51058,0.24356 -0.42035,0.0612 -1.15068,0.15367 -1.62247,0.20514 -0.47183,0.0515 -1.20173,0.11935 -1.62248,0.15031 -0.42035,0.031 -1.20099,0.0757 -1.73436,0.0992 -0.5785,0.0258 -1.51132,0.0339 -2.312495,0.0209 -0.738518,-0.0119 -1.736984,-0.0481 -2.219244,-0.0802 -0.481892,-0.0321 -1.212193,-0.0917 -1.622473,-0.13241 -0.410281,-0.0411 -1.081649,-0.11749 -1.491929,-0.17008 -0.410281,-0.0526 -1.140212,-0.16113 -1.622473,-0.24094 -0.481892,-0.0798 -1.203606,-0.21148 -1.603824,-0.2928 -0.399835,-0.0813 -0.962307,-0.19992 -1.24949,-0.26407 -0.287196,-0.0641 -0.815731,-0.19059 -1.174894,-0.28086 -0.358808,-0.0903 -1.013425,-0.2663 -1.454631,-0.39125 -0.440864,-0.12495 -1.120825,-0.3286 -1.510578,-0.4528 -0.389767,-0.12383 -1.002222,-0.32636 -1.361385,-0.45019 -0.358808,-0.12346 -0.912666,-0.32114 -1.230842,-0.43937 -0.317779,-0.11861 -0.871678,-0.33308 -1.230841,-0.47705 -0.358808,-0.1436 -0.983573,-0.40469 -1.387883,-0.57961 -0.40431,-0.1753 -1.016779,-0.4487 -1.361386,-0.60759 -0.344263,-0.15889 -1.112976,-0.53486 -1.707869,-0.83546 -0.594907,-0.30025 -1.366953,-0.7031 -1.715719,-0.89475 -0.348738,-0.19171 -0.977938,-0.54903 -1.39828,-0.79447 -0.419981,-0.24542 -1.074538,-0.63966 -1.454631,-0.87651 -0.379698,-0.23684 -1.042875,-0.66502 -1.473683,-0.95184 -0.430794,-0.28683 -1.035025,-0.6986 -1.342736,-0.91495 -0.30771,-0.21595 -0.81942,-0.58558 -1.137596,-0.82056 -0.317779,-0.23535 -0.869062,-0.65346 -1.224468,-0.9291 -0.355823,-0.27563 -0.943256,-0.74556 -1.305438,-1.04475 -0.362537,-0.29876 -0.894017,-0.74744 -1.181267,-0.99739 -0.287196,-0.24953 -0.723559,-0.63519 -0.969754,-0.85639 -0.246168,-0.22118 -0.861213,-0.79594 -1.366953,-1.27746 -0.505767,-0.48152 -1.313287,-1.28941 -1.794809,-1.79515 -0.481148,-0.50576 -1.064476,-1.12941 -1.296114,-1.3856 -0.231624,-0.25661 -0.666518,-0.75153 -0.965997,-1.1003 -0.299875,-0.34873 -0.765016,-0.9026 -1.03355,-1.23084 -0.268923,-0.32822 -0.749319,-0.9354 -1.067829,-1.34944 -0.318524,-0.41401 -0.819085,-1.08541 -1.112574,-1.49193 -0.293167,-0.40655 -0.804528,-1.14209 -1.13612,-1.63441 -0.33121,-0.49234 -0.837734,-1.27297 -1.12532,-1.73437 -0.287941,-0.46175 -0.707928,-1.15812 -0.933931,-1.54788 -0.226399,-0.38976 -0.590433,-1.03616 -0.809358,-1.43598 -0.219315,-0.39983 -0.637055,-1.20589 -0.929102,-1.79031 -0.291671,-0.58484 -0.653463,-1.33154 -0.804125,-1.65978 -0.150314,-0.32822 -0.407296,-0.9075 -0.570663,-1.28678 -0.163368,-0.3797 -0.414386,-0.98391 -0.558353,-1.34274 -0.143599,-0.35918 -0.359553,-0.91568 -0.479283,-1.23681 -0.120098,-0.32114 -0.322254,-0.88362 -0.449068,-1.24949 -0.126438,-0.36589 -0.32114,-0.9507 -0.431914,-1.29947 -0.11115,-0.34874 -0.292791,-0.9448 -0.403566,-1.32409 -0.11115,-0.37969 -0.278616,-0.98283 -0.372237,-1.34085 -0.09399,-0.35769 -0.253628,-1.00411 -0.354709,-1.43599 -0.10145,-0.43191 -0.244304,-1.07903 -0.31778,-1.43786 -0.07348,-0.35918 -0.190596,-0.97163 -0.260343,-1.36138 -0.07012,-0.38977 -0.169707,-0.98579 -0.221548,-1.32409 -0.05184,-0.33867 -0.136515,-0.9511 -0.187981,-1.36138 -0.05147,-0.41028 -0.126814,-1.09024 -0.167842,-1.51058 -0.04065,-0.42073 -0.09996,-1.13948 -0.131288,-1.59786 -0.03133,-0.45802 -0.07385,-1.43001 -0.09437,-2.15954 -0.02462,-0.87986 -0.02462,-1.781391 0,-2.677287 0.02014,-0.743013 0.05446,-1.642597 0.07609,-1.999211 0.02163,-0.356574 0.07273,-1.042875 0.113384,-1.524733 0.04065,-0.482267 0.115624,-1.23755 0.166721,-1.67842 0.05147,-0.44124 0.135394,-1.095803 0.187236,-1.454631 0.05147,-0.359183 0.152547,-1.005174 0.224534,-1.435982 0.07199,-0.430794 0.205885,-1.15772 0.297641,-1.615362 0.09176,-0.457648 0.250643,-1.196159 0.353589,-1.641122 0.10257,-0.444969 0.280112,-1.160739 0.394241,-1.590742 0.114135,-0.43005 0.316659,-1.15175 0.450188,-1.603824 0.133153,-0.452053 0.373727,-1.21776 0.534485,-1.701899 0.160758,-0.483757 0.451684,-1.306176 0.646748,-1.827613 0.194696,-0.521055 0.496067,-1.292021 0.669503,-1.712767 0.173061,-0.420349 0.480027,-1.133839 0.681833,-1.585174 0.201411,-0.450933 0.630716,-1.349109 0.954057,-1.995053 0.323374,-0.646004 0.77917,-1.519165 1.013022,-1.939508 0.233859,-0.420725 0.589312,-1.041734 0.789636,-1.380034 0.20029,-0.338293 0.515836,-0.858999 0.701555,-1.156245 0.185747,-0.297641 0.572528,-0.893279 0.859738,-1.324087 0.287196,-0.430794 0.70719,-1.043612 0.933193,-1.361385 0.225655,-0.318155 0.607962,-0.840686 0.848938,-1.161478 0.240949,-0.320764 0.64377,-0.841088 0.894754,-1.156245 0.251019,-0.31517 0.624746,-0.77434 0.830624,-1.020468 0.205516,-0.246169 0.549773,-0.648989 0.765016,-0.895158 0.215209,-0.246168 0.63519,-0.716112 0.933194,-1.04435 0.29801,-0.328224 1.029055,-1.083527 1.624351,-1.678823 0.595651,-0.595282 1.351322,-1.3263 1.67956,-1.624351 0.328225,-0.298386 0.798155,-0.719131 1.044351,-0.934669 0.246168,-0.215585 0.699341,-0.601991 1.007052,-0.858597 0.30771,-0.256613 0.811236,-0.665029 1.118946,-0.907836 0.307711,-0.242439 0.878387,-0.678479 1.26814,-0.968614 0.389767,-0.29055 0.985787,-0.721345 1.324087,-0.957813 0.338669,-0.236468 0.816804,-0.564692 1.062999,-0.729194 0.246169,-0.164487 0.74147,-0.483387 1.100298,-0.709068 0.359183,-0.225279 0.921253,-0.570287 1.249491,-0.76609 0.328224,-0.195815 0.848534,-0.498307 1.156245,-0.672508 0.30771,-0.174182 0.786214,-0.43863 1.062999,-0.587823 0.277127,-0.149193 0.948489,-0.493457 1.491929,-0.765351 0.54381,-0.271533 1.300608,-0.637055 1.681774,-0.812377 0.381563,-0.174926 1.089498,-0.485997 1.572899,-0.691493 0.483756,-0.205141 1.277464,-0.525905 1.763817,-0.713161 0.486742,-0.186867 1.240166,-0.463618 1.674328,-0.615045 0.434148,-0.151058 1.136455,-0.385292 1.560555,-0.52031 0.42371,-0.13465 1.186432,-0.363658 1.694855,-0.508377 0.508377,-0.144718 1.225609,-0.338669 1.594499,-0.43117 0.368508,-0.09287 0.922394,-0.227143 1.230842,-0.298761 0.308086,-0.07161 0.87946,-0.197305 1.26928,-0.279361 0.389766,-0.08206 1.1704,-0.230874 1.734367,-0.33121 0.564324,-0.09996 1.445307,-0.240949 1.958157,-0.313305 0.512851,-0.07236 1.310268,-0.173812 1.771666,-0.225654 0.461753,-0.05184 1.242044,-0.127559 1.734367,-0.168587 0.492337,-0.04065 1.214071,-0.09287 1.603824,-0.116 0.389767,-0.02312 1.178651,-0.05557 1.753017,-0.07199 0.574391,-0.01641 1.598251,-0.02238 2.275191,-0.01343 z m 0.0776,8.111022 c -0.24767,0.0022 -0.51584,0.01902 -0.59528,0.03767 -0.0798,0.01865 -0.24468,0.08728 -0.36702,0.152547 -0.12458,0.06639 -0.29428,0.201035 -0.38715,0.306966 -0.091,0.104059 -0.23051,0.314794 -0.31032,0.468837 -0.0981,0.189101 -0.1615,0.376336 -0.19545,0.578122 -0.0377,0.224534 -0.0496,0.783666 -0.0485,2.256543 6.7e-4,1.076819 0.0224,2.436326 0.0478,3.021156 0.0258,0.584462 0.0798,1.725781 0.12048,2.53628 0.0406,0.810096 0.10742,2.05214 0.14881,2.760068 0.0411,0.707526 0.14211,2.302025 0.22417,3.543332 0.0817,1.240904 0.20775,3.078982 0.27936,4.084155 0.0716,1.005174 0.18873,2.60826 0.26034,3.561981 0.0716,0.953721 0.1809,2.380378 0.24282,3.170349 0.0619,0.789971 0.18835,2.367297 0.28048,3.506033 0.0925,1.138334 0.23498,2.858882 0.31666,3.823068 0.0813,0.964186 0.21558,2.508306 0.29802,3.431437 0.0824,0.923131 0.19134,2.089439 0.24206,2.592227 0.0504,0.502405 0.1104,0.980956 0.13315,1.062999 0.0227,0.08206 0.0996,0.261088 0.17083,0.397602 0.0716,0.136514 0.18873,0.317035 0.26072,0.401332 0.072,0.08392 0.20887,0.198425 0.30435,0.254372 0.13278,0.07795 0.22192,0.10145 0.37932,0.101081 0.14173,-3.73e-4 0.26072,-0.02835 0.38306,-0.09026 0.0977,-0.04923 0.28458,-0.199922 0.41475,-0.33494 0.13055,-0.135018 0.31778,-0.369997 0.41625,-0.522175 0.0985,-0.152178 0.4886,-0.907098 0.86684,-1.677682 0.37858,-0.770987 0.88959,-1.820905 1.13612,-2.333756 0.24655,-0.51285 0.71612,-1.494545 1.04395,-2.181946 0.32785,-0.687401 0.93206,-1.962987 1.34274,-2.834665 0.41065,-0.872014 1.04026,-2.21475 1.39868,-2.983858 0.35843,-0.769443 1.02865,-2.219244 1.48931,-3.222204 0.46064,-1.00296 1.11184,-2.429617 1.44719,-3.170349 0.33493,-0.740732 0.91381,-2.033156 1.28679,-2.872366 0.3726,-0.838808 0.92165,-2.089439 1.22004,-2.778718 0.29838,-0.689279 0.76723,-1.786223 1.04173,-2.437801 0.27452,-0.651599 0.73215,-1.767574 1.01712,-2.480332 0.28496,-0.712759 0.6695,-1.707132 0.8541,-2.209518 0.18463,-0.502781 0.41439,-1.157385 0.50987,-1.45463 0.0959,-0.297642 0.2249,-0.740397 0.28682,-0.983909 0.0619,-0.243559 0.1257,-0.562458 0.14174,-0.708666 0.0209,-0.188356 0.0142,-0.325239 -0.022,-0.470702 -0.0283,-0.113015 -0.1242,-0.356198 -0.21297,-0.540825 -0.0888,-0.184626 -0.26258,-0.469957 -0.38678,-0.634069 -0.12383,-0.164113 -0.39088,-0.458769 -0.59304,-0.65496 -0.20216,-0.196191 -0.49495,-0.450564 -0.65011,-0.565444 -0.15553,-0.114504 -0.42408,-0.299875 -0.59677,-0.411401 -0.17307,-0.111519 -0.51584,-0.31256 -0.762,-0.446458 -0.24617,-0.134274 -0.65346,-0.337925 -0.90522,-0.452798 -0.25176,-0.115249 -0.69075,-0.301371 -0.97532,-0.414386 -0.28496,-0.112639 -0.79225,-0.298761 -1.12753,-0.41289 -0.33531,-0.114504 -0.9287,-0.300626 -1.31852,-0.413634 -0.38977,-0.113015 -1.03952,-0.287572 -1.44417,-0.387902 -0.40431,-0.09996 -0.93319,-0.223414 -1.17489,-0.274142 -0.2417,-0.05073 -0.67432,-0.126069 -0.96157,-0.167842 -0.2872,-0.0414 -0.72282,-0.09362 -0.96828,-0.115624 -0.24505,-0.02238 -1.01711,-0.05632 -1.71572,-0.07572 -0.6982,-0.01939 -1.51279,-0.06154 -1.81044,-0.09362 -0.29726,-0.0317 -0.87503,-0.09922 -1.28383,-0.149938 -0.45467,-0.05595 -0.91757,-0.09026 -1.19355,-0.08803 z m -9.443295,1.322209 c -0.697463,-0.006 -1.35206,-0.0048 -1.454631,0.0026 -0.10257,0.0078 -0.488606,0.04028 -0.857859,0.07273 -0.369252,0.03208 -1.048845,0.108165 -1.510578,0.168963 -0.461378,0.06042 -1.134644,0.159637 -1.495686,0.220435 -0.361048,0.06042 -0.948488,0.169707 -1.305437,0.242814 -0.356943,0.07273 -0.896634,0.199546 -1.199112,0.281602 -0.30286,0.08168 -0.847796,0.267802 -1.211051,0.41289 -0.363282,0.145463 -0.921253,0.387157 -1.239764,0.53747 -0.3189,0.149937 -0.831361,0.405806 -1.139072,0.568422 -0.30771,0.162623 -0.769108,0.41774 -1.025701,0.566557 -0.256237,0.149193 -0.785141,0.481147 -1.174894,0.737781 -0.389766,0.256237 -0.893279,0.603855 -1.118947,0.772462 -0.225654,0.168218 -0.569918,0.435645 -0.764613,0.594162 -0.194696,0.158518 -0.559474,0.473688 -0.809761,0.70008 -0.250643,0.226774 -0.611691,0.587823 -0.801912,0.802314 -0.190596,0.214841 -0.444593,0.52777 -0.564692,0.695585 -0.120099,0.167467 -0.261088,0.388277 -0.31293,0.490472 -0.05184,0.102194 -0.125324,0.276751 -0.163736,0.387901 -0.03842,0.111519 -0.06975,0.280113 -0.06975,0.374848 0,0.11973 0.03916,0.254372 0.128303,0.440119 0.07049,0.147328 0.257358,0.474063 0.41513,0.726577 0.157773,0.252139 0.497187,0.760522 0.754149,1.129747 0.257358,0.369253 0.711283,1.007052 1.009668,1.417333 0.29801,0.41028 0.869398,1.18234 1.26928,1.715718 0.399836,0.533365 1.029056,1.364002 1.397946,1.846262 0.369252,0.482268 1.015639,1.321471 1.436384,1.864912 0.421094,0.543433 1.352799,1.735105 2.07079,2.648174 0.71799,0.912666 1.859678,2.356496 2.536681,3.207647 0.676936,0.851151 1.851495,2.319936 2.610138,3.263595 0.759046,0.943658 1.698948,2.109966 2.089103,2.592226 0.390142,0.482268 1.187976,1.463956 1.772806,2.181947 0.584838,0.71799 1.608319,1.968219 2.274454,2.778717 0.666149,0.810096 1.67359,2.027186 2.238632,2.704122 0.564692,0.676936 1.324489,1.577325 1.688147,2.000687 0.363282,0.423335 0.783665,0.880265 0.933931,1.015236 0.150314,0.135019 0.365147,0.314426 0.477418,0.398716 0.11227,0.08467 0.318524,0.211855 0.458392,0.282722 0.139869,0.07124 0.342029,0.146952 0.449079,0.168217 0.13949,0.02797 0.23871,0.02723 0.34985,-0.0026 0.0854,-0.02312 0.20403,-0.0828 0.26333,-0.132409 0.0593,-0.04998 0.15665,-0.19656 0.21595,-0.325614 l 0.10854,-0.234604 -0.004,-0.503526 c -0.003,-0.314794 -0.0556,-0.950702 -0.14136,-1.697069 -0.0757,-0.656449 -0.24654,-2.10849 -0.37933,-3.226296 -0.13315,-1.118209 -0.37671,-3.115543 -0.54157,-4.438489 -0.16485,-1.323349 -0.399459,-3.186382 -0.521799,-4.140103 -0.124774,-0.953922 -0.334745,-2.56593 -0.46824,-3.580898 -0.133496,-1.015639 -0.368957,-2.769192 -0.523249,-3.897531 -0.15362,-1.128338 -0.389082,-2.823529 -0.522577,-3.767389 -0.133496,-0.943189 -0.350845,-2.441826 -0.482999,-3.330007 -0.132824,-0.888851 -0.299861,-1.996394 -0.372982,-2.461951 -0.07245,-0.465557 -0.224729,-1.409417 -0.337428,-2.096348 -0.1127,-0.687602 -0.295837,-1.744832 -0.407195,-2.349922 -0.110687,-0.60509 -0.262295,-1.393988 -0.336086,-1.752883 -0.07379,-0.359565 -0.184479,-0.853968 -0.245525,-1.100163 -0.06117,-0.246169 -0.154787,-0.581853 -0.208125,-0.745965 -0.05334,-0.164112 -0.12719,-0.358807 -0.164112,-0.432283 -0.03692,-0.07385 -0.127559,-0.187236 -0.201035,-0.251764 -0.07348,-0.06453 -0.19917,-0.150682 -0.278992,-0.19171 -0.08019,-0.04065 -0.275631,-0.109654 -0.434524,-0.153298 -0.158894,-0.04364 -0.424456,-0.104059 -0.590057,-0.134274 -0.217349,-0.03958 -0.654061,-0.05836 -1.569075,-0.06574 z m 32.125445,6.565225 c -0.14994,-0.01081 -0.28944,-0.01305 -0.30995,-0.0048 -0.0205,0.0082 -0.1022,0.02573 -0.18127,0.03879 -0.0988,0.01678 -0.20029,0.07646 -0.32151,0.190221 -0.0977,0.09138 -0.31181,0.362913 -0.4763,0.603855 -0.16411,0.240574 -0.45728,0.697464 -0.6516,1.015639 -0.19395,0.317779 -0.54679,0.913806 -0.78366,1.324087 -0.23647,0.41028 -0.63594,1.11519 -0.88731,1.566525 -0.2514,0.451309 -0.72101,1.307317 -1.04395,1.90221 -0.32263,0.594907 -0.8806,1.635554 -1.23976,2.31249 -0.35919,0.676936 -0.98431,1.868668 -1.38936,2.648174 -0.40506,0.779506 -1.2827,2.490797 -1.95031,3.80254 -0.66764,1.311811 -1.71236,3.401585 -2.32148,4.64363 -0.60945,1.242044 -1.39721,2.862638 -1.75114,3.601157 -0.35396,0.738518 -0.92796,1.952589 -1.27525,2.698151 -0.34762,0.745226 -0.82539,1.78582 -1.06226,2.31249 -0.23684,0.52628 -0.63258,1.427059 -0.87946,2.001425 -0.24691,0.574393 -0.58745,1.396805 -0.75717,1.827613 -0.16933,0.430794 -0.38081,0.992898 -0.46958,1.249491 l -0.1615,0.466227 -6.7e-4,0.410281 -10e-4,0.41028 0.10369,0.176047 c 0.0645,0.110405 0.16485,0.212224 0.2678,0.272652 0.0914,0.05371 0.27414,0.113384 0.41139,0.13465 0.17494,0.02723 0.33905,0.02611 0.56321,-0.0034 0.26556,-0.03543 0.35918,-0.06826 0.58521,-0.203651 0.14807,-0.08877 1.22601,-0.728791 2.39527,-1.421827 1.16933,-0.693371 3.10769,-1.847 4.30794,-2.56385 1.20026,-0.716851 3.08831,-1.850019 4.19606,-2.51763 1.10774,-0.667639 2.82795,-1.70901 3.82306,-2.313966 0.99511,-0.604976 2.67353,-1.631798 3.72983,-2.2819 1.05629,-0.65011 2.52507,-1.559817 3.26359,-2.021551 0.73852,-0.461753 1.82949,-1.149872 2.42439,-1.528489 0.5949,-0.378953 1.50125,-0.963381 2.0141,-1.29873 0.51285,-0.335308 1.27673,-0.844778 1.69707,-1.132028 0.42072,-0.287196 1.01899,-0.711617 1.32965,-0.943256 0.31107,-0.231624 0.6669,-0.515091 0.79071,-0.629964 0.16859,-0.156277 0.24655,-0.262952 0.30734,-0.421094 0.0582,-0.151803 0.0865,-0.325615 0.0996,-0.609826 0.0127,-0.278992 -0.001,-0.513226 -0.0459,-0.783263 -0.0354,-0.212224 -0.12234,-0.587071 -0.19283,-0.83324 -0.0705,-0.246168 -0.22155,-0.68257 -0.33494,-0.969753 -0.11376,-0.287197 -0.35843,-0.829148 -0.54381,-1.204344 -0.18537,-0.375223 -0.54082,-1.021945 -0.78997,-1.437457 -0.24952,-0.415131 -0.63332,-1.014499 -0.85336,-1.331534 -0.22006,-0.31741 -0.58894,-0.822774 -0.81982,-1.123441 -0.23125,-0.300251 -0.64638,-0.811974 -0.92354,-1.137193 -0.27675,-0.324871 -0.80567,-0.894755 -1.17489,-1.265926 -0.36925,-0.371493 -0.89811,-0.875033 -1.1753,-1.11935 -0.27675,-0.244303 -0.68814,-0.597147 -0.91381,-0.784 -0.22527,-0.186867 -0.64339,-0.519566 -0.92836,-0.738854 -0.28533,-0.219315 -0.75529,-0.563948 -1.04435,-0.765754 -0.28944,-0.20141 -0.71276,-0.484132 -0.94138,-0.628099 -0.22864,-0.143974 -0.6419,-0.388278 -0.9179,-0.54269 -0.276,-0.154412 -0.63444,-0.342399 -0.79667,-0.418115 -0.16188,-0.07534 -0.46213,-0.20402 -0.66727,-0.286452 -0.20514,-0.08206 -0.52739,-0.188356 -0.71577,-0.236468 -0.18874,-0.04774 -0.46586,-0.09586 -0.61542,-0.106676 z m -55.155757,4.480483 c -0.112639,-0.01007 -0.313305,-0.0041 -0.445338,0.01343 -0.132033,0.01753 -0.358808,0.06751 -0.503526,0.111519 -0.144719,0.04364 -0.401701,0.145463 -0.570663,0.22603 -0.168963,0.08057 -0.504647,0.278616 -0.745965,0.440119 -0.241318,0.161503 -0.648244,0.469213 -0.904884,0.684047 -0.256238,0.21484 -0.724699,0.648989 -1.040594,0.964521 -0.315914,0.315546 -0.81942,0.848535 -1.118544,1.184621 -0.299506,0.335684 -0.767565,0.87946 -1.040258,1.208101 -0.272653,0.328224 -0.685925,0.842161 -0.917899,1.14209 -0.232369,0.299875 -0.572903,0.754551 -0.756765,1.011144 -0.18425,0.256238 -0.485997,0.692634 -0.670248,0.969754 -0.184626,0.277127 -0.466972,0.721748 -0.626985,0.988403 -0.160383,0.266682 -0.421846,0.73664 -0.581477,1.04435 -0.159638,0.307711 -0.358808,0.723224 -0.443104,0.923131 -0.0843,0.199922 -0.197305,0.485253 -0.251019,0.63407 -0.05371,0.148817 -0.129423,0.379698 -0.168586,0.512851 -0.03879,0.133153 -0.104811,0.4017 -0.146953,0.596771 -0.04177,0.194696 -0.08504,0.563948 -0.09623,0.820561 -0.0153,0.349483 -0.0045,0.54866 0.04215,0.795942 0.03431,0.180896 0.09623,0.415875 0.137628,0.522175 0.0414,0.105924 0.136883,0.256982 0.2126,0.335684 0.07534,0.0787 0.321885,0.265938 0.547539,0.415875 0.225654,0.149569 0.578122,0.368508 0.783263,0.486366 0.20514,0.11749 0.775816,0.423335 1.268139,0.679955 0.492337,0.256238 1.365142,0.692231 1.939508,0.969016 0.574393,0.276752 1.405392,0.671368 1.846262,0.876508 0.441239,0.205516 1.280416,0.591553 1.864911,0.857457 0.584838,0.265938 1.667218,0.752673 2.405736,1.080911 0.738518,0.3286 1.879804,0.832099 2.536279,1.119349 0.656449,0.287196 2.200595,0.954861 3.431437,1.483342 1.230841,0.528515 3.009953,1.288667 3.953612,1.688885 0.943658,0.400581 2.764898,1.167784 4.046857,1.704918 1.282294,0.53747 3.262857,1.363264 4.401191,1.835462 1.138736,0.472198 3.261716,1.350585 4.718225,1.951784 1.456509,0.600877 2.933479,1.21293 3.282244,1.359172 0.348739,0.146583 0.709807,0.280857 0.801912,0.298761 0.101825,0.01977 0.248033,0.01753 0.371493,-0.0052 0.111895,-0.02089 0.286821,-0.07982 0.388646,-0.131289 0.10145,-0.05147 0.273766,-0.177911 0.382307,-0.280481 0.108909,-0.102946 0.231994,-0.257734 0.273397,-0.343888 0.04177,-0.08616 0.07534,-0.22267 0.0746,-0.303605 -3.73e-4,-0.08057 -0.02164,-0.182017 -0.04662,-0.22491 -0.02462,-0.04327 -1.723567,-1.964865 -3.77497,-4.270647 -2.051402,-2.305379 -4.644031,-5.215781 -5.761435,-6.46715 -1.117068,-1.251704 -2.769796,-3.097966 -3.671997,-4.103207 -0.902268,-1.005174 -2.501195,-2.778718 -3.553394,-3.941671 -1.052199,-1.162618 -2.478453,-2.731693 -3.169208,-3.487384 -0.690755,-0.755289 -1.76905,-1.927232 -2.396411,-2.603765 -0.627731,-0.676936 -1.598592,-1.712767 -2.158065,-2.302025 -0.559473,-0.588936 -1.405794,-1.459126 -1.880944,-1.9328 -0.475552,-0.474063 -0.990617,-0.963381 -1.145445,-1.088021 -0.154412,-0.124204 -0.355453,-0.258102 -0.446089,-0.296897 -0.091,-0.03916 -0.234234,-0.08541 -0.318155,-0.103314 -0.0843,-0.0179 -0.245048,-0.04065 -0.358063,-0.05073 z m 70.886757,13.88621 c -0.0836,3.73e-4 -0.29466,0.04923 -0.46922,0.108165 -0.17418,0.0593 -0.50166,0.18798 -0.72731,0.286451 -0.22528,0.09846 -0.79594,0.374472 -1.26774,0.613181 -0.47182,0.238332 -1.17677,0.606471 -1.56653,0.817206 -0.38976,0.211111 -1.02757,0.560218 -1.41733,0.776152 -0.38976,0.215585 -1.15329,0.644139 -1.69707,0.951843 -0.54343,0.30771 -1.46657,0.836594 -2.0514,1.174894 -0.58446,0.338294 -1.63368,0.951105 -2.33114,1.361788 -0.69746,0.410656 -2.03161,1.202867 -2.96521,1.760127 -0.93319,0.557233 -2.33489,1.399824 -3.1144,1.872022 -0.77951,0.472198 -1.97942,1.202868 -2.66682,1.623613 -0.6874,0.420726 -1.84512,1.13384 -2.57358,1.584772 -0.72805,0.450933 -1.79407,1.113715 -2.36844,1.47328 -0.57439,0.359184 -1.63179,1.02758 -2.34979,1.485221 -0.71799,0.457648 -1.62435,1.040996 -2.0141,1.296851 -0.38977,0.255493 -0.91978,0.612436 -1.17751,0.793326 -0.2637,0.18537 -0.57962,0.446458 -0.72249,0.597891 -0.16709,0.177167 -0.29689,0.360673 -0.38119,0.538215 -0.0921,0.193575 -0.13427,0.342768 -0.14994,0.53038 -0.0164,0.196191 -0.005,0.314425 0.0447,0.474063 0.0433,0.137259 0.12495,0.276751 0.23088,0.394616 0.0947,0.105556 0.24915,0.222669 0.36775,0.278617 0.12645,0.05968 0.32077,0.110029 0.51099,0.132033 0.16896,0.01939 0.87765,0.07758 1.57511,0.129423 0.69747,0.05185 2.09058,0.152546 3.09576,0.223416 1.00517,0.0712 2.7172,0.18798 3.80441,0.25997 1.08722,0.0724 2.79066,0.18127 3.78577,0.24281 0.99512,0.0615 2.69856,0.16225 3.78577,0.22379 1.08722,0.0612 2.81602,0.1533 3.84172,0.20439 1.0257,0.0515 2.26775,0.11078 2.76007,0.13204 0.49234,0.0217 1.54975,0.0634 2.34979,0.0932 0.80003,0.0298 2.46168,0.0746 3.69252,0.0996 1.7549,0.0354 2.54004,0.0354 3.63658,0 0.76944,-0.025 1.61952,-0.0694 1.88953,-0.0985 0.27004,-0.0294 0.60199,-0.0794 0.73812,-0.11077 0.13613,-0.0317 0.29503,-0.0821 0.35358,-0.11227 0.0586,-0.0302 0.1768,-0.1436 0.26333,-0.25213 0.0865,-0.10817 0.22155,-0.30622 0.30062,-0.43938 0.0791,-0.13353 0.21932,-0.43079 0.31144,-0.661297 0.0925,-0.230129 0.22752,-0.63258 0.30063,-0.894017 0.0727,-0.261463 0.1738,-0.68626 0.22379,-0.943994 0.0504,-0.258102 0.12532,-0.728456 0.16634,-1.045491 0.0411,-0.317034 0.0951,-0.811638 0.11973,-1.098821 0.0246,-0.287197 0.0451,-1.051059 0.0451,-1.69707 0,-0.646379 -0.0205,-1.435243 -0.0459,-1.753016 -0.025,-0.318155 -0.0705,-0.796344 -0.10071,-1.063 -0.0302,-0.266682 -0.0891,-0.711282 -0.13129,-0.988403 -0.0418,-0.277127 -0.13465,-0.788092 -0.20589,-1.135717 -0.0716,-0.347618 -0.20364,-0.918301 -0.29353,-1.26814 -0.0903,-0.349858 -0.25774,-0.943658 -0.37187,-1.319592 -0.1145,-0.376337 -0.31069,-0.971968 -0.43639,-1.324087 -0.12532,-0.352093 -0.33568,-0.900725 -0.4666,-1.218565 -0.13129,-0.318156 -0.41289,-0.930578 -0.62586,-1.361386 -0.21297,-0.430794 -0.49905,-0.967875 -0.63594,-1.193543 -0.13651,-0.225654 -0.36254,-0.569918 -0.50166,-0.764613 -0.13949,-0.195072 -0.38268,-0.502037 -0.54082,-0.682907 -0.15815,-0.180521 -0.41438,-0.428929 -0.56917,-0.552014 -0.15442,-0.122708 -0.37559,-0.271156 -0.49085,-0.329344 -0.11525,-0.05819 -0.30062,-0.132785 -0.41214,-0.165977 -0.11152,-0.03282 -0.27079,-0.05968 -0.35434,-0.0593 z M 57.225695,84.58098 c -0.03058,-0.01156 -0.194326,0.02723 -0.363657,0.08616 -0.168963,0.05893 -0.429306,0.179776 -0.578123,0.267802 -0.158517,0.09437 -0.410656,0.300626 -0.609826,0.498676 -0.186491,0.185747 -0.422959,0.463618 -0.52516,0.617661 -0.10257,0.153668 -0.246544,0.389022 -0.32002,0.522175 -0.07385,0.133154 -0.202531,0.398716 -0.286452,0.590057 -0.08355,0.191341 -0.226775,0.568798 -0.318155,0.83921 -0.09138,0.270412 -0.218195,0.684785 -0.281978,0.920515 -0.06378,0.235723 -0.172692,0.688877 -0.242062,1.007052 -0.06938,0.31778 -0.177167,0.876508 -0.239454,1.241306 -0.06266,0.364403 -0.154787,0.968614 -0.20514,1.342737 -0.05035,0.373726 -0.159638,1.292021 -0.242814,2.040937 -0.08318,0.748581 -0.177542,1.671712 -0.209246,2.051402 -0.03208,0.379322 -0.06788,1.252845 -0.07981,1.940246 -0.01418,0.830288 -0.0064,1.438195 0.0235,1.808964 0.02462,0.30734 0.07646,0.74335 0.115249,0.96902 0.03842,0.22565 0.113759,0.56134 0.167097,0.74596 0.05371,0.18463 0.157397,0.45839 0.231249,0.60796 0.07385,0.14994 0.209615,0.35658 0.30174,0.45915 0.09213,0.10257 0.251019,0.22863 0.353213,0.28048 0.151433,0.0768 0.258478,0.0977 0.582228,0.1145 0.217819,0.0112 0.950367,0.001 1.627303,-0.0224 0.676936,-0.0239 1.894025,-0.0757 2.704121,-0.11563 0.810499,-0.0399 1.624351,-0.082 1.808964,-0.0932 0.184626,-0.0115 1.200252,-0.0709 2.256543,-0.13241 1.056626,-0.0612 2.449742,-0.14434 3.095752,-0.18537 0.64638,-0.0406 1.426657,-0.0906 1.734368,-0.11115 0.30771,-0.0205 1.331533,-0.088 2.275192,-0.14994 0.943658,-0.0619 2.571699,-0.17157 3.617927,-0.24318 1.046229,-0.072 2.263251,-0.15554 2.704122,-0.18613 0.441239,-0.0306 2.203547,-0.15627 3.916313,-0.27936 1.713103,-0.12308 3.433315,-0.24841 3.823068,-0.27824 0.389767,-0.0299 1.1704,-0.0888 1.734368,-0.13129 0.564323,-0.0421 1.789577,-0.1354 2.72277,-0.20738 0.933596,-0.0716 2.511258,-0.19731 3.506034,-0.27936 0.995111,-0.0817 2.144245,-0.18239 2.553788,-0.22342 0.596027,-0.06 0.783262,-0.0929 0.938023,-0.16337 0.105924,-0.0488 0.263697,-0.15926 0.349859,-0.24542 0.08616,-0.0862 0.20141,-0.25176 0.255493,-0.36739 0.08922,-0.189173 0.09928,-0.253573 0.09928,-0.639301 V 99.05031 l -0.108004,-0.233449 c -0.06172,-0.132825 -0.174416,-0.294495 -0.264308,-0.377679 -0.08587,-0.07849 -0.222045,-0.165024 -0.301874,-0.191186 -0.08117,-0.02616 -0.616494,-0.211312 -1.190726,-0.411891 -0.574231,-0.200579 -2.084944,-0.733889 -3.35684,-1.185359 -1.271896,-0.450799 -4.687099,-1.667687 -7.590457,-2.70278 -2.902687,-1.035763 -8.382709,-2.994591 -12.177602,-4.353025 -3.795564,-1.357762 -7.789694,-2.787975 -8.877112,-3.176386 -1.087418,-0.389753 -2.673263,-0.957277 -3.524548,-1.261834 -0.851285,-0.305228 -1.5731,-0.564169 -1.603958,-0.575573 z m 53.377385,16.87946 c -0.23759,0.003 -0.54157,0.0182 -0.67472,0.0351 -0.13316,0.0168 -0.35993,0.0582 -0.50353,0.0918 -0.1436,0.0335 -0.39909,0.12718 -0.56731,0.20775 -0.19618,0.0936 -0.37261,0.2126 -0.49084,0.33046 -0.10145,0.10145 -0.23125,0.28161 -0.28832,0.40059 -0.0891,0.18462 -0.10667,0.27414 -0.11935,0.61131 -0.0123,0.32152 -3.8e-4,0.44908 0.0645,0.68593 0.044,0.16038 0.13801,0.41699 0.20887,0.57066 0.0712,0.15367 0.22043,0.4155 0.33158,0.58185 0.11115,0.16672 0.30846,0.40954 0.43826,0.5397 0.1298,0.13017 0.555,0.47556 0.9448,0.76723 0.38976,0.29205 1.38862,1.02611 2.21924,1.63106 0.83103,0.60536 1.9656,1.42928 2.52212,1.83057 0.55612,0.4017 1.61168,1.16107 2.3453,1.68774 0.73402,0.52665 2.10809,1.50682 3.05436,2.1786 0.94587,0.67177 2.42479,1.71645 3.28634,2.32107 0.86161,0.60461 2.11218,1.47811 2.77871,1.94065 0.6669,0.4625 1.71572,1.18462 2.33114,1.60456 0.61542,0.42035 1.64783,1.11673 2.29384,1.54788 0.64638,0.43079 1.55271,1.02684 2.01411,1.32409 0.46175,0.29726 1.09956,0.70007 1.41733,0.89515 0.31816,0.1947 0.80976,0.48488 1.09285,0.64414 0.28347,0.15927 0.65048,0.348 0.81647,0.41998 0.27079,0.11749 0.34501,0.13241 0.73443,0.15032 0.23833,0.0105 0.61057,0 0.82727,-0.0235 0.2167,-0.0235 0.55201,-0.085 0.74482,-0.13652 0.19283,-0.0515 0.50614,-0.16746 0.69632,-0.25772 0.19022,-0.0899 0.47593,-0.25289 0.63519,-0.3618 0.15964,-0.10891 0.48302,-0.39126 0.71873,-0.62735 0.2361,-0.2361 0.52964,-0.56806 0.65272,-0.73812 0.12309,-0.1697 0.33717,-0.4886 0.47555,-0.70866 0.13838,-0.21969 0.36739,-0.62661 0.50912,-0.90335 0.14174,-0.27712 0.35881,-0.73851 0.48227,-1.0257 0.12383,-0.28719 0.32823,-0.79929 0.45466,-1.13759 0.12645,-0.33867 0.40395,-1.13572 0.61655,-1.77167 0.21297,-0.63593 0.49569,-1.53553 0.62885,-1.99921 0.13315,-0.46362 0.32598,-1.17677 0.42781,-1.58517 0.10219,-0.40804 0.24504,-1.01974 0.31778,-1.35918 0.0727,-0.33904 0.18276,-0.92648 0.2443,-1.30543 0.0619,-0.37858 0.13838,-0.94031 0.17083,-1.24802 0.0321,-0.30771 0.0578,-0.87839 0.0578,-1.26814 -3.7e-4,-0.38977 -0.0183,-0.83364 -0.0399,-0.98652 -0.0217,-0.15293 -0.0641,-0.38343 -0.094,-0.51211 -0.0298,-0.12905 -0.1048,-0.34613 -0.16709,-0.48338 -0.0623,-0.13689 -0.1712,-0.32002 -0.24244,-0.40693 -0.0709,-0.0869 -0.20887,-0.21073 -0.30622,-0.27526 -0.0974,-0.0641 -0.37895,-0.18164 -0.62549,-0.26034 -0.24691,-0.0791 -0.76757,-0.21148 -1.15739,-0.29466 -0.38976,-0.0835 -1.1115,-0.21894 -1.60382,-0.30174 -0.49234,-0.0824 -1.36514,-0.21707 -1.93951,-0.29913 -0.57439,-0.082 -1.7239,-0.23311 -2.55493,-0.33606 -0.83062,-0.10294 -2.11479,-0.25437 -2.85331,-0.33605 -0.73852,-0.0817 -2.16517,-0.23237 -3.17035,-0.33494 -1.00517,-0.1022 -2.4486,-0.24542 -3.20765,-0.31778 -0.75904,-0.0724 -2.21924,-0.207 -3.24494,-0.29951 -1.0257,-0.0921 -2.44377,-0.21782 -3.1517,-0.27899 -0.70753,-0.0615 -1.89959,-0.16225 -2.64818,-0.22416 -0.74858,-0.0615 -2.192,-0.1794 -3.20764,-0.26146 -1.01524,-0.0821 -2.39004,-0.19172 -3.0551,-0.24318 -0.66466,-0.0515 -1.40318,-0.0914 -1.64113,-0.0888 z m -15.443211,0.81982 c -0.07273,0.002 -0.534854,0.0526 -1.027177,0.11152 -0.492337,0.059 -1.960773,0.23424 -3.263595,0.38939 -1.302486,0.15517 -3.719358,0.44908 -5.370945,0.65347 -1.651184,0.20439 -3.791337,0.47257 -4.755523,0.59602 -0.964186,0.12346 -2.525077,0.32525 -3.468735,0.4487 -0.943659,0.12309 -2.63885,0.34874 -3.767121,0.50129 -1.128271,0.15255 -2.77315,0.37858 -3.655226,0.50241 -0.882076,0.12383 -2.124121,0.30137 -2.760069,0.39424 -0.635934,0.0932 -1.810842,0.27004 -2.610875,0.39312 -0.800034,0.12309 -2.058849,0.32487 -2.797367,0.44833 -0.738519,0.12383 -1.703443,0.29204 -2.144648,0.37447 -0.440864,0.0824 -1.152489,0.22491 -1.58068,0.31704 -0.428554,0.0918 -0.978676,0.22416 -1.222993,0.29465 -0.243928,0.0701 -0.52777,0.16374 -0.630716,0.20813 -0.105555,0.0455 -0.242438,0.14509 -0.314425,0.22938 -0.07012,0.0821 -0.177542,0.26892 -0.238333,0.41513 -0.0608,0.14658 -0.145087,0.43415 -0.186867,0.63892 -0.04177,0.20514 -0.09511,0.58222 -0.118978,0.83847 -0.02723,0.29056 -0.03469,0.75938 -0.02014,1.24875 0.01231,0.4308 0.04811,1.01376 0.0787,1.29571 0.03096,0.28198 0.09101,0.74375 0.133898,1.0257 0.04252,0.28236 0.127934,0.76502 0.189476,1.07273 0.06117,0.30771 0.178287,0.82801 0.259968,1.15625 0.08168,0.32822 0.225278,0.85671 0.319275,1.17489 0.09399,0.31778 0.279361,0.88026 0.412521,1.24949 0.133154,0.36925 0.367012,0.96492 0.52031,1.32409 0.152923,0.3588 0.387526,0.85973 0.520686,1.11297 0.133529,0.25289 0.344633,0.63034 0.469582,0.83921 0.124949,0.2085 0.311065,0.50465 0.413635,0.65869 0.102946,0.15367 0.324119,0.46511 0.491961,0.6919 0.167842,0.2264 0.479658,0.62064 0.692969,0.87577 0.21372,0.25475 0.615045,0.69075 0.891803,0.96861 0.277127,0.27787 0.687401,0.66279 0.911593,0.85491 0.224534,0.19246 0.593786,0.48786 0.820561,0.65645 0.227143,0.16858 0.555368,0.39797 0.729529,0.51024 0.174557,0.11189 0.501661,0.30584 0.727315,0.43042 0.225654,0.12458 0.571783,0.29465 0.769108,0.37821 0.197305,0.0832 0.501286,0.19245 0.675461,0.2428 0.173812,0.0504 0.431914,0.10295 0.573272,0.11675 0.208494,0.0205 0.293911,0.0112 0.448699,-0.0478 0.10518,-0.0403 0.399091,-0.19582 0.652719,-0.34576 0.253628,-0.14994 0.746702,-0.46511 1.095467,-0.70082 0.348739,-0.23535 0.860811,-0.58856 1.137596,-0.78514 0.277128,-0.19619 0.83921,-0.60162 1.249491,-0.90072 0.41028,-0.29951 1.081648,-0.7948 1.491929,-1.1007 0.41028,-0.30622 1.308389,-0.98317 1.995455,-1.50501 0.687401,-0.5218 1.467712,-1.11747 1.734367,-1.32335 0.266683,-0.20626 1.080509,-0.8366 1.808964,-1.40056 0.728456,-0.56432 2.097623,-1.63294 3.043562,-2.37515 0.945537,-0.74187 2.405736,-1.89215 3.244946,-2.55607 0.838808,-0.66391 2.860023,-2.27371 4.490679,-3.57727 1.63106,-1.30397 3.762627,-3.01485 4.736875,-3.80254 0.974584,-0.78736 2.166249,-1.75416 2.648577,-2.14841 0.606471,-0.49569 0.902268,-0.7624 0.960429,-0.86571 0.04625,-0.082 0.100705,-0.23722 0.121219,-0.34464 0.02424,-0.12793 0.02424,-0.27339 7.38e-4,-0.42072 -0.02014,-0.1242 -0.09325,-0.34426 -0.162623,-0.48935 -0.06975,-0.14509 -0.195816,-0.34165 -0.280481,-0.43676 -0.0843,-0.0951 -0.233859,-0.22417 -0.331579,-0.2872 -0.0981,-0.0627 -0.278247,-0.14024 -0.400211,-0.17194 -0.121964,-0.0317 -0.281226,-0.0559 -0.353958,-0.0537 z m 3.527634,3.14721 c -0.202155,-0.0101 -0.446459,0.004 -0.602367,0.0335 -0.144343,0.0276 -0.354333,0.0944 -0.466228,0.14845 -0.11227,0.0541 -0.422214,0.27825 -0.688876,0.4983 -0.266683,0.22006 -1.382651,1.138 -2.480332,2.03987 -1.097346,0.90227 -2.574316,2.11889 -3.282244,2.70372 -0.707526,0.5852 -2.342342,1.9436 -3.632082,3.01894 -1.290143,1.07534 -3.043898,2.54373 -3.897665,3.26319 -0.853767,0.71987 -2.17336,1.83694 -2.932405,2.48255 -0.759046,0.646 -1.858203,1.58558 -2.443034,2.0887 -0.584462,0.50278 -1.524397,1.31697 -2.088701,1.80937 -0.563947,0.49233 -1.470328,1.2894 -2.014104,1.77166 -0.543434,0.48226 -1.348706,1.20475 -1.789577,1.6057 -0.440494,0.40096 -1.061523,0.97123 -1.380034,1.26774 -0.318155,0.29652 -0.93695,0.89254 -1.374802,1.32409 -0.437509,0.43191 -0.959289,0.96975 -1.158861,1.19542 -0.199921,0.22565 -0.431539,0.5024 -0.514716,0.61542 -0.08318,0.11264 -0.18052,0.26295 -0.216329,0.33382 -0.05222,0.10294 -0.06117,0.18873 -0.04513,0.42893 0.01119,0.16933 0.06341,0.43825 0.120099,0.61728 0.0552,0.17418 0.181272,0.48488 0.280481,0.69002 0.09922,0.20514 0.274887,0.52255 0.390511,0.70531 0.115625,0.18276 0.328969,0.4901 0.474433,0.68257 0.145463,0.19283 0.391631,0.49644 0.546794,0.67473 0.155532,0.17865 0.450564,0.4983 0.656449,0.71088 0.205885,0.2126 0.584093,0.57439 0.84035,0.80412 0.256614,0.22939 0.613556,0.53934 0.793326,0.68814 0.179776,0.14882 0.565812,0.45019 0.857859,0.66988 0.292046,0.21931 0.782525,0.56768 1.090235,0.77427 0.30771,0.20664 0.794466,0.52442 1.081649,0.70646 0.287196,0.18164 0.740396,0.48077 1.007052,0.66427 0.266682,0.18352 1.005173,0.72356 1.641122,1.20025 0.635934,0.47705 1.305437,0.96379 1.487434,1.08206 0.182017,0.11823 0.484132,0.29279 0.671368,0.38827 0.187236,0.0951 0.480027,0.21894 0.650854,0.27563 0.170827,0.0563 0.481523,0.12868 0.690017,0.16076 0.268923,0.0414 0.52031,0.0522 0.864232,0.0377 0.266683,-0.0112 0.669503,-0.0545 0.895158,-0.0962 0.225654,-0.0418 0.565443,-0.11786 0.754886,-0.16897 0.189477,-0.0511 0.424455,-0.13427 0.522175,-0.18425 0.09772,-0.05 0.272277,-0.17231 0.388278,-0.27115 0.116,-0.0992 0.300626,-0.28124 0.41028,-0.40469 0.109654,-0.12383 0.284956,-0.33345 0.389022,-0.46623 0.104059,-0.13315 0.298761,-0.40133 0.432284,-0.59603 0.133153,-0.19507 0.361417,-0.54753 0.50688,-0.78326 0.145463,-0.2361 0.434149,-0.73107 0.641905,-1.1003 0.20775,-0.36925 0.660554,-1.23379 1.005912,-1.92085 0.345384,-0.68741 0.804528,-1.62731 1.020133,-2.0887 0.215209,-0.46176 0.593042,-1.29236 0.83921,-1.84627 0.246168,-0.55388 0.585207,-1.32596 0.753411,-1.71572 0.168217,-0.38976 0.537094,-1.26257 0.81942,-1.9395 0.282347,-0.67694 0.799698,-1.94434 1.149537,-2.81602 0.349859,-0.87201 0.815328,-2.04691 1.034623,-2.61087 0.219315,-0.56433 0.549404,-1.42029 0.733689,-1.90221 0.183881,-0.48227 0.536349,-1.41358 0.782524,-2.07006 0.246544,-0.65644 0.682907,-1.83137 0.969754,-2.61087 0.286821,-0.77951 0.823915,-2.26513 1.194281,-3.30089 0.369997,-1.03617 0.928699,-2.62208 1.241642,-3.52469 0.31293,-0.9026 0.787757,-2.3043 1.055151,-3.1144 0.267058,-0.8105 0.507256,-1.56055 0.533364,-1.66688 0.0377,-0.15255 0.03804,-0.22565 0.0027,-0.34278 -0.02838,-0.0955 -0.103691,-0.20103 -0.210366,-0.29465 -0.104811,-0.0925 -0.257358,-0.17605 -0.414386,-0.22752 -0.151803,-0.05 -0.380442,-0.088 -0.588568,-0.0981 z m 7.977527,0.36925 c -0.22267,-0.0112 -0.35209,0.003 -0.5095,0.0548 -0.11637,0.0384 -0.27115,0.10667 -0.34389,0.1518 -0.0731,0.0451 -0.19991,0.15814 -0.28197,0.25139 -0.082,0.0929 -0.18612,0.26407 -0.23162,0.37969 -0.0653,0.16561 -0.0828,0.28682 -0.0828,0.56507 l 3.7e-4,0.35434 0.60125,2.68547 c 0.33046,1.47703 0.74556,3.3233 0.92239,4.1028 0.17643,0.77951 0.51249,2.24796 0.74637,3.2636 0.23349,1.01523 0.58409,2.52581 0.77877,3.35684 0.19469,0.83102 0.53038,2.24909 0.74596,3.1517 0.21559,0.9026 0.58633,2.4382 0.82432,3.41279 0.23759,0.97424 0.60087,2.43444 0.80674,3.24494 0.20626,0.8101 0.50912,1.98499 0.67325,2.61088 0.16411,0.62549 0.42408,1.59899 0.57812,2.16329 0.15404,0.56395 0.38902,1.40318 0.5218,1.86491 0.13315,0.46138 0.3342,1.14136 0.44684,1.51058 0.11301,0.36926 0.32411,1.02383 0.46958,1.45463 0.14546,0.4308 0.35284,0.99773 0.46137,1.26029 0.10817,0.26221 0.25662,0.58335 0.32935,0.7135 0.0727,0.13018 0.18948,0.28683 0.2596,0.34837 0.0701,0.0615 0.22229,0.15665 0.33829,0.21148 0.116,0.0548 0.33904,0.13278 0.49569,0.17269 0.15629,0.0399 0.47034,0.0832 0.69713,0.0955 0.23199,0.0131 0.60087,0.004 0.84183,-0.0205 0.23572,-0.0242 0.64041,-0.085 0.89925,-0.13539 0.25847,-0.0504 0.73697,-0.16821 1.063,-0.26146 0.32598,-0.0936 0.88657,-0.27973 1.24539,-0.41401 0.35919,-0.13465 0.90449,-0.35433 1.2122,-0.48898 0.30771,-0.13464 0.94553,-0.44049 1.41733,-0.67955 0.47182,-0.23909 1.08426,-0.56544 1.36138,-0.7251 0.27713,-0.15964 0.69673,-0.40842 0.93246,-0.55314 0.23572,-0.14472 0.81499,-0.51844 1.28679,-0.83062 0.47182,-0.31219 1.16,-0.79259 1.52923,-1.06823 0.36925,-0.27563 0.88133,-0.67586 1.13759,-0.88959 0.25661,-0.21372 0.64153,-0.55687 0.85565,-0.7624 0.21446,-0.20589 0.52665,-0.51882 0.69411,-0.69525 0.16746,-0.17679 0.43079,-0.47891 0.5852,-0.67137 0.15405,-0.19283 0.38493,-0.50986 0.51248,-0.70457 0.12794,-0.19507 0.31592,-0.52069 0.41811,-0.72356 0.1022,-0.20328 0.25065,-0.56395 0.33009,-0.80191 0.0798,-0.23797 0.17233,-0.5923 0.20589,-0.78702 0.0395,-0.22827 0.056,-0.48712 0.0466,-0.72732 l -0.0142,-0.37298 -0.14248,-0.29391 c -0.0779,-0.16151 -0.29018,-0.51397 -0.47145,-0.78327 -0.18126,-0.26929 -0.51732,-0.72436 -0.7471,-1.01154 -0.22976,-0.2872 -0.61244,-0.74892 -0.85042,-1.0257 -0.23833,-0.27713 -0.68478,-0.78031 -0.99289,-1.11855 -0.30808,-0.3383 -0.81983,-0.8922 -1.1372,-1.23084 -0.31741,-0.33867 -1.44195,-1.48596 -2.49898,-2.54969 -1.05703,-1.06374 -2.55117,-2.54185 -3.32068,-3.28446 -0.76911,-0.74261 -1.76831,-1.7019 -2.22039,-2.13157 -0.45167,-0.42967 -1.45013,-1.36883 -2.21924,-2.08682 -0.76871,-0.71833 -1.83392,-1.70901 -2.3673,-2.20133 -0.53336,-0.49271 -1.44792,-1.33194 -2.03275,-1.86532 -0.58484,-0.53336 -1.49079,-1.35615 -2.0141,-1.82875 -0.52292,-0.4722 -1.40466,-1.2607 -1.9593,-1.75228 -0.55425,-0.49122 -1.16336,-1.02758 -1.3532,-1.19167 -0.18985,-0.16411 -0.44907,-0.36179 -0.57626,-0.43937 -0.12718,-0.0776 -0.31554,-0.16747 -0.41849,-0.19991 -0.10293,-0.0325 -0.3215,-0.0657 -0.48562,-0.0735 z m -4.58171,1.03127 c -0.16635,6.7e-4 -0.34203,0.0284 -0.46661,0.0731 -0.10965,0.0392 -0.27227,0.13129 -0.36104,0.20402 -0.0959,0.0783 -0.19917,0.21223 -0.25326,0.32785 -0.0504,0.10742 -0.29353,0.82466 -0.54082,1.5941 -0.24729,0.76911 -0.687065,2.14538 -0.9772,3.05845 -0.290182,0.91267 -0.910855,2.88505 -1.379632,4.38254 -0.468837,1.4975 -1.229701,3.94805 -1.691099,5.44555 -0.461377,1.49749 -1.065951,3.46987 -1.343138,4.38254 -0.277128,0.91266 -0.721748,2.3897 -0.988001,3.28224 -0.266306,0.89221 -0.685925,2.31061 -0.932455,3.1517 -0.246169,0.84109 -0.582228,1.99921 -0.746367,2.57358 -0.163737,0.57439 -0.460258,1.6318 -0.658314,2.34979 -0.198056,0.71799 -0.492337,1.82801 -0.654208,2.46691 -0.161503,0.63892 -0.354709,1.45275 -0.42893,1.80897 -0.08541,0.4073 -0.142853,0.80117 -0.155532,1.06152 -0.01566,0.31405 -0.0048,0.48339 0.04327,0.70082 0.03506,0.15777 0.132785,0.42408 0.217075,0.59229 0.118234,0.23648 0.225278,0.37821 0.472567,0.62549 0.175677,0.17606 0.414386,0.38157 0.530379,0.45728 0.116001,0.0753 0.334195,0.20365 0.484877,0.28459 0.150682,0.0809 0.405431,0.19955 0.565813,0.2637 0.160382,0.0641 0.479282,0.17418 0.708666,0.24468 0.229384,0.0705 0.64377,0.17791 0.920515,0.2387 0.277127,0.0604 0.797417,0.15255 1.156245,0.20402 0.359183,0.0515 0.94661,0.11936 1.305438,0.15032 0.359183,0.0309 1.157721,0.0735 1.77502,0.0944 0.750459,0.0254 1.389761,0.0254 1.930581,6.7e-4 0.44497,-0.0205 1.03912,-0.0627 1.32114,-0.094 0.2816,-0.0313 0.67177,-0.0821 0.86644,-0.11264 0.19507,-0.031 0.53076,-0.0906 0.74597,-0.13315 0.21558,-0.0421 0.62661,-0.1354 0.9138,-0.20701 0.2872,-0.0712 0.77877,-0.21372 1.09245,-0.31666 0.31368,-0.10257 0.77508,-0.27078 1.0253,-0.37335 0.2499,-0.10295 0.66466,-0.29428 0.92126,-0.4252 0.25698,-0.13092 0.62661,-0.34091 0.82129,-0.46735 0.19508,-0.12607 0.49309,-0.34613 0.66279,-0.48861 0.16934,-0.14248 0.39462,-0.36291 0.50017,-0.48973 0.10593,-0.12718 0.25177,-0.35619 0.3245,-0.50912 l 0.13203,-0.27824 -0.006,-0.36738 c -0.003,-0.20216 -0.0414,-0.71464 -0.0843,-1.13908 -0.0429,-0.42445 -0.15329,-1.4013 -0.24542,-2.1704 -0.0921,-0.76945 -0.23423,-1.91898 -0.31592,-2.55493 -0.0817,-0.63594 -0.23274,-1.79407 -0.33493,-2.57358 -0.10257,-0.77951 -0.31294,-2.34905 -0.46735,-3.48738 -0.15442,-1.13874 -0.37224,-2.73136 -0.48413,-3.53924 l -0.20402,-1.46919 -0.87839,-3.92041 c -0.48339,-2.15618 -1.22038,-5.43098 -1.63851,-7.27718 -0.41774,-1.84626 -0.89663,-3.94428 -1.06414,-4.66227 -0.16709,-0.718 -0.33755,-1.40613 -0.3782,-1.52923 -0.0406,-0.12309 -0.13017,-0.32487 -0.19842,-0.44833 -0.0686,-0.12345 -0.19321,-0.30211 -0.27713,-0.39722 -0.0836,-0.0951 -0.24691,-0.23572 -0.36254,-0.31256 -0.116,-0.0768 -0.31069,-0.17083 -0.43229,-0.20887 -0.13203,-0.0411 -0.33009,-0.0686 -0.48897,-0.0675 z"
     id="icon" /></svg>