<?xml version="1.0" encoding="UTF-8" standalone="no"?>
<svg
   xmlns:dc="http://purl.org/dc/elements/1.1/"
   xmlns:cc="http://creativecommons.org/ns#"
   xmlns:rdf="http://www.w3.org/1999/02/22-rdf-syntax-ns#"
   xmlns:svg="http://www.w3.org/2000/svg"
   xmlns="http://www.w3.org/2000/svg"
   id="svg11"
   xml:space="preserve"
   enable-background="new 0 0 200 200"
   viewBox="0 0 200 200"
   y="0px"
   x="0px"
   version="1.1"><metadata
     id="metadata15"><rdf:RDF><cc:Work
         rdf:about=""><dc:format>image/svg+xml</dc:format><dc:type
           rdf:resource="http://purl.org/dc/dcmitype/StillImage" /></cc:Work></rdf:RDF></metadata><defs
     id="defs275421" /><linearGradient
     spreadMethod="pad"
     y2="30%"
     x2="-10%"
     y1="120%"
     x1="30%"
     id="3d_gradient2-logo-8DBD3F5A310F4E9E8FD88A2B5D041965"><stop
       id="stop275398"
       stop-opacity="1"
       stop-color="#ffffff"
       offset="0%" /><stop
       id="stop275400"
       stop-opacity="1"
       stop-color="#000000"
       offset="100%" /></linearGradient><linearGradient
     gradientTransform="rotate(-30)"
     spreadMethod="pad"
     y2="30%"
     x2="-10%"
     y1="120%"
     x1="30%"
     id="3d_gradient3-logo-8DBD3F5A310F4E9E8FD88A2B5D041965"><stop
       id="stop275403"
       stop-opacity="1"
       stop-color="#ffffff"
       offset="0%" /><stop
       id="stop275405"
       stop-opacity="1"
       stop-color="#cccccc"
       offset="50%" /><stop
       id="stop275407"
       stop-opacity="1"
       stop-color="#000000"
       offset="100%" /></linearGradient><path
     style="fill:#853d46;stroke-width:0.60176855"
     d="m 99.85018,40.023848 c -0.938759,0.0027 -1.977411,0.01639 -2.308986,0.03078 -0.330972,0.01405 -0.880387,0.04249 -1.220988,0.06323 -0.34027,0.02041 -0.972639,0.06692 -1.40525,0.103384 -0.43228,0.03614 -1.124886,0.103721 -1.539083,0.149895 -0.413879,0.04617 -1.03757,0.12246 -1.385512,0.169301 -0.347967,0.04651 -0.965297,0.136843 -1.371792,0.200082 -0.406519,0.06357 -1.070305,0.175994 -1.475175,0.250601 -0.404846,0.07428 -1.059654,0.20276 -1.455438,0.285732 -0.395476,0.08298 -1.073013,0.234545 -1.505625,0.336924 -0.43228,0.102385 -1.177721,0.290419 -1.656187,0.417892 -0.478454,0.12781 -1.223576,0.337929 -1.656187,0.467081 -0.432281,0.129151 -1.132589,0.348303 -1.555813,0.487155 -0.423248,0.138515 -1.123201,0.379752 -1.555812,0.536002 -0.432281,0.155918 -1.117485,0.412542 -1.522354,0.569796 -0.404846,0.157254 -1.08541,0.434291 -1.512305,0.615309 -0.426931,0.181343 -1.104486,0.478454 -1.505625,0.660802 -0.401163,0.182348 -1.052914,0.488491 -1.448758,0.680179 -0.395476,0.191717 -1.042925,0.518941 -1.438708,0.727357 -0.395476,0.20811 -0.937495,0.498866 -1.2045,0.646059 -0.266662,0.147217 -0.695584,0.388454 -0.952539,0.536001 -0.257293,0.147554 -0.754137,0.44165 -1.104125,0.6531 -0.350308,0.211455 -0.862575,0.527973 -1.138607,0.703287 -0.276031,0.174988 -0.772911,0.499197 -1.104125,0.719715 -0.331237,0.220825 -0.850539,0.574815 -1.154312,0.786933 -0.303466,0.211792 -0.835134,0.593548 -1.181091,0.848192 -0.345957,0.254284 -0.903014,0.675847 -1.237959,0.936834 -0.33492,0.260975 -0.849817,0.670851 -1.144262,0.910716 -0.294434,0.239895 -0.8438,0.701963 -1.22123,1.026196 -0.377074,0.324546 -0.889293,0.774898 -1.137583,1.00038 -0.248259,0.225844 -0.840129,0.781276 -1.314924,1.234288 -0.474772,0.453023 -1.237297,1.215211 -1.693979,1.693677 -0.457043,0.478454 -1.054599,1.119169 -1.328284,1.423303 -0.27369,0.304471 -0.671814,0.756183 -0.88496,1.00375 -0.212798,0.247929 -0.604597,0.713638 -0.869917,1.035885 -0.265657,0.321868 -0.671814,0.826408 -0.902713,1.120854 -0.230863,0.294433 -0.578161,0.746133 -0.771889,1.00375 -0.193721,0.257629 -0.578161,0.784586 -0.854511,1.171041 -0.276699,0.386444 -0.759191,1.086373 -1.072352,1.555813 -0.313172,0.469084 -0.757506,1.154312 -0.987381,1.522354 -0.229527,0.368042 -0.59054,0.962589 -0.801977,1.321604 -0.211456,0.358672 -0.534997,0.923474 -0.718993,1.254687 -0.184021,0.331238 -0.497862,0.910717 -0.697631,1.288146 -0.199745,0.377074 -0.561432,1.092391 -0.803662,1.589271 -0.242573,0.496856 -0.54303,1.129219 -0.667842,1.40525 -0.124464,0.276031 -0.331238,0.742763 -0.459384,1.037208 -0.128147,0.294434 -0.353654,0.828756 -0.50087,1.187771 -0.147554,0.358672 -0.395814,0.991053 -0.5524,1.40525 -0.156249,0.413878 -0.402505,1.08872 -0.547044,1.499246 -0.144538,0.410533 -0.37507,1.103102 -0.512917,1.539083 -0.137516,0.435964 -0.310158,0.995747 -0.383435,1.244337 -0.07361,0.248597 -0.226181,0.790303 -0.339602,1.2045 -0.11309,0.413879 -0.286406,1.084026 -0.384434,1.488896 -0.09837,0.404846 -0.262648,1.121877 -0.365033,1.593604 -0.102716,0.471762 -0.261643,1.269731 -0.353322,1.773291 -0.09201,0.503548 -0.219489,1.254327 -0.283728,1.668584 -0.06391,0.413879 -0.161605,1.106472 -0.216811,1.539083 -0.05487,0.432281 -0.137847,1.162677 -0.184021,1.62273 -0.04617,0.460052 -0.10673,1.144924 -0.134501,1.522354 -0.02777,0.377074 -0.06658,0.970291 -0.08632,1.317933 -0.01974,0.34763 -0.04785,1.209495 -0.06257,1.915489 -0.01506,0.705995 -0.01506,1.860975 0,2.566905 0.01472,0.706 0.04283,1.56785 0.06257,1.91549 0.01974,0.34763 0.05855,0.94051 0.08632,1.31794 0.02777,0.37707 0.08833,1.0623 0.134501,1.52235 0.04617,0.46005 0.129152,1.19012 0.184021,1.62273 0.05521,0.43228 0.152903,1.12489 0.216811,1.53908 0.06424,0.41388 0.191717,1.16503 0.283728,1.66859 0.09167,0.50354 0.250269,1.3015 0.352648,1.77329 0.102048,0.47176 0.290751,1.28411 0.419565,1.80542 0.128478,0.52129 0.375071,1.43974 0.547712,2.04096 0.172647,0.60125 0.418566,1.41831 0.546707,1.81578 0.128146,0.39782 0.326887,0.99238 0.44165,1.3216 0.115094,0.32957 0.320532,0.89838 0.456706,1.26408 0.136511,0.3657 0.366369,0.9606 0.511245,1.3216 0.144538,0.36102 0.37507,0.91975 0.511912,1.24199 0.137179,0.32187 0.412542,0.94689 0.611938,1.38852 0.199746,0.44165 0.635709,1.34502 0.969269,2.0075 0.333578,0.66249 0.747457,1.46044 0.919442,1.77329 0.172311,0.31284 0.485814,0.86992 0.696608,1.23796 0.211124,0.36804 0.586856,1.00038 0.835435,1.40525 0.248596,0.40485 0.74511,1.18007 1.103764,1.72311 0.358672,0.54269 0.833449,1.24295 1.05496,1.55581 0.22183,0.31283 0.684873,0.9452 1.029205,1.40525 0.344284,0.46005 0.85752,1.12422 1.140231,1.47584 0.282723,0.35198 0.746795,0.91475 1.03083,1.25065 0.284058,0.33593 0.718692,0.83881 0.965958,1.11719 0.247255,0.27803 0.730066,0.80637 1.072653,1.17368 0.342948,0.36737 0.954886,0.99972 1.359756,1.40525 0.405183,0.40552 1.007421,0.99172 1.338333,1.30253 0.331238,0.31083 0.857882,0.79331 1.170681,1.07235 0.312835,0.27905 0.779591,0.68722 1.037208,0.90741 0.257629,0.22015 0.671815,0.56578 0.920104,0.76852 0.248597,0.20242 0.662487,0.53467 0.920105,0.73807 0.257629,0.20376 0.739453,0.57415 1.070666,0.8234 0.331238,0.24926 0.903375,0.66784 1.271417,0.92979 0.368041,0.26198 0.977994,0.68289 1.355062,0.93551 0.377411,0.25261 0.934487,0.61766 1.237959,0.811 0.303802,0.19373 0.802638,0.50355 1.108818,0.68891 0.306144,0.18502 0.855836,0.50923 1.221229,0.72002 0.365364,0.21078 1.018494,0.57414 1.450744,0.80769 0.432617,0.23354 1.237958,0.6481 1.790021,0.92113 0.552062,0.27335 1.33731,0.64774 1.74555,0.83278 0.407855,0.18469 1.047559,0.46641 1.421979,0.62566 0.374065,0.1596 0.996408,0.41421 1.382804,0.56645 0.386444,0.15223 1.011091,0.39012 1.388521,0.52898 0.377411,0.13851 1.002065,0.35934 1.38852,0.49083 0.386444,0.13115 1.018795,0.33692 1.40525,0.45704 0.386444,0.12011 1.07169,0.32287 1.522355,0.45102 0.451019,0.12781 1.301505,0.35198 1.890395,0.49786 0.588867,0.14588 1.42565,0.34094 1.859285,0.43328 0.433953,0.0927 1.164001,0.23689 1.622729,0.32087 0.458716,0.0836 1.11285,0.1964 1.45309,0.24993 0.340607,0.0539 0.890016,0.13551 1.221229,0.18168 0.331238,0.0462 0.926122,0.12179 1.321604,0.16763 0.395814,0.0459 1.050568,0.11342 1.455438,0.15056 0.404846,0.0368 1.090043,0.09 1.522354,0.11778 0.432617,0.0277 1.147633,0.0659 1.589271,0.0843 0.44165,0.0187 1.499908,0.0338 2.351771,0.0341 0.851861,0 1.920841,-0.0154 2.375541,-0.0341 0.4547,-0.0187 1.17303,-0.0569 1.59631,-0.0847 0.42325,-0.0278 1.10076,-0.081 1.50563,-0.11777 0.40484,-0.0368 0.99972,-0.097 1.3216,-0.13351 0.32221,-0.0361 0.92444,-0.11141 1.33833,-0.16695 0.41422,-0.0552 1.16605,-0.16863 1.67124,-0.25194 0.50522,-0.083 1.30186,-0.22651 1.77028,-0.31886 0.46842,-0.0923 1.1841,-0.24257 1.59095,-0.33458 0.40652,-0.0917 1.09306,-0.25629 1.52603,-0.36537 0.43262,-0.10941 1.0824,-0.28172 1.4437,-0.38276 0.36169,-0.10138 0.91072,-0.26064 1.22087,-0.35399 0.30982,-0.0934 0.95489,-0.29911 1.43335,-0.45671 0.47846,-0.15792 1.23128,-0.41856 1.67292,-0.57983 0.44165,-0.16093 1.12687,-0.42057 1.52235,-0.57682 0.39548,-0.15659 1.02518,-0.41455 1.39888,-0.57381 0.37372,-0.15926 0.90072,-0.38878 1.17104,-0.50991 0.27034,-0.12078 0.88063,-0.40584 1.35638,-0.6327 0.47578,-0.22718 1.23628,-0.6076 1.69031,-0.84518 0.45403,-0.23789 1.08872,-0.57883 1.41025,-0.75817 0.32153,-0.179 0.87094,-0.49184 1.22056,-0.69528 0.34964,-0.20343 0.95188,-0.56645 1.33834,-0.80703 0.38644,-0.24024 1.12422,-0.71767 1.63945,-1.06098 0.51526,-0.34329 1.18543,-0.80168 1.4889,-1.0185 0.3038,-0.21681 0.78561,-0.56779 1.07067,-0.78025 0.2854,-0.21246 0.79734,-0.60393 1.13758,-0.86956 0.34061,-0.26599 0.86727,-0.68824 1.17068,-0.93851 0.30347,-0.25027 0.78525,-0.65611 1.07067,-0.90205 0.2854,-0.24559 0.80498,-0.70666 1.15467,-1.02452 0.34964,-0.31785 0.97294,-0.90235 1.38551,-1.29885 0.41254,-0.39648 1.05827,-1.04221 1.43534,-1.43468 0.37708,-0.39213 0.92612,-0.97697 1.22057,-1.29886 0.29443,-0.3222 0.80065,-0.89434 1.12488,-1.27141 0.32455,-0.37741 0.78694,-0.92679 1.02752,-1.22123 0.2409,-0.29444 0.63138,-0.78393 0.86757,-1.0874 0.23655,-0.3038 0.62001,-0.80799 0.85217,-1.12085 0.23187,-0.31284 0.60592,-0.82942 0.83044,-1.14794 0.22484,-0.31852 0.64678,-0.93581 0.93749,-1.37179 0.29075,-0.43595 0.73976,-1.13156 0.99774,-1.54546 0.25796,-0.41421 0.62698,-1.02385 0.82039,-1.35506 0.19305,-0.33124 0.49418,-0.85818 0.66916,-1.17104 0.17466,-0.31284 0.49552,-0.90675 0.71334,-1.31992 0.21748,-0.41288 0.56478,-1.09811 0.77123,-1.52236 0.20677,-0.42425 0.52763,-1.10677 0.71369,-1.51669 0.18604,-0.40987 0.44466,-0.99671 0.57549,-1.30452 0.13049,-0.30781 0.358,-0.86089 0.50522,-1.22893 0.14755,-0.36804 0.38878,-0.99304 0.536,-1.38852 0.14689,-0.39581 0.40953,-1.14095 0.58318,-1.65619 0.17332,-0.51526 0.39682,-1.20047 0.49619,-1.52235 0.0994,-0.32221 0.27268,-0.90939 0.38544,-1.30488 0.11242,-0.39581 0.30213,-1.1031 0.42157,-1.57188 0.11912,-0.46874 0.31317,-1.28947 0.43128,-1.82348 0.11811,-0.53399 0.28239,-1.33231 0.36469,-1.77395 0.0823,-0.44165 0.19507,-1.08174 0.25061,-1.42198 0.0558,-0.34061 0.14655,-0.93515 0.20175,-1.3216 0.0552,-0.38645 0.13818,-1.03384 0.18403,-1.43871 0.0461,-0.40485 0.0997,-0.89435 0.11877,-1.0874 0.0191,-0.19339 0.0569,-0.62235 0.0843,-0.95356 0.0274,-0.33124 0.0733,-0.9937 0.10204,-1.47217 0.0288,-0.47845 0.0642,-1.45279 0.0786,-2.1654 0.0147,-0.71267 0.0151,-1.872647 6e-4,-2.578281 -0.014,-0.705273 -0.0425,-1.567848 -0.0626,-1.916513 -0.0201,-0.348303 -0.0592,-0.94255 -0.0867,-1.319618 -0.0277,-0.377411 -0.0729,-0.919442 -0.10071,-1.2045 -0.0277,-0.285401 -0.0883,-0.849817 -0.13417,-1.254687 -0.0462,-0.404846 -0.12915,-1.052253 -0.18402,-1.438708 -0.0552,-0.386444 -0.15926,-1.056285 -0.23119,-1.488896 -0.0719,-0.432618 -0.18503,-1.072352 -0.25128,-1.421979 -0.0659,-0.34964 -0.21681,-1.072653 -0.33492,-1.606662 -0.1181,-0.533998 -0.31183,-1.354702 -0.43094,-1.823479 -0.11877,-0.468754 -0.34429,-1.296872 -0.50087,-1.839547 -0.15658,-0.54303 -0.38912,-1.312216 -0.51727,-1.709744 -0.12814,-0.397818 -0.32655,-0.992377 -0.44131,-1.321605 -0.11443,-0.329564 -0.34362,-0.960242 -0.5089,-1.40188 -0.16562,-0.44165 -0.41388,-1.081017 -0.55206,-1.420655 -0.13819,-0.339939 -0.36838,-0.889293 -0.51159,-1.221229 -0.14353,-0.331905 -0.37673,-0.859566 -0.51826,-1.172365 -0.14153,-0.312836 -0.44868,-0.960243 -0.68253,-1.438709 -0.23421,-0.478454 -0.58853,-1.178744 -0.78796,-1.555812 -0.19941,-0.377411 -0.51324,-0.956933 -0.69763,-1.288146 -0.18402,-0.331237 -0.50789,-0.896033 -0.71935,-1.254687 -0.21145,-0.35901 -0.5728,-0.953563 -0.80264,-1.321605 -0.22986,-0.368041 -0.63234,-0.993038 -0.89435,-1.38852 -0.26198,-0.395814 -0.68391,-1.013138 -0.93719,-1.371792 -0.25328,-0.359009 -0.71972,-0.998755 -1.03619,-1.421979 -0.31651,-0.423248 -0.79126,-1.040578 -1.05496,-1.371792 -0.26365,-0.331237 -0.66784,-0.828093 -0.89838,-1.104125 -0.23019,-0.276031 -0.61531,-0.727718 -0.85553,-1.00375 -0.24023,-0.276031 -0.60092,-0.682525 -0.80132,-0.903374 -0.20075,-0.220825 -0.72404,-0.779231 -1.16267,-1.241329 -0.43898,-0.461725 -1.1028,-1.132588 -1.47554,-1.490881 -0.37272,-0.358004 -0.88833,-0.846147 -1.14595,-1.084748 -0.25763,-0.238559 -0.67151,-0.613985 -0.9201,-0.834774 -0.24826,-0.220488 -0.69998,-0.611637 -1.00375,-0.868893 -0.30347,-0.257292 -0.89068,-0.739092 -1.30488,-1.070667 -0.41388,-0.331574 -1.02385,-0.807032 -1.35506,-1.056946 -0.33124,-0.249933 -0.91842,-0.680179 -1.30487,-0.95621 -0.38645,-0.276032 -1.06429,-0.743124 -1.50665,-1.038232 -0.44198,-0.29477 -1.08938,-0.715984 -1.43871,-0.936171 -0.34897,-0.21982 -0.87557,-0.543361 -1.17002,-0.718692 -0.29443,-0.17532 -0.76719,-0.45102 -1.05093,-0.6123 -0.28372,-0.161605 -0.84819,-0.473772 -1.25469,-0.693899 -0.40651,-0.220157 -1.22086,-0.638356 -1.80975,-0.929793 -0.58887,-0.291424 -1.34171,-0.653099 -1.67292,-0.803662 -0.33124,-0.150899 -0.91842,-0.409864 -1.30488,-0.57582 -0.38644,-0.165956 -1.09708,-0.457711 -1.57922,-0.648105 -0.48213,-0.190712 -1.22724,-0.472767 -1.65618,-0.627343 -0.42861,-0.154577 -1.1483,-0.402836 -1.59932,-0.551726 -0.45069,-0.148889 -1.09209,-0.352985 -1.42499,-0.453697 -0.33291,-0.100375 -0.90506,-0.265657 -1.27142,-0.367037 -0.37911,-0.124626 -1.04708,-0.298959 -1.49239,-0.410707 -0.4453,-0.111387 -1.14336,-0.276994 -1.55256,-0.368042 -0.41522,-0.09063 -1.05911,-0.225482 -1.43221,-0.29944 -0.37911,-0.07426 -0.99292,-0.188052 -1.37203,-0.252923 -0.37911,-0.06493 -0.9869,-0.162598 -1.35398,-0.217178 -0.3731,-0.05452 -1.04106,-0.144545 -1.49238,-0.200058 -0.45133,-0.05554 -1.21558,-0.138521 -1.70301,-0.184358 -0.48743,-0.04584 -1.25168,-0.10673 -1.69097,-0.135169 -0.44531,-0.02844 -1.16743,-0.06659 -1.60672,-0.08465 -0.43929,-0.0184 -1.57062,-0.03112 -2.509376,-0.0281 z m 0,4.016685 c 0.90169,-0.0037 2.00082,0.0084 2.44246,0.0271 0.44165,0.01874 1.13421,0.05654 1.53908,0.08398 0.40485,0.02744 1.13494,0.08833 1.62237,0.135169 0.48782,0.04684 1.23296,0.12982 1.65619,0.184358 0.42358,0.0542 1.11616,0.152572 1.53944,0.218147 0.42325,0.06558 1.09342,0.178665 1.4889,0.251606 0.39547,0.07294 1.08071,0.208777 1.52235,0.30213 0.44165,0.09302 1.27744,0.287404 1.85694,0.431949 0.5795,0.144539 1.40025,0.361687 1.82348,0.483136 0.42325,0.121118 1.10779,0.326556 1.52103,0.456706 0.41321,0.130151 1.10581,0.361013 1.53908,0.513249 0.43329,0.151898 1.12988,0.406855 1.54811,0.566113 0.41789,0.159264 1.0954,0.429603 1.50563,0.601245 0.40986,0.171306 1.07632,0.460052 1.48119,0.641425 0.40485,0.181343 1.31559,0.619341 2.02423,0.97294 0.70864,0.353653 1.67225,0.857219 2.14133,1.118507 0.46942,0.261643 1.19211,0.679216 1.606,0.927807 0.41422,0.248596 1.06898,0.655085 1.45544,0.903014 0.38644,0.247928 0.93617,0.610253 1.22123,0.804685 0.2854,0.194726 0.7294,0.503885 0.98702,0.687219 0.25763,0.183353 0.7545,0.547044 1.10412,0.807995 0.34964,0.260975 0.86156,0.652437 1.13759,0.869917 0.27603,0.217479 0.76388,0.613262 1.08372,0.879304 0.3202,0.265994 0.82443,0.695945 1.12086,0.955548 0.29644,0.259639 0.72741,0.643712 0.95723,0.854211 0.23019,0.210119 0.74078,0.692274 1.13494,1.071328 0.39414,0.378747 1.03486,1.021803 1.42366,1.428358 0.38878,0.406856 0.92347,0.979017 1.18777,1.271417 0.26432,0.29276 0.7137,0.803 0.99876,1.134213 0.28506,0.331238 0.81335,0.970954 1.17405,1.421979 0.36101,0.450683 0.87557,1.113152 1.14396,1.472167 0.268,0.358672 0.69528,0.94586 0.94887,1.304875 0.25361,0.358672 0.67518,0.976008 0.93683,1.371791 0.26164,0.395477 0.64907,0.997733 0.86089,1.338334 0.21146,0.34027 0.51727,0.844822 0.67952,1.120854 0.16193,0.276031 0.49652,0.863237 0.74342,1.304875 0.24693,0.44165 0.74577,1.397547 1.10846,2.124604 0.36302,0.726695 0.84284,1.7355 1.06633,2.241708 0.22351,0.505889 0.51158,1.176036 0.64004,1.488896 0.12815,0.312835 0.34831,0.868231 0.4885,1.234588 0.14052,0.366032 0.38811,1.043587 0.55072,1.505625 0.16228,0.461725 0.39447,1.155997 0.51559,1.542453 0.12079,0.386444 0.27972,0.905722 0.35266,1.154313 0.0729,0.248596 0.19338,0.669828 0.26733,0.936833 0.0739,0.266662 0.21848,0.819368 0.32053,1.227909 0.10238,0.408859 0.26064,1.07867 0.35198,1.488895 0.091,0.410533 0.2332,1.099793 0.31584,1.532404 0.0827,0.432618 0.20343,1.110143 0.26801,1.505625 0.0649,0.395476 0.16294,1.050568 0.21781,1.455438 0.0552,0.404845 0.13751,1.082401 0.18335,1.505624 0.0461,0.423248 0.1074,1.04792 0.13618,1.388521 0.0288,0.34027 0.076,0.980341 0.10439,1.421979 0.0305,0.468754 0.0599,1.575912 0.0709,2.659938 0.012,1.191813 0.005,2.192553 -0.0204,2.793773 -0.0217,0.51526 -0.0616,1.26805 -0.0887,1.67292 -0.0271,0.40485 -0.0719,0.97697 -0.0994,1.27142 -0.0274,0.29443 -0.0806,0.81371 -0.1181,1.15431 -0.0378,0.34027 -0.12012,0.99538 -0.18335,1.45544 -0.0629,0.46005 -0.17566,1.19782 -0.24994,1.63946 -0.0746,0.44165 -0.21079,1.17705 -0.30246,1.63446 -0.0917,0.45704 -0.22016,1.06699 -0.2854,1.35506 -0.0652,0.28808 -0.19406,0.82473 -0.28607,1.19277 -0.092,0.36804 -0.24993,0.97029 -0.35098,1.33833 -0.10071,0.36804 -0.2516,0.89501 -0.33492,1.17104 -0.0833,0.27603 -0.22784,0.74276 -0.32086,1.03721 -0.0933,0.29443 -0.30313,0.91541 -0.46641,1.38016 -0.16294,0.46473 -0.42358,1.17507 -0.57849,1.57819 -0.15492,0.40318 -0.37407,0.95658 -0.48682,1.2296 -0.11309,0.27302 -0.38846,0.91005 -0.6123,1.41632 -0.22384,0.50589 -0.6655,1.44172 -0.98137,2.07911 -0.31584,0.63739 -0.76653,1.51062 -1.0014,1.94058 -0.23488,0.42994 -0.60694,1.08939 -0.82677,1.46549 -0.21949,0.37608 -0.59623,0.99942 -0.83646,1.38485 -0.24057,0.38544 -0.66447,1.04124 -0.94219,1.45742 -0.27803,0.41589 -0.69293,1.01982 -0.92245,1.34201 -0.22952,0.32187 -0.64443,0.88767 -0.92209,1.25703 -0.2777,0.36939 -0.73909,0.96392 -1.02547,1.32161 -0.28674,0.35767 -0.71232,0.87593 -0.94586,1.15196 -0.23354,0.27603 -0.63806,0.74246 -0.89868,1.03619 -0.26065,0.29376 -0.58552,0.65508 -0.7217,0.803 -0.13651,0.14788 -0.58084,0.61398 -0.98702,1.03552 -0.40652,0.42191 -1.06062,1.07368 -1.45376,1.44876 -0.39346,0.37473 -0.98804,0.92612 -1.3216,1.22526 -0.33391,0.29912 -0.81004,0.71767 -1.05863,0.93045 -0.24826,0.21246 -0.70762,0.5959 -1.02048,0.85217 -0.31284,0.25596 -0.85487,0.68523 -1.2045,0.95356 -0.34964,0.26867 -0.91409,0.69125 -1.25469,0.93918 -0.34027,0.24759 -0.92744,0.66213 -1.30487,0.92113 -0.37708,0.25897 -1.00309,0.67386 -1.39087,0.92209 -0.38779,0.2486 -1.04287,0.65442 -1.45544,0.90235 -0.41288,0.24793 -1.13421,0.66447 -1.60365,0.92576 -0.46909,0.26098 -1.34435,0.7217 -1.94462,1.02385 -0.60024,0.30179 -1.40591,0.69396 -1.79002,0.87094 -0.3841,0.17699 -0.95759,0.43329 -1.27406,0.56946 -0.31618,0.13584 -0.81305,0.34429 -1.10413,0.46307 -0.29075,0.11844 -0.81473,0.32354 -1.16436,0.45603 -0.34964,0.13216 -0.96692,0.357 -1.37179,0.4992 -0.40485,0.14253 -0.99942,0.34295 -1.32161,0.44533 -0.32186,0.10271 -0.81136,0.25462 -1.08739,0.33793 -0.27603,0.0833 -0.77291,0.22651 -1.10413,0.31852 -0.33123,0.0917 -0.93647,0.25027 -1.34501,0.35265 -0.40886,0.10238 -1.07867,0.26064 -1.48889,0.35198 -0.41054,0.091 -1.0998,0.23321 -1.53241,0.31585 -0.43262,0.0827 -1.11014,0.2031 -1.50562,0.26767 -0.39548,0.0649 -0.99039,0.15525 -1.32161,0.20142 -0.33123,0.0459 -0.93346,0.12145 -1.33833,0.16762 -0.40485,0.0462 -1.0747,0.11376 -1.4889,0.15056 -0.41387,0.0365 -1.16671,0.0934 -1.67291,0.12614 -0.73777,0.0478 -1.38082,0.0599 -3.24546,0.0599 -1.864641,0 -2.504381,-0.0117 -3.22873,-0.0592 -0.496856,-0.0328 -1.249693,-0.09 -1.672917,-0.12714 -0.423248,-0.0371 -1.093112,-0.10439 -1.488895,-0.14989 -0.395477,-0.0452 -0.997733,-0.12012 -1.338334,-0.16696 -0.34027,-0.0465 -0.935148,-0.13718 -1.321604,-0.20108 -0.386444,-0.0642 -0.944837,-0.16127 -1.240967,-0.21581 -0.296443,-0.0549 -0.8234,-0.15893 -1.171042,-0.23187 -0.347966,-0.0726 -0.859867,-0.18502 -1.137944,-0.24926 -0.277704,-0.0646 -0.75215,-0.179 -1.053937,-0.25495 -0.301793,-0.0756 -0.796983,-0.20544 -1.100755,-0.28841 -0.303466,-0.083 -0.830441,-0.23321 -1.171042,-0.33359 -0.34027,-0.1007 -1.01043,-0.31183 -1.488896,-0.46941 -0.478454,-0.15759 -1.216896,-0.41222 -1.640782,-0.56612 -0.423916,-0.15357 -1.108819,-0.41388 -1.522354,-0.57816 -0.41321,-0.16428 -1.067658,-0.43429 -1.454114,-0.59958 -0.386443,-0.16562 -1.011091,-0.44399 -1.38852,-0.61861 -0.377412,-0.17466 -1.107495,-0.52865 -1.62273,-0.78628 -0.515258,-0.25796 -1.239944,-0.63504 -1.610693,-0.83814 -0.37072,-0.20276 -0.882614,-0.48883 -1.137584,-0.63571 -0.254951,-0.14655 -0.651775,-0.37874 -0.881952,-0.51592 -0.229857,-0.13718 -0.666518,-0.40452 -0.970291,-0.59389 -0.303466,-0.18971 -0.905722,-0.58084 -1.338333,-0.86925 -0.432281,-0.28841 -1.027159,-0.69559 -1.321605,-0.9047 -0.294433,-0.20945 -0.836458,-0.60592 -1.204499,-0.88129 -0.368042,-0.27537 -0.992738,-0.75986 -1.388521,-1.07633 -0.395477,-0.31684 -0.937496,-0.76051 -1.2045,-0.98635 -0.266662,-0.22585 -0.733075,-0.63102 -1.036185,-0.90001 -0.303135,-0.269 -0.672176,-0.60091 -0.81973,-0.73777 -0.147884,-0.13651 -0.583511,-0.55072 -0.968606,-0.9201 -0.384771,-0.36938 -1.018133,-1.00441 -1.406935,-1.41091 -0.388785,-0.40685 -0.923474,-0.97902 -1.187771,-1.27142 -0.264321,-0.29276 -0.713336,-0.803 -0.998033,-1.13421 -0.284396,-0.33124 -0.753475,-0.89603 -1.041902,-1.25469 -0.28841,-0.359 -0.698292,-0.87828 -0.910717,-1.15431 -0.21246,-0.27603 -0.551725,-0.72874 -0.754497,-1.0061 -0.202423,-0.27737 -0.601889,-0.84181 -0.88797,-1.25468 -0.285732,-0.41288 -0.737106,-1.08938 -1.003389,-1.50328 -0.265994,-0.41422 -0.688242,-1.09305 -0.938157,-1.5093 -0.249932,-0.41588 -0.667181,-1.1386 -0.927145,-1.606 -0.260307,-0.46707 -0.770203,-1.44436 -1.132889,-2.17112 -0.363023,-0.72669 -0.842476,-1.7358 -1.065973,-2.24171 -0.223834,-0.50622 -0.498866,-1.14324 -0.611939,-1.41632 -0.112753,-0.27301 -0.331905,-0.82641 -0.486818,-1.22959 -0.154914,-0.40317 -0.415552,-1.11351 -0.578492,-1.5782 -0.163278,-0.46473 -0.373061,-1.08571 -0.466407,-1.38016 -0.09302,-0.29443 -0.237554,-0.76117 -0.320863,-1.0372 -0.08331,-0.27604 -0.226512,-0.77292 -0.318522,-1.10413 -0.09167,-0.33124 -0.25027,-0.93647 -0.352649,-1.34501 -0.102385,-0.40886 -0.260638,-1.07867 -0.351649,-1.4889 -0.09101,-0.41053 -0.225844,-1.0623 -0.299789,-1.44876 -0.07361,-0.38644 -0.164614,-0.87593 -0.201755,-1.08739 -0.03747,-0.21179 -0.113091,-0.67856 -0.168297,-1.03721 -0.05487,-0.35901 -0.137516,-0.93948 -0.183016,-1.29079 -0.0455,-0.35098 -0.120787,-1.00574 -0.167291,-1.45544 -0.04651,-0.44935 -0.10673,-1.11081 -0.134171,-1.46952 -0.02743,-0.35901 -0.06926,-0.96126 -0.09268,-1.33833 -0.02744,-0.44232 -0.04283,-1.49961 -0.04283,-2.9778 0,-1.478185 0.01539,-2.535492 0.04283,-2.977792 0.02342,-0.377412 0.06524,-0.97968 0.09268,-1.338334 0.02744,-0.359009 0.08766,-1.020118 0.134171,-1.469518 0.04651,-0.449678 0.121786,-1.104486 0.167291,-1.455438 0.0455,-0.351312 0.13517,-0.977332 0.199745,-1.391168 0.06424,-0.414216 0.176662,-1.080717 0.249933,-1.481194 0.07327,-0.400832 0.209114,-1.088418 0.301793,-1.52807 0.09268,-0.439978 0.272348,-1.218883 0.399159,-1.730807 0.126474,-0.51225 0.30748,-1.209495 0.401837,-1.550096 0.09435,-0.340607 0.239895,-0.844823 0.32321,-1.120854 0.08331,-0.276031 0.227517,-0.742763 0.320532,-1.037208 0.09302,-0.294434 0.293428,-0.888993 0.445333,-1.321604 0.151898,-0.432618 0.384433,-1.072352 0.516594,-1.421979 0.132497,-0.34964 0.335919,-0.869255 0.452024,-1.154313 0.116437,-0.285401 0.331575,-0.796982 0.478455,-1.137583 0.146879,-0.340607 0.398491,-0.90506 0.559759,-1.254688 0.160937,-0.349639 0.510907,-1.072351 0.777545,-1.606 0.266661,-0.53366 0.67386,-1.316609 0.904699,-1.739833 0.230862,-0.423248 0.599909,-1.078008 0.82009,-1.455076 0.220488,-0.376743 0.57381,-0.963913 0.78591,-1.304875 0.212123,-0.340607 0.629991,-0.988345 0.92913,-1.43907 0.299115,-0.451019 0.742763,-1.098408 0.985998,-1.438708 0.24291,-0.340607 0.633722,-0.874911 0.868232,-1.187771 0.234545,-0.312835 0.604597,-0.794635 0.822377,-1.070666 0.217479,-0.276031 0.613262,-0.763825 0.878943,-1.083725 0.265657,-0.320195 0.695283,-0.824423 0.954886,-1.120854 0.259639,-0.296444 0.643712,-0.727358 0.854211,-0.957234 0.210119,-0.230194 0.692274,-0.740777 1.071328,-1.134574 0.378747,-0.39414 1.012777,-1.026497 1.408921,-1.40525 0.395813,-0.379084 0.967945,-0.913424 1.271416,-1.187771 0.303135,-0.274358 0.822377,-0.73175 1.153651,-1.016447 0.331237,-0.284733 0.963612,-0.807333 1.40525,-1.160992 0.44165,-0.353653 1.104125,-0.868593 1.472167,-1.144263 0.368041,-0.275694 0.96295,-0.708643 1.321604,-0.962288 0.359009,-0.253615 0.953562,-0.660441 1.321604,-0.904037 0.368041,-0.243578 0.917757,-0.597899 1.221229,-0.787595 0.303803,-0.190044 0.777906,-0.47979 1.053937,-0.644434 0.276032,-0.16495 0.787956,-0.461057 1.137584,-0.658455 0.349639,-0.197741 0.831463,-0.465071 1.070666,-0.594553 0.239227,-0.129483 0.849156,-0.442318 1.355063,-0.695284 0.506225,-0.253278 1.222553,-0.60024 1.591918,-0.771226 0.369378,-0.170975 0.956572,-0.433954 1.304875,-0.584516 0.348304,-0.150563 1.002065,-0.421238 1.45279,-0.601582 0.450682,-0.180338 1.173689,-0.456038 1.606,-0.6126 0.432617,-0.156587 1.177721,-0.413548 1.656187,-0.570802 0.478454,-0.157254 1.148596,-0.368379 1.488896,-0.469085 0.340607,-0.100375 0.86757,-0.2506 1.171042,-0.333578 0.303802,-0.08298 0.798968,-0.212797 1.100755,-0.28841 0.301793,-0.07595 0.776221,-0.190712 1.053937,-0.254951 0.278041,-0.06458 0.783924,-0.175656 1.124224,-0.247255 0.340607,-0.07127 0.86757,-0.175319 1.171042,-0.231199 0.303803,-0.05621 0.868231,-0.154576 1.254687,-0.218815 0.386444,-0.06458 1.094076,-0.169633 1.572542,-0.233871 0.478454,-0.06424 1.1637,-0.14688 1.522354,-0.184021 0.359009,-0.03714 0.916072,-0.09 1.237958,-0.117772 0.322205,-0.02744 0.984674,-0.07327 1.472167,-0.101711 0.487823,-0.0281 1.014762,-0.05554 1.171041,-0.06089 0.156587,-0.005 1.022164,-0.01238 1.923854,-0.01606 z m 0.38477,3.757022 c -1.11315,-0.0057 -2.28016,0.0023 -2.59302,0.01773 -0.312835,0.01572 -0.915109,0.05286 -1.338333,0.08231 -0.423248,0.02944 -1.145948,0.09134 -1.606,0.137516 -0.460052,0.04584 -1.227909,0.136174 -1.706375,0.200082 -0.478454,0.06391 -1.186086,0.169632 -1.572541,0.234208 -0.386444,0.06491 -0.981003,0.170638 -1.321604,0.234876 -0.34027,0.06424 -0.927446,0.185026 -1.304875,0.268335 -0.377075,0.08298 -1.010791,0.231867 -1.407597,0.3309 -0.396818,0.0987 -0.976671,0.249602 -1.288146,0.335252 -0.311499,0.08532 -0.882614,0.251274 -1.26907,0.368041 -0.386443,0.117105 -0.950914,0.295102 -1.254687,0.395477 -0.303466,0.100375 -0.792951,0.268003 -1.087396,0.372723 -0.294433,0.104726 -0.851502,0.3115 -1.237958,0.459384 -0.386444,0.147885 -1.04124,0.411538 -1.455438,0.585521 -0.413878,0.173983 -1.023849,0.438304 -1.355062,0.587194 -0.331238,0.148889 -1.151665,0.546038 -1.823479,0.882313 -0.671514,0.336593 -1.522354,0.778929 -1.890396,0.983651 -0.368042,0.204432 -0.902352,0.509571 -1.187771,0.677531 -0.285064,0.16796 -0.842175,0.507562 -1.237958,0.754136 -0.395476,0.246924 -1.083725,0.694261 -1.529395,0.994724 -0.445333,0.30012 -1.100093,0.757506 -1.455437,1.015785 -0.354996,0.258634 -0.901389,0.66682 -1.214189,0.907407 -0.312835,0.240232 -0.869916,0.683549 -1.237958,0.984674 -0.368042,0.301125 -0.739754,0.620303 -0.826108,0.709304 -0.08632,0.08866 -0.211124,0.251943 -0.277367,0.362355 -0.06625,0.110413 -0.15324,0.306144 -0.19339,0.434959 -0.0542,0.175319 -0.07227,0.318522 -0.07194,0.568791 3.35e-4,0.223166 0.02041,0.4015 0.06023,0.535334 0.03279,0.110412 0.113422,0.306143 0.179339,0.434958 l 0.119114,0.234208 29.927756,29.93257 c 18.341901,18.344916 29.918731,29.947616 29.904281,29.971086 -0.0131,0.0211 -0.13082,0.11342 -0.26131,0.2051 -0.1452,0.10171 -0.34261,0.20175 -0.50756,0.25696 l -0.27034,0.0903 -2.12226,0.012 -2.12196,0.0124 L 91.653473,94.627852 C 72.738082,75.716071 62.850422,65.853085 62.734883,65.781474 c -0.09636,-0.05989 -0.284396,-0.14688 -0.418229,-0.19339 -0.147885,-0.05152 -0.34763,-0.09067 -0.510577,-0.100375 -0.17432,-0.01037 -0.354658,0.0026 -0.517268,0.03714 -0.137516,0.02944 -0.355994,0.103721 -0.485146,0.165619 -0.129482,0.0619 -0.313172,0.178665 -0.407524,0.259639 -0.09469,0.08097 -0.261312,0.25261 -0.370382,0.381425 -0.10874,0.128814 -0.416556,0.505221 -0.683549,0.836458 -0.266999,0.331238 -0.696607,0.880628 -0.954586,1.221229 -0.257629,0.34027 -0.656469,0.882313 -0.886284,1.2045 -0.229527,0.321868 -0.591208,0.841453 -0.803662,1.154313 -0.212461,0.312835 -0.549054,0.824723 -0.747818,1.137583 -0.19874,0.312835 -0.559759,0.900005 -0.801977,1.304875 -0.242573,0.404846 -0.591875,1.00712 -0.776221,1.338333 -0.184689,0.331238 -0.511913,0.93918 -0.727358,1.351031 -0.215469,0.411537 -0.557749,1.096783 -0.760154,1.522354 -0.20276,0.425258 -0.479122,1.023127 -0.614646,1.328283 -0.135507,0.304808 -0.361687,0.831765 -0.503211,1.171042 -0.141193,0.338934 -0.381088,0.940203 -0.533324,1.335686 -0.151898,0.395476 -0.396818,1.065672 -0.544365,1.488895 -0.147554,0.423248 -0.353991,1.040579 -0.45838,1.371792 -0.104388,0.331237 -0.2854,0.933463 -0.402168,1.338333 -0.116767,0.404846 -0.295769,1.059955 -0.397817,1.455438 -0.102048,0.395476 -0.25997,1.050567 -0.350975,1.455437 -0.09101,0.404846 -0.218815,1.00712 -0.284059,1.338333 -0.06524,0.331238 -0.171642,0.910717 -0.236218,1.288146 -0.06491,0.377074 -0.155582,0.941828 -0.201755,1.254688 -0.04617,0.312835 -0.121455,0.877258 -0.167629,1.254687 -0.04651,0.377074 -0.114095,1.002065 -0.150899,1.388521 -0.03647,0.386444 -0.08866,1.026196 -0.115769,1.421979 -0.02743,0.395476 -0.06725,1.171042 -0.089,1.723104 -0.02443,0.624997 -0.03179,1.559483 -0.01907,2.475918 0.01104,0.80968 0.0358,1.7432 0.05521,2.07442 0.01907,0.33123 0.05788,0.91071 0.08599,1.28814 0.0281,0.37708 0.08164,0.98702 0.118777,1.35506 0.0368,0.36805 0.104389,0.96259 0.149894,1.32161 0.04551,0.35867 0.135844,0.99875 0.201087,1.42198 0.06491,0.42325 0.178665,1.10075 0.252611,1.50562 0.07361,0.40485 0.201418,1.05226 0.284059,1.43871 0.08264,0.38644 0.245581,1.09408 0.362686,1.57254 0.117104,0.47846 0.289751,1.14764 0.384102,1.48721 0.09435,0.33961 0.260638,0.91174 0.369378,1.27142 0.109077,0.35968 0.33492,1.05929 0.502212,1.55449 0.167292,0.49484 0.440982,1.26269 0.608629,1.70637 0.167291,0.44333 0.458716,1.17508 0.647442,1.62574 0.188372,0.45068 0.475777,1.11351 0.638357,1.47217 0.162609,0.35867 0.52429,1.11146 0.804022,1.67291 0.279715,0.56144 0.669167,1.31427 0.865885,1.67292 0.196736,0.35867 0.523623,0.93852 0.726696,1.28815 0.203091,0.34964 0.542693,0.91408 0.754497,1.25468 0.212124,0.34027 0.591876,0.9295 0.844462,1.30921 0.252611,0.37975 0.584516,0.8689 0.737407,1.0874 0.152904,0.21848 0.53868,0.74782 0.85722,1.1764 0.318859,0.4286 0.75546,1.00074 0.96993,1.27141 0.214802,0.27068 0.578829,0.71803 0.809379,0.99406 0.230195,0.27603 0.569797,0.67483 0.754798,0.88665 0.185026,0.21145 0.5621,0.63306 0.838144,0.93683 0.275694,0.30347 0.84049,0.8967 1.254687,1.31757 0.414215,0.42124 1.009106,1.00845 1.321965,1.30524 0.312836,0.29644 0.80968,0.75618 1.104125,1.0215 0.294433,0.26533 0.814012,0.71767 1.154313,1.00544 0.340607,0.28774 0.777244,0.65111 0.970291,0.80733 0.193391,0.15625 0.614948,0.48782 0.936834,0.73675 0.322204,0.24893 0.781276,0.59522 1.020479,0.7702 0.239227,0.17466 0.638356,0.46106 0.886645,0.63637 0.248597,0.17532 0.723025,0.49986 1.054299,0.72068 0.331574,0.22116 0.866246,0.56712 1.187771,0.76918 0.321868,0.20242 0.863899,0.53366 1.204139,0.73644 0.340607,0.20276 0.965297,0.55976 1.38852,0.79295 0.423248,0.23321 1.183739,0.63306 1.689646,0.88797 0.506226,0.25529 1.228571,0.60659 1.606,0.78092 0.377411,0.17431 0.953201,0.43194 1.280142,0.57247 0.326887,0.14019 0.861191,0.36202 1.187771,0.49251 0.326556,0.13048 0.894649,0.34997 1.262691,0.48815 0.368042,0.13785 1.113513,0.39882 1.656188,0.5795 0.543029,0.18067 1.297834,0.42024 1.677911,0.53232 0.380089,0.11175 0.997371,0.2844 1.371791,0.3831 0.374397,0.099 0.936834,0.24191 1.249693,0.31752 0.312836,0.0756 0.877619,0.20409 1.254688,0.28506 0.377411,0.0813 1.017109,0.20912 1.421979,0.28407 0.404846,0.0749 1.022164,0.181 1.371791,0.23621 0.34964,0.0549 0.921789,0.13752 1.271417,0.18369 0.34964,0.0462 0.914387,0.11376 1.254687,0.15056 0.340607,0.0368 0.792289,0.0826 1.00375,0.10171 0.211793,0.0191 0.708643,0.0569 1.104125,0.084 0.395814,0.0271 1.171042,0.0666 1.723104,0.0877 0.611638,0.0238 1.565501,0.0308 2.442461,0.0187 0.79127,-0.0114 1.70974,-0.0365 2.04096,-0.0559 0.33124,-0.0197 0.98636,-0.0653 1.45544,-0.10138 0.46942,-0.0365 1.1921,-0.10406 1.606,-0.15056 0.41421,-0.0465 1.12187,-0.13718 1.57254,-0.20142 0.45102,-0.0639 1.12855,-0.16964 1.50562,-0.23454 0.37741,-0.0649 1.02481,-0.18637 1.43871,-0.26934 0.41422,-0.0833 1.10647,-0.23354 1.53908,-0.33426 0.43262,-0.1007 0.98937,-0.23654 1.23796,-0.30179 0.2486,-0.0656 0.69258,-0.18602 0.98702,-0.26833 0.29444,-0.0823 0.76118,-0.21748 1.03721,-0.30079 0.27603,-0.083 0.78025,-0.24191 1.12085,-0.35299 0.34061,-0.11108 0.98835,-0.33492 1.44004,-0.49786 0.45168,-0.16294 1.1593,-0.43061 1.57254,-0.59489 0.41321,-0.16461 1.03588,-0.42224 1.38352,-0.57247 0.34764,-0.15057 0.91211,-0.40217 1.25469,-0.55942 0.34262,-0.15759 1.03685,-0.49452 1.54276,-0.74915 0.50622,-0.25495 1.21388,-0.62331 1.57254,-0.81906 0.35901,-0.19607 0.96126,-0.53735 1.33833,-0.75883 0.37741,-0.2215 0.96428,-0.57615 1.30488,-0.78862 0.3406,-0.21212 0.95019,-0.60725 1.35506,-0.87828 0.40484,-0.27102 0.981,-0.66718 1.28044,-0.88027 0.29945,-0.21346 0.78892,-0.57113 1.0874,-0.7953 0.29878,-0.22417 0.9121,-0.7016 1.36276,-1.06128 0.45102,-0.35967 0.94953,-0.7826 1.10816,-0.9402 0.19205,-0.19037 0.32187,-0.35332 0.38845,-0.48682 0.0552,-0.11041 0.12848,-0.28373 0.16294,-0.38477 0.0475,-0.13818 0.0632,-0.27938 0.0632,-0.56879 0,-0.28741 -0.0161,-0.43128 -0.0626,-0.56879 -0.0345,-0.10138 -0.1084,-0.27436 -0.16428,-0.38477 -0.0887,-0.17399 -0.7578,-0.85722 -5.01977,-5.12412 l -4.91735,-4.92337 0.26432,-0.0208 c 0.14521,-0.0114 0.42793,-0.0442 0.62801,-0.0726 0.20008,-0.0285 0.49384,-0.089 0.65243,-0.1345 0.15859,-0.0455 0.39381,-0.12145 0.52262,-0.1693 0.12882,-0.0475 0.40753,-0.17532 0.61898,-0.28406 0.21146,-0.10841 0.52028,-0.2941 0.6859,-0.41221 0.16562,-0.11844 0.41153,-0.31584 0.5467,-0.43897 l 0.24525,-0.22417 4.30506,4.30042 4.30475,4.30072 0.28439,0.13818 c 0.15659,0.0763 0.38979,0.1606 0.51861,0.18737 0.12881,0.0271 0.30949,0.0492 0.4015,0.0492 0.092,0 0.27135,-0.0221 0.39849,-0.0492 0.12714,-0.0268 0.32856,-0.0943 0.44767,-0.15023 0.11877,-0.0555 0.28941,-0.15491 0.37942,-0.22082 0.0897,-0.0659 0.37105,-0.37072 0.625,-0.67753 0.25394,-0.30649 0.62734,-0.76822 0.82977,-1.02584 0.20243,-0.25763 0.5263,-0.67922 0.72002,-0.93683 0.19339,-0.25763 0.54035,-0.73205 0.77087,-1.05394 0.23019,-0.32221 0.62969,-0.90169 0.88766,-1.28815 0.25797,-0.38644 0.63439,-0.96626 0.83682,-1.28814 0.20209,-0.32221 0.51861,-0.84146 0.70365,-1.15431 0.1847,-0.31284 0.4711,-0.80968 0.63571,-1.10413 0.16495,-0.29443 0.48147,-0.88165 0.70365,-1.30487 0.22216,-0.42325 0.57046,-1.11917 0.77387,-1.54679 0.20343,-0.4276 0.51359,-1.10112 0.68891,-1.4966 0.17565,-0.39548 0.46072,-1.06964 0.63336,-1.49792 0.17298,-0.42827 0.41522,-1.04961 0.53868,-1.38082 0.12346,-0.33124 0.35867,-1.0014 0.52262,-1.4889 0.16428,-0.48782 0.4025,-1.23296 0.52931,-1.65618 0.12714,-0.42325 0.30113,-1.02548 0.38678,-1.33834 0.0856,-0.31283 0.23588,-0.9 0.33425,-1.30487 0.0984,-0.40485 0.24692,-1.05225 0.33023,-1.43871 0.0833,-0.38644 0.21882,-1.07169 0.30146,-1.52235 0.0823,-0.45102 0.18804,-1.06832 0.23488,-1.37179 0.0465,-0.30381 0.12245,-0.83081 0.16796,-1.17105 0.0459,-0.3406 0.12145,-0.98034 0.16762,-1.42198 0.0465,-0.44165 0.10707,-1.09678 0.13451,-1.45543 0.0274,-0.35901 0.0689,-0.95357 0.092,-1.32161 0.0261,-0.41454 0.0422,-1.45206 0.0422,-2.72685 0,-1.275089 -0.0164,-2.318676 -0.0425,-2.743585 -0.0231,-0.377411 -0.0646,-0.971977 -0.0917,-1.321604 -0.0268,-0.34964 -0.0723,-0.869255 -0.10104,-1.154313 -0.0285,-0.285401 -0.089,-0.827432 -0.13451,-1.2045 -0.0455,-0.377411 -0.1355,-1.036546 -0.20008,-1.464825 -0.0646,-0.428603 -0.18502,-1.151303 -0.268,-1.606 -0.083,-0.455033 -0.2342,-1.211179 -0.33625,-1.680258 -0.10205,-0.469421 -0.28841,-1.259682 -0.41422,-1.756562 -0.1258,-0.496857 -0.32655,-1.242291 -0.44633,-1.656188 -0.11945,-0.414215 -0.31016,-1.045573 -0.42358,-1.403565 -0.11343,-0.357667 -0.31183,-0.952539 -0.44065,-1.321604 -0.12848,-0.369046 -0.36269,-1.009767 -0.51994,-1.423664 -0.15726,-0.414215 -0.42091,-1.076684 -0.58553,-1.472166 -0.16461,-0.395477 -0.45904,-1.073014 -0.65412,-1.505625 -0.19506,-0.432618 -0.6203,-1.31324 -0.9452,-1.957313 -0.32487,-0.644073 -0.76382,-1.479869 -0.97564,-1.856937 -0.2118,-0.377411 -0.533,-0.934487 -0.7137,-1.237959 -0.18068,-0.303465 -0.49385,-0.815035 -0.69559,-1.136259 -0.20175,-0.321537 -0.56344,-0.878642 -0.80366,-1.237958 -0.23989,-0.359677 -0.60225,-0.887308 -0.80498,-1.172366 -0.20276,-0.285401 -0.59456,-0.819729 -0.87094,-1.187771 -0.27603,-0.368041 -0.73843,-0.96295 -1.02686,-1.321604 -0.28875,-0.359009 -0.72507,-0.885983 -0.96963,-1.171041 -0.24458,-0.285401 -0.7093,-0.811726 -1.03251,-1.169718 -0.32321,-0.358004 -0.96428,-1.033838 -1.42433,-1.501593 -0.46005,-0.467749 -1.13758,-1.132589 -1.50563,-1.477161 -0.36804,-0.344284 -0.87996,-0.81305 -1.13758,-1.04124 -0.25763,-0.228185 -0.67151,-0.587194 -0.9201,-0.797284 -0.24826,-0.21045 -0.74945,-0.620664 -1.11315,-0.911378 -0.36403,-0.291088 -0.92847,-0.729404 -1.25469,-0.973963 -0.32622,-0.244913 -0.81137,-0.601888 -1.07837,-0.793612 -0.26666,-0.19138 -0.84651,-0.590202 -1.28815,-0.886285 -0.44165,-0.295769 -1.09642,-0.719715 -1.45543,-0.941828 -0.35868,-0.222161 -0.85554,-0.52396 -1.10413,-0.67049 -0.2486,-0.14688 -0.70762,-0.410533 -1.02048,-0.585521 -0.31283,-0.175319 -0.87726,-0.481463 -1.25469,-0.680179 -0.37707,-0.199077 -0.97931,-0.503885 -1.33833,-0.677531 -0.35867,-0.173316 -0.90103,-0.428267 -1.2045,-0.566451 -0.30346,-0.138184 -0.8154,-0.364359 -1.13758,-0.50288 -0.32187,-0.138184 -0.93918,-0.391125 -1.37179,-0.562437 -0.43262,-0.170974 -1.14023,-0.438641 -1.57255,-0.59489 -0.43261,-0.156586 -1.16767,-0.406182 -1.6338,-0.555072 -0.46607,-0.148552 -1.18879,-0.367373 -1.606,-0.48615 -0.41722,-0.118777 -1.05195,-0.29042 -1.4109,-0.382093 -0.35868,-0.09134 -0.91578,-0.226849 -1.23796,-0.300788 -0.32187,-0.07428 -0.87895,-0.195064 -1.23796,-0.268335 -0.35867,-0.07327 -0.95356,-0.186699 -1.3216,-0.252273 -0.36805,-0.06558 -0.9703,-0.163946 -1.33834,-0.218484 -0.36804,-0.05454 -0.91005,-0.12982 -1.2045,-0.167292 -0.29443,-0.03714 -0.74613,-0.09 -1.00375,-0.117772 -0.25763,-0.02743 -0.73175,-0.07294 -1.05393,-0.10138 -0.32187,-0.02844 -0.93919,-0.07528 -1.3718,-0.104058 -0.53633,-0.03614 -1.42998,-0.05621 -2.8105,-0.06357 z m 0.0167,4.016022 c 0.97529,0.0067 2.02188,0.02777 2.32535,0.04718 0.30381,0.01941 0.84585,0.05855 1.2045,0.08666 0.35901,0.02844 0.99136,0.08933 1.40525,0.135169 0.41422,0.04617 1.02385,0.121455 1.35507,0.167629 0.33123,0.0465 0.91842,0.136842 1.30487,0.201418 0.38645,0.06424 0.97366,0.169969 1.30488,0.234545 0.33123,0.06458 0.90337,0.185026 1.27141,0.267667 0.36804,0.08231 0.96897,0.225843 1.33533,0.318859 0.36637,0.09268 0.95356,0.2506 1.30487,0.350307 0.35132,0.100038 0.9325,0.273354 1.29116,0.385776 0.35901,0.112085 1.05893,0.346962 1.55581,0.52195 0.49686,0.175319 1.30987,0.481132 1.80711,0.679517 0.49686,0.198409 1.24969,0.513922 1.67292,0.700639 0.42291,0.18703 1.26606,0.586189 1.8733,0.887308 0.60725,0.300788 1.45045,0.73843 1.87367,0.972277 0.42325,0.233872 1.1031,0.625358 1.51062,0.870278 0.40752,0.244914 1.04726,0.643411 1.42198,0.885623 0.37439,0.241905 0.89934,0.591875 1.16605,0.776883 0.26699,0.185357 0.74878,0.527974 1.07066,0.761839 0.32221,0.23354 0.8716,0.647443 1.22123,0.919442 0.34964,0.272349 0.93683,0.746434 1.30488,1.054299 0.36804,0.307479 0.96295,0.82009 1.3216,1.138606 0.35901,0.318859 1.19547,1.122539 1.85959,1.785989 0.66381,0.66345 1.40994,1.432329 1.65787,1.708361 0.24826,0.276031 0.65207,0.73506 0.89735,1.020479 0.24559,0.285064 0.68187,0.812026 0.96994,1.171041 0.28774,0.358673 0.70431,0.893326 0.92582,1.187771 0.22115,0.294434 0.55841,0.753475 0.74944,1.019817 0.19071,0.266662 0.58284,0.838806 0.87058,1.271417 0.28807,0.432948 0.67085,1.026196 0.85054,1.318595 0.17967,0.292424 0.44399,0.730728 0.58719,0.973963 0.14353,0.243578 0.42291,0.734759 0.62066,1.091427 0.19808,0.356669 0.55809,1.039856 0.8,1.518323 0.24223,0.478454 0.56544,1.140953 0.71869,1.472166 0.15291,0.331238 0.43262,0.963612 0.62096,1.40525 0.18837,0.44165 0.46441,1.119831 0.61333,1.506648 0.14889,0.387112 0.38945,1.042203 0.53466,1.455437 0.14521,0.413548 0.37875,1.120494 0.51861,1.571519 0.13985,0.450683 0.31383,1.031492 0.38644,1.290132 0.0729,0.258634 0.22316,0.830741 0.33458,1.271416 0.11108,0.440645 0.26198,1.071991 0.33525,1.403264 0.0733,0.331238 0.18603,0.873287 0.25094,1.2045 0.0649,0.331238 0.17097,0.91842 0.23555,1.304875 0.0649,0.386444 0.1703,1.094076 0.2342,1.572542 0.0642,0.478454 0.15425,1.268769 0.20042,1.756562 0.0462,0.487487 0.0997,1.119831 0.11911,1.40525 0.0194,0.285064 0.0499,0.849818 0.0679,1.254688 0.0181,0.404846 0.0328,1.315586 0.0328,2.02423 3.3e-4,0.70828 -0.0147,1.61166 -0.0328,2.0075 -0.0181,0.39548 -0.0489,0.95254 -0.0683,1.23796 -0.0191,0.28506 -0.0646,0.84212 -0.10071,1.23796 -0.0365,0.39548 -0.096,0.96764 -0.13283,1.27142 -0.0368,0.30346 -0.0977,0.7702 -0.13551,1.0372 -0.0378,0.26667 -0.12111,0.80132 -0.18536,1.18777 -0.0639,0.38645 -0.17733,1.0111 -0.25161,1.38853 -0.0743,0.37707 -0.20175,0.97931 -0.28339,1.33833 -0.082,0.35867 -0.23789,0.99875 -0.34696,1.42198 -0.10907,0.42325 -0.29811,1.10815 -0.42024,1.52235 -0.12178,0.41388 -0.34662,1.12922 -0.49919,1.58927 -0.15258,0.46006 -0.42225,1.22226 -0.59925,1.69398 -0.17699,0.47143 -0.46239,1.19415 -0.63468,1.606 -0.17197,0.41154 -0.43897,1.02686 -0.59288,1.36746 -0.15391,0.34027 -0.47009,1.00273 -0.70263,1.47217 -0.23287,0.46942 -0.58552,1.15365 -0.78428,1.52103 -0.19875,0.36736 -0.51928,0.93948 -0.71231,1.27141 -0.19306,0.33191 -0.54337,0.91204 -0.77821,1.28947 -0.23488,0.37708 -0.61934,0.97198 -0.85385,1.32161 -0.23454,0.34964 -0.61495,0.89904 -0.84512,1.22123 -0.2302,0.32186 -0.55408,0.76388 -0.71972,0.98166 l -0.30079,0.39615 -3.97654,-3.97654 -3.97619,-3.97655 3.4e-4,-9.02232 c 3.3e-4,-7.83803 -0.006,-9.07286 -0.0502,-9.40624 -0.0274,-0.21112 -0.088,-0.52964 -0.1345,-0.70828 -0.0465,-0.17834 -0.13484,-0.45537 -0.19674,-0.61531 -0.0616,-0.1596 -0.16863,-0.40251 -0.23755,-0.53969 -0.0689,-0.13684 -0.1867,-0.34729 -0.26165,-0.46741 -0.0749,-0.12012 -0.22718,-0.33893 -0.33792,-0.48615 -0.11108,-0.14722 -0.3376,-0.403506 -0.50355,-0.569793 -0.16629,-0.165956 -0.42292,-0.393473 -0.57047,-0.505889 -0.14755,-0.112085 -0.37339,-0.268335 -0.50187,-0.347299 -0.12849,-0.07896 -0.38444,-0.216143 -0.56846,-0.30447 -0.18435,-0.08833 -0.49318,-0.212124 -0.6859,-0.275364 -0.19305,-0.0629 -0.47142,-0.138515 -0.61862,-0.167959 -0.14721,-0.02944 -0.40317,-0.06859 -0.56879,-0.08699 -0.1887,-0.02108 -2.23737,-0.03379 -5.48247,-0.03379 l -5.18105,-3.35e-4 0.0234,-0.05855 c 0.0131,-0.03212 0.0656,-0.224171 0.11711,-0.426594 0.0512,-0.202423 0.11108,-0.5263 0.13249,-0.719354 0.0294,-0.262985 0.0365,-2.699413 0.0281,-9.702916 l -0.0114,-9.351484 -0.0763,-0.334583 c -0.0418,-0.184021 -0.13451,-0.509234 -0.20544,-0.722724 -0.0709,-0.213465 -0.20476,-0.538342 -0.29677,-0.722363 -0.0923,-0.183684 -0.27336,-0.491169 -0.40217,-0.682526 -0.12915,-0.191717 -0.34094,-0.468753 -0.47076,-0.61597 -0.13015,-0.147217 -0.36068,-0.377411 -0.51258,-0.511913 -0.1519,-0.13417 -0.43195,-0.348303 -0.62199,-0.475776 -0.19038,-0.127141 -0.4992,-0.306144 -0.6859,-0.397149 -0.18703,-0.091 -0.46909,-0.210451 -0.62704,-0.265657 -0.15792,-0.05521 -0.45905,-0.138515 -0.66917,-0.185357 -0.21011,-0.04684 -0.57782,-0.10171 -0.81708,-0.121785 -0.30681,-0.0261 -3.10825,-0.03346 -9.518772,-0.02509 l -9.083696,0.01205 -0.382093,0.07395 c -0.210451,0.04082 -0.561763,0.13417 -0.781577,0.207441 -0.219489,0.07361 -0.551726,0.209783 -0.73843,0.303466 -0.186699,0.09335 -0.460052,0.249933 -0.607245,0.347967 -0.147217,0.09803 -0.381425,0.275694 -0.520277,0.394471 -0.139189,0.118777 -0.369047,0.34228 -0.511245,0.496519 -0.142534,0.154577 -0.356331,0.41622 -0.475445,0.581838 -0.119445,0.165619 -0.321868,0.511913 -0.450351,0.769542 -0.128478,0.257629 -0.284059,0.621326 -0.345957,0.807995 l -0.112531,0.334583 -7.600939,-7.601541 -7.60154,-7.60154 0.56145,-0.421238 c 0.309153,-0.23153 0.757506,-0.56009 0.996709,-0.730367 0.239227,-0.1703 0.768218,-0.53165 1.175736,-0.803361 0.407186,-0.271349 0.994362,-0.651414 1.304875,-0.844161 0.310157,-0.193053 0.836819,-0.509571 1.170018,-0.703647 0.333248,-0.193722 0.852526,-0.487487 1.154313,-0.652438 0.301462,-0.164951 0.842175,-0.451687 1.200829,-0.637032 0.358672,-0.185357 1.013799,-0.505221 1.455437,-0.71099 0.44165,-0.205768 1.164362,-0.528304 1.606,-0.716706 0.44165,-0.188703 1.126872,-0.467412 1.522354,-0.619641 0.395814,-0.152236 0.998033,-0.373729 1.338334,-0.492506 0.340607,-0.11844 0.897658,-0.305806 1.237958,-0.415888 0.340607,-0.110412 0.95621,-0.298116 1.368422,-0.417224 0.412205,-0.119114 1.036847,-0.290751 1.38852,-0.381762 0.351313,-0.09067 1.008083,-0.247255 1.458808,-0.347299 0.451019,-0.100375 1.098408,-0.235881 1.438708,-0.301462 0.340607,-0.06558 0.942851,-0.171305 1.338333,-0.235213 0.395814,-0.06424 1.002426,-0.154576 1.348684,-0.201087 0.345957,-0.04684 0.9934,-0.122123 1.438708,-0.167629 0.444996,-0.04551 1.133251,-0.106398 1.528733,-0.135169 0.395813,-0.02878 0.998033,-0.06558 1.338333,-0.08197 0.340607,-0.01639 1.416985,-0.02409 2.392276,-0.0174 z m -26.648117,30.44949 11.774204,11.773601 v 1.283813 c 0,0.982989 0.01205,1.367098 0.05186,1.639459 0.02844,0.195731 0.08733,0.491169 0.131156,0.65677 0.04383,0.165619 0.08967,0.327555 0.102385,0.359677 l 0.02275,0.05855 -5.181046,3.35e-4 c -3.332113,0 -5.288764,0.01238 -5.482473,0.03479 -0.165619,0.01874 -0.440645,0.06323 -0.610976,0.09904 -0.1703,0.03547 -0.449009,0.11108 -0.618979,0.16796 -0.169969,0.05688 -0.475776,0.18402 -0.679878,0.282722 -0.203759,0.0987 -0.527306,0.284733 -0.719354,0.413879 -0.191717,0.129151 -0.472767,0.344958 -0.624696,0.479459 -0.151898,0.134838 -0.38243,0.365364 -0.51258,0.512588 -0.12982,0.14722 -0.341943,0.42458 -0.471095,0.61633 -0.129151,0.19206 -0.314508,0.5156 -0.411874,0.71936 -0.0977,0.20409 -0.21547,0.48347 -0.26198,0.62162 -0.04651,0.13785 -0.110076,0.34864 -0.14153,0.46842 -0.03112,0.11944 -0.0803,0.33793 -0.109408,0.48514 -0.04718,0.23923 -0.0542,1.25235 -0.06524,9.48568 -0.009,6.58155 -0.0017,9.3232 0.02476,9.58557 0.02041,0.20243 0.06558,0.49954 0.100375,0.65978 0.03513,0.1606 0.116767,0.45136 0.182011,0.64606 0.06524,0.19473 0.195394,0.50756 0.289752,0.69529 0.09402,0.18736 0.254283,0.46874 0.355663,0.62535 0.10138,0.15625 0.287405,0.40686 0.412873,0.55642 0.125806,0.14955 0.361013,0.3948 0.522955,0.54503 0.161936,0.15023 0.428935,0.36871 0.592881,0.48548 0.164283,0.11711 0.473098,0.30347 0.685896,0.41455 0.213128,0.11108 0.5621,0.26164 0.775258,0.33492 0.213465,0.0733 0.538679,0.16461 0.723025,0.20275 0.184689,0.0382 0.506894,0.0846 0.716345,0.10339 0.244246,0.0214 3.566983,0.0338 9.247378,0.0338 5.734433,3.4e-4 8.99644,-0.0117 9.23474,-0.0338 0.202423,-0.0184 0.496188,-0.0572 0.652437,-0.086 0.156587,-0.0288 0.450015,-0.10573 0.652438,-0.17064 0.202423,-0.0652 0.518604,-0.18938 0.702625,-0.27637 0.184021,-0.0866 0.439977,-0.2225 0.568792,-0.30179 0.128814,-0.0793 0.342947,-0.22585 0.475776,-0.32555 0.132828,-0.10005 0.354658,-0.28741 0.492842,-0.41657 0.138184,-0.12914 0.34763,-0.3503 0.465408,-0.49116 0.117772,-0.14119 0.30012,-0.38478 0.405183,-0.54103 0.105394,-0.15658 0.27904,-0.46506 0.386107,-0.68589 0.106729,-0.22083 0.248927,-0.57214 0.315513,-0.78062 0.06658,-0.20845 0.153908,-0.54737 0.193721,-0.7528 l 0.07227,-0.37373 0.01874,-7.16887 0.0184,-7.16827 0.927807,0.92847 0.92781,0.92883 0.011,6.23974 0.0107,6.23974 0.0726,0.3754 c 0.0401,0.20644 0.1345,0.56512 0.20979,0.79698 0.0756,0.23187 0.21781,0.58218 0.31618,0.77893 0.0987,0.1964 0.26499,0.48515 0.36971,0.64173 0.10473,0.15625 0.28674,0.39983 0.40451,0.54102 0.11778,0.14086 0.32722,0.36202 0.46541,0.49117 0.13818,0.12915 0.36001,0.31584 0.49284,0.41488 0.13283,0.099 0.35466,0.24993 0.49251,0.33525 0.13818,0.085 0.38042,0.21548 0.53867,0.28942 0.15826,0.0743 0.44701,0.18837 0.64173,0.25361 0.19506,0.0653 0.49452,0.14722 0.66616,0.18269 0.17131,0.0354 0.48481,0.0803 0.69624,0.0997 0.25261,0.0231 2.43512,0.0351 6.35769,0.0354 h 5.97297 l 5.41959,5.42194 c 2.98116,2.98182 5.42428,5.42662 5.42964,5.43263 0.005,0.006 -0.27302,0.2215 -0.61898,0.47879 -0.34562,0.2573 -0.74144,0.54772 -0.87961,0.64576 -0.13784,0.098 -0.44666,0.31318 -0.68589,0.47779 -0.23923,0.16494 -0.71334,0.4808 -1.05394,0.70226 -0.34061,0.22116 -0.98768,0.62368 -1.43871,0.89435 -0.45068,0.27035 -1.09076,0.64239 -1.42198,0.82678 -0.33123,0.18402 -0.94086,0.5089 -1.35506,0.7217 -0.41388,0.21279 -1.03889,0.52127 -1.38852,0.6859 -0.34964,0.16426 -0.89904,0.41521 -1.22123,0.55775 -0.32187,0.14219 -0.85656,0.36904 -1.18777,0.50353 -0.33124,0.13484 -0.88063,0.34998 -1.22123,0.47847 -0.34061,0.12815 -0.85987,0.31718 -1.15431,0.41955 -0.29443,0.1024 -0.82141,0.27772 -1.17104,0.38979 -0.34964,0.11209 -1.00441,0.30916 -1.45544,0.43799 -0.45068,0.12847 -1.15094,0.31549 -1.55581,0.41521 -0.40485,0.0997 -1.04455,0.2486 -1.42198,0.33057 -0.37708,0.082 -0.97198,0.20276 -1.32161,0.268 -0.34964,0.0652 -0.91408,0.16361 -1.25468,0.21815 -0.34027,0.0549 -0.84483,0.13014 -1.12086,0.16729 -0.27603,0.0375 -0.84049,0.1054 -1.25468,0.1509 -0.41388,0.0459 -1.04624,0.10606 -1.40525,0.13417 -0.35868,0.0281 -0.91578,0.0673 -1.23796,0.0866 -0.32187,0.0194 -1.21016,0.0442 -1.97404,0.0549 -0.851205,0.012 -1.757589,0.005 -2.342087,-0.0194 -0.52429,-0.0214 -1.164362,-0.0536 -1.421979,-0.0716 -0.257629,-0.0178 -0.739453,-0.0555 -1.070666,-0.084 -0.331238,-0.0281 -0.921789,-0.0883 -1.312578,-0.13349 -0.390794,-0.0452 -0.92546,-0.11276 -1.187771,-0.1499 -0.262648,-0.0375 -0.665495,-0.0984 -0.895672,-0.1355 -0.229858,-0.0371 -0.629029,-0.10573 -0.886646,-0.15191 -0.257629,-0.0465 -0.618979,-0.11442 -0.803,-0.15123 -0.184021,-0.0368 -0.537674,-0.11007 -0.786271,-0.16328 -0.248259,-0.0528 -0.744447,-0.16494 -1.102139,-0.24926 -0.358004,-0.0843 -0.952539,-0.23521 -1.321604,-0.33525 -0.369377,-0.10004 -0.927145,-0.2583 -1.239944,-0.35164 -0.312835,-0.0937 -0.892362,-0.27671 -1.288146,-0.40686 -0.395476,-0.13015 -1.050567,-0.357 -1.455437,-0.50389 -0.404846,-0.14688 -1.082401,-0.40718 -1.505625,-0.57849 -0.423248,-0.1713 -1.115859,-0.46473 -1.539083,-0.65207 -0.423248,-0.18737 -1.251318,-0.57951 -1.840209,-0.87161 -0.588866,-0.29209 -1.436722,-0.73476 -1.884017,-0.98335 -0.447336,-0.24826 -1.094737,-0.62066 -1.438708,-0.82677 -0.343953,-0.20644 -0.919081,-0.56277 -1.277795,-0.79198 -0.358672,-0.22919 -0.915772,-0.59823 -1.237958,-0.81973 -0.321868,-0.22183 -0.773574,-0.53935 -1.00375,-0.70527 -0.229858,-0.1663 -0.606282,-0.44467 -0.836459,-0.61898 -0.229857,-0.17432 -0.705272,-0.54537 -1.055923,-0.82443 -0.350976,-0.27937 -0.908069,-0.73909 -1.237958,-1.0218 -0.330233,-0.28306 -0.818406,-0.71231 -1.08541,-0.95422 -0.266662,-0.24158 -0.766894,-0.70997 -1.111467,-1.04058 -0.344284,-0.33057 -0.905722,-0.892 -1.247346,-1.24735 -0.341612,-0.35532 -0.813711,-0.85854 -1.049604,-1.1182 -0.235545,-0.25964 -0.628668,-0.70564 -0.873588,-0.9907 -0.244914,-0.2854 -0.686919,-0.81973 -0.982327,-1.18777 -0.295438,-0.36804 -0.772911,-0.98533 -1.060978,-1.37179 -0.287742,-0.38644 -0.71466,-0.97799 -0.948207,-1.31426 -0.23354,-0.33626 -0.554403,-0.8107 -0.712674,-1.05394 -0.15859,-0.24324 -0.433623,-0.67554 -0.611277,-0.9609 -0.177329,-0.2854 -0.459384,-0.75179 -0.62632,-1.03721 -0.167292,-0.2854 -0.40886,-0.70696 -0.537344,-0.93683 -0.128477,-0.2302 -0.407186,-0.74945 -0.619641,-1.15432 -0.21246,-0.40484 -0.546038,-1.07235 -0.741439,-1.48287 -0.195394,-0.41087 -0.484809,-1.04323 -0.643411,-1.40525 -0.158259,-0.36236 -0.398822,-0.93184 -0.533997,-1.26607 -0.135506,-0.33424 -0.315844,-0.79331 -0.400832,-1.02047 -0.08498,-0.22718 -0.265657,-0.7267 -0.4015,-1.11051 -0.135843,-0.38376 -0.367037,-1.08372 -0.513922,-1.55581 -0.14688,-0.4721 -0.343285,-1.13355 -0.436295,-1.46982 -0.09268,-0.33659 -0.250269,-0.9402 -0.349976,-1.3417 -0.09937,-0.40117 -0.249602,-1.05196 -0.333579,-1.44575 -0.08365,-0.39414 -0.190712,-0.91975 -0.237891,-1.16804 -0.04684,-0.24859 -0.144539,-0.81305 -0.217142,-1.25468 -0.0726,-0.44165 -0.184021,-1.2172 -0.247592,-1.72311 -0.06391,-0.50622 -0.146879,-1.26642 -0.184688,-1.68964 -0.03781,-0.42325 -0.08331,-0.98805 -0.101043,-1.25469 -0.01807,-0.267 -0.05019,-0.92179 -0.0716,-1.45544 -0.02443,-0.60225 -0.03145,-1.51597 -0.01874,-2.409005 0.01104,-0.791266 0.04316,-1.792669 0.07093,-2.224979 0.02777,-0.432618 0.07395,-1.049906 0.102715,-1.371792 0.02878,-0.322205 0.08164,-0.849155 0.11811,-1.171042 0.03614,-0.322204 0.09636,-0.811364 0.133833,-1.087395 0.03714,-0.276032 0.127479,-0.868593 0.200413,-1.316911 0.07294,-0.448341 0.207105,-1.187108 0.298116,-1.641444 0.09134,-0.454365 0.22718,-1.088719 0.30213,-1.409943 0.07494,-0.320863 0.204433,-0.84717 0.287742,-1.169056 0.08331,-0.322205 0.249264,-0.924437 0.369377,-1.338334 0.119782,-0.414215 0.346631,-1.144262 0.503885,-1.622729 0.157254,-0.478454 0.402836,-1.186085 0.546039,-1.572541 0.142866,-0.386444 0.365701,-0.96626 0.494846,-1.288146 0.129483,-0.322205 0.332243,-0.811365 0.45102,-1.087396 0.119114,-0.276031 0.347966,-0.787956 0.508903,-1.137583 0.160937,-0.34964 0.478118,-1.004773 0.704972,-1.455437 0.226849,-0.45102 0.56946,-1.10581 0.760816,-1.455438 0.191718,-0.34964 0.480795,-0.861552 0.642388,-1.137583 0.161605,-0.276031 0.437299,-0.735422 0.6123,-1.020479 0.174988,-0.285401 0.516931,-0.820752 0.759492,-1.190118 0.24291,-0.369715 0.604236,-0.904037 0.803662,-1.187771 0.199414,-0.284059 0.579497,-0.808356 0.844823,-1.165325 l 0.482468,-0.649428 z m 26.397777,-5.571836 9.08611,-0.0023 0.18168,0.05353 c 0.10004,0.02911 0.28707,0.108071 0.41589,0.175319 0.14086,0.07327 0.31484,0.203759 0.43696,0.327224 0.11376,0.115094 0.25562,0.306143 0.32321,0.434958 0.0666,0.126805 0.14454,0.322536 0.17365,0.435626 l 0.0532,0.205769 v 9.029537 c 0,7.877151 -0.006,9.054812 -0.0495,9.2209 -0.0274,0.104726 -0.099,0.292423 -0.15893,0.416893 -0.0743,0.15324 -0.18468,0.301793 -0.34361,0.46072 -0.13317,0.133165 -0.32354,0.281387 -0.44131,0.343616 -0.11376,0.06023 -0.32321,0.139189 -0.46541,0.175319 -0.23254,0.05956 -0.37239,0.06625 -1.39887,0.06625 h -1.1406 L 98.007114,89.3607 89.333222,80.686808 v -2.314643 l 0.06625,-0.258634 c 0.03647,-0.142535 0.107404,-0.336924 0.158259,-0.431949 0.05053,-0.09536 0.205101,-0.286406 0.343616,-0.424921 0.138515,-0.138515 0.334584,-0.295769 0.435627,-0.349977 0.10138,-0.05387 0.274358,-0.124133 0.38477,-0.155581 l 0.20075,-0.05788 z m -15.585801,25.303169 8.924829,0.005 0.85385,0.85319 c 0.672837,0.67181 0.861191,0.8793 0.887308,0.97529 0.02175,0.08 0.03011,3.21302 0.02409,9.0169 l -0.0094,8.89474 -0.05688,0.18234 c -0.03112,0.10038 -0.105057,0.28072 -0.163946,0.4005 -0.07093,0.14354 -0.188372,0.29845 -0.344284,0.45336 -0.130824,0.13016 -0.326556,0.28272 -0.437636,0.34127 -0.110413,0.0579 -0.291088,0.13317 -0.4015,0.16697 l -0.20075,0.0616 H 75.359963 l -0.234208,-0.0743 c -0.128815,-0.0408 -0.330233,-0.13116 -0.447337,-0.20075 -0.117104,-0.0696 -0.303466,-0.22317 -0.414215,-0.34161 -0.12246,-0.13082 -0.245582,-0.30849 -0.314172,-0.45303 -0.06223,-0.13048 -0.135506,-0.34629 -0.163277,-0.47879 -0.04416,-0.21179 -0.04918,-1.33899 -0.04149,-9.25038 l 0.0087,-9.00848 0.07093,-0.18469 c 0.03881,-0.10171 0.112422,-0.26733 0.163609,-0.36804 0.05186,-0.10238 0.199745,-0.29042 0.33492,-0.42559 0.177666,-0.178 0.308484,-0.27369 0.491169,-0.36068 0.136843,-0.0649 0.345957,-0.13919 0.464066,-0.16495 0.18168,-0.0395 1.606,-0.0459 9.139661,-0.0408 z m 33.249521,-0.003 7.0431,0.009 0.21982,0.0749 c 0.12111,0.0408 0.31216,0.13417 0.42492,0.20711 0.11275,0.0729 0.268,0.19706 0.34529,0.27636 0.0773,0.0793 0.19171,0.22116 0.25462,0.31551 0.0626,0.094 0.15457,0.28239 0.20409,0.41823 l 0.0903,0.24693 0.009,5.97231 c 0.005,3.28457 0.005,6.45036 0,7.03467 l -0.009,1.0623 -7.81276,-7.81276 -7.81276,-7.81276 z m -10.9197,13.41402 1.8626,1.86193 -0.0539,0.1345 c -0.0422,0.10507 -0.0475,0.17432 -0.0244,0.31618 0.0164,0.0997 0.0622,0.25094 0.10238,0.33593 0.0398,0.085 0.13015,0.22015 0.20075,0.30045 0.0706,0.0803 0.22183,0.1954 0.33559,0.25629 0.14788,0.0786 0.26699,0.1151 0.41488,0.12715 0.15022,0.012 0.23454,0.002 0.30548,-0.0358 l 0.0977,-0.0522 0.94285,0.94086 0.94322,0.94051 -0.14655,0.16327 c -0.0806,0.0893 -0.17901,0.2486 -0.21815,0.35366 -0.0558,0.14822 -0.0693,0.24658 -0.0606,0.44232 0.009,0.20242 0.0328,0.29543 0.12112,0.47477 0.0699,0.14186 0.17064,0.27771 0.27771,0.37373 0.0923,0.083 0.25361,0.18435 0.35867,0.22518 0.13383,0.0522 0.26565,0.0746 0.44165,0.076 0.20208,10e-4 0.2874,-0.0154 0.43897,-0.0853 0.10339,-0.0478 0.25127,-0.14421 0.32823,-0.21381 l 0.14052,-0.1268 0.54972,0.54905 c 0.30247,0.30213 0.55006,0.56143 0.55006,0.57616 0,0.0147 -1.83317,0.0217 -4.07355,0.0154 l -4.07356,-0.011 -0.18234,-0.0559 c -0.10038,-0.0308 -0.27503,-0.10137 -0.38778,-0.15691 -0.11276,-0.0552 -0.3018,-0.18938 -0.41991,-0.29778 -0.11777,-0.10841 -0.27135,-0.2931 -0.34094,-0.41054 -0.0693,-0.11744 -0.15959,-0.31149 -0.20075,-0.43094 l -0.0743,-0.21748 -0.009,-4.11537 -0.009,-4.11538 z m -0.84849,-24.390282 c -0.1693,-0.0047 -0.34094,0.01071 -0.42425,0.03747 -0.0766,0.02509 -0.19172,0.07762 -0.25495,0.116768 -0.0636,0.03914 -0.17901,0.140188 -0.25663,0.22417 -0.0773,0.08398 -0.17666,0.230863 -0.22015,0.326219 -0.0438,0.09536 -0.0893,0.257629 -0.10138,0.360014 -0.012,0.103053 -0.005,0.263984 0.015,0.358672 0.0201,0.09469 0.0689,0.2409 0.10841,0.324883 0.0395,0.08398 0.13818,0.220825 0.21881,0.304134 0.0843,0.08666 0.24324,0.196399 0.3724,0.257292 0.19606,0.09235 0.25896,0.105731 0.4925,0.103721 0.19339,-0.0013 0.32053,-0.02275 0.45838,-0.07629 0.10506,-0.04116 0.26633,-0.142535 0.35867,-0.225507 0.10707,-0.09602 0.20778,-0.231867 0.27771,-0.373728 l 0.10974,-0.223166 v -0.318938 c -3.4e-4,-0.27904 -0.0117,-0.341612 -0.0917,-0.504883 -0.0506,-0.102716 -0.16027,-0.256294 -0.24425,-0.341612 -0.084,-0.08498 -0.23856,-0.196737 -0.34328,-0.24826 -0.15692,-0.07695 -0.24124,-0.09502 -0.47511,-0.10138 z m 2.86304,3.873825 c -0.0934,10e-4 -0.25462,0.02911 -0.35834,0.06224 -0.10372,0.03312 -0.25428,0.107735 -0.33458,0.165282 -0.0803,0.05788 -0.18837,0.158259 -0.24024,0.223503 -0.0522,0.06524 -0.12513,0.187703 -0.1626,0.272348 -0.0371,0.08431 -0.079,0.235213 -0.0924,0.33492 -0.0137,0.100038 -0.0117,0.264989 0.004,0.366706 0.0157,0.102048 0.0673,0.260638 0.11375,0.352649 0.0465,0.09201 0.14856,0.230862 0.22685,0.309152 0.078,0.07796 0.2312,0.186031 0.34061,0.239564 0.17767,0.08699 0.23354,0.0977 0.51693,0.0977 0.2747,0 0.34395,-0.01205 0.50857,-0.08933 0.10472,-0.04918 0.26031,-0.159264 0.34562,-0.244246 0.085,-0.08532 0.19473,-0.2409 0.24358,-0.345626 0.0689,-0.147884 0.0917,-0.25462 0.10071,-0.475108 0.009,-0.228853 -0.002,-0.321537 -0.0599,-0.475108 -0.0408,-0.10874 -0.13818,-0.264989 -0.22651,-0.36336 -0.0853,-0.09469 -0.21012,-0.207105 -0.27737,-0.249602 -0.0676,-0.04249 -0.20276,-0.101043 -0.30113,-0.130487 -0.098,-0.02911 -0.25461,-0.0522 -0.34796,-0.05119 z M 78.557141,116.30229 c -0.06424,0.001 -0.173646,0.0161 -0.242572,0.0324 -0.06926,0.0161 -0.201418,0.0679 -0.294097,0.11476 -0.09235,0.0468 -0.229189,0.14622 -0.303466,0.2205 -0.07461,0.0746 -0.178665,0.22684 -0.23153,0.33826 -0.05253,0.11142 -0.105394,0.28139 -0.117441,0.37741 -0.01272,0.0997 -0.0043,0.25964 0.01874,0.37206 0.02242,0.10807 0.07026,0.25528 0.106729,0.32688 0.03647,0.0716 0.132161,0.20075 0.212798,0.28708 0.0803,0.086 0.233203,0.20041 0.339602,0.25428 l 0.19339,0.0977 h 0.334584 c 0.293097,3.3e-4 0.358341,-0.0107 0.525295,-0.089 0.104726,-0.0492 0.260307,-0.15926 0.345626,-0.24425 0.08498,-0.0853 0.195063,-0.2409 0.244246,-0.34562 0.07829,-0.16696 0.08933,-0.23254 0.08933,-0.5253 0,-0.30112 -0.0094,-0.35298 -0.09435,-0.5186 -0.05186,-0.10138 -0.149557,-0.24157 -0.217479,-0.31217 -0.06758,-0.0706 -0.188702,-0.16695 -0.268671,-0.21446 -0.0803,-0.0472 -0.230863,-0.10607 -0.334584,-0.13049 -0.104058,-0.0244 -0.241568,-0.0431 -0.306144,-0.0415 z m 5.856532,-0.002 c -0.06524,10e-4 -0.20075,0.0241 -0.301793,0.0512 -0.100712,0.0271 -0.244913,0.0857 -0.320532,0.12982 -0.07562,0.0445 -0.194395,0.14353 -0.263983,0.22049 -0.0696,0.0773 -0.166287,0.22484 -0.214471,0.32823 -0.07595,0.16193 -0.08833,0.23253 -0.08833,0.50589 0,0.28105 0.01104,0.34027 0.09435,0.5099 0.05186,0.10573 0.164614,0.26232 0.250937,0.34864 0.08599,0.086 0.239228,0.19539 0.340608,0.2429 0.159595,0.075 0.228521,0.0863 0.518604,0.086 0.273022,0 0.363691,-0.0137 0.49351,-0.0733 0.08733,-0.0401 0.239895,-0.1499 0.338934,-0.24324 0.115094,-0.10908 0.214133,-0.24492 0.276031,-0.37842 0.08431,-0.18268 0.09569,-0.24491 0.09335,-0.50923 -0.002,-0.22919 -0.01907,-0.33726 -0.07127,-0.45169 -0.03814,-0.0826 -0.116099,-0.21447 -0.173315,-0.29242 -0.05722,-0.078 -0.183016,-0.19406 -0.279714,-0.25797 -0.09669,-0.0639 -0.265326,-0.13919 -0.37507,-0.16763 -0.109745,-0.0285 -0.252611,-0.0506 -0.317855,-0.0492 z m 5.928805,0.0137 c -0.124133,-0.007 -0.282055,6e-4 -0.350976,0.0181 -0.06926,0.0174 -0.197404,0.0683 -0.285063,0.11276 -0.088,0.0442 -0.231868,0.15793 -0.320196,0.25228 -0.08833,0.0947 -0.190375,0.23922 -0.227179,0.32186 -0.03647,0.0827 -0.07963,0.23288 -0.09602,0.33358 -0.01774,0.10874 -0.0174,0.25964 6.62e-4,0.37106 0.01673,0.10338 0.0619,0.25261 0.100038,0.3319 0.03848,0.079 0.128146,0.21012 0.199745,0.29142 0.07127,0.081 0.224838,0.19908 0.341275,0.26198 l 0.211455,0.11477 h 0.702625 l 0.211455,-0.11477 c 0.116437,-0.0629 0.270008,-0.181 0.341275,-0.26198 0.0716,-0.0813 0.161268,-0.21246 0.199745,-0.29142 0.03814,-0.0793 0.08331,-0.22852 0.100038,-0.3319 0.01807,-0.11142 0.0184,-0.26232 6.62e-4,-0.37106 -0.01639,-0.1007 -0.05989,-0.25127 -0.09669,-0.33458 -0.0368,-0.0833 -0.143534,-0.2322 -0.236886,-0.33124 -0.109744,-0.11576 -0.241237,-0.21179 -0.370051,-0.26934 -0.132498,-0.0596 -0.2767,-0.0943 -0.425926,-0.10338 z m -14.710834,3.90024 c -0.148553,0.001 -0.296444,0.0247 -0.397487,0.0642 -0.08833,0.0348 -0.21246,0.10239 -0.275694,0.15056 -0.0629,0.0482 -0.160263,0.13585 -0.216143,0.19473 -0.05587,0.0592 -0.142198,0.19005 -0.191718,0.29143 -0.07796,0.15959 -0.09,0.22618 -0.091,0.50187 -0.001,0.26131 0.01205,0.34696 0.07461,0.48247 0.04182,0.0907 0.12781,0.22785 0.19105,0.30514 0.06323,0.0773 0.188702,0.1877 0.278372,0.24525 0.08967,0.0575 0.265657,0.12982 0.390794,0.16093 0.188035,0.0465 0.264658,0.0498 0.440314,0.0197 0.117105,-0.0201 0.284396,-0.0709 0.371725,-0.11342 0.08733,-0.0422 0.23153,-0.14923 0.319864,-0.23755 0.08866,-0.0887 0.199745,-0.24525 0.246924,-0.34831 0.05052,-0.11074 0.09268,-0.27469 0.102716,-0.40183 0.01205,-0.14856 -0.001,-0.28272 -0.04182,-0.43396 -0.03647,-0.13416 -0.108403,-0.28406 -0.186031,-0.38744 -0.06993,-0.093 -0.199077,-0.22016 -0.287074,-0.28272 -0.088,-0.0629 -0.235213,-0.13618 -0.326555,-0.16328 -0.09167,-0.0274 -0.272686,-0.0489 -0.402836,-0.0478 z m 5.919777,0.008 c -0.197404,-0.007 -0.343284,0.005 -0.423584,0.0348 -0.06725,0.0251 -0.189377,0.0847 -0.27135,0.13283 -0.08197,0.0482 -0.196399,0.1412 -0.253946,0.20711 -0.05788,0.0659 -0.145544,0.19807 -0.195064,0.2941 -0.07227,0.14086 -0.09235,0.23186 -0.103383,0.47544 -0.01137,0.24993 -0.0013,0.33392 0.05889,0.49351 0.04316,0.11476 0.137516,0.26365 0.234208,0.36938 0.089,0.0974 0.234876,0.21648 0.323878,0.26432 0.089,0.0482 0.2506,0.10539 0.358672,0.12748 0.111417,0.0228 0.273022,0.0305 0.372055,0.0181 0.09602,-0.012 0.263316,-0.0639 0.371725,-0.11576 0.108403,-0.0515 0.262311,-0.15993 0.34228,-0.24057 0.07963,-0.081 0.17967,-0.2148 0.22183,-0.29744 0.04216,-0.0826 0.09469,-0.23689 0.116436,-0.34195 0.02275,-0.10974 0.02945,-0.25997 0.01606,-0.35131 -0.01272,-0.088 -0.0522,-0.23889 -0.088,-0.33559 -0.03714,-0.10003 -0.134502,-0.2516 -0.226849,-0.35264 -0.09569,-0.10473 -0.242236,-0.21715 -0.357336,-0.27403 -0.162941,-0.081 -0.245251,-0.0987 -0.49652,-0.10774 z m 5.838479,-3.4e-4 c -0.170637,-0.005 -0.34027,0.01 -0.424252,0.0368 -0.07662,0.0251 -0.191718,0.0776 -0.254952,0.11677 -0.06357,0.0392 -0.179002,0.14019 -0.256624,0.22417 -0.07729,0.084 -0.176992,0.2322 -0.221493,0.3289 -0.04416,0.0967 -0.09,0.26532 -0.10138,0.3744 -0.01405,0.13584 -0.0034,0.26633 0.03479,0.41421 0.03045,0.11878 0.102385,0.28942 0.159932,0.37909 0.05755,0.0897 0.181012,0.21982 0.274696,0.28941 0.09368,0.0696 0.245581,0.15458 0.337592,0.18937 0.113758,0.0429 0.247592,0.0619 0.418229,0.0599 0.172978,-0.002 0.310158,-0.0261 0.44165,-0.0773 0.105057,-0.0405 0.266331,-0.14187 0.358672,-0.22484 0.107067,-0.0964 0.207779,-0.23187 0.277704,-0.37407 l 0.110726,-0.22265 v -0.31819 c 0,-0.27537 -0.01205,-0.34429 -0.08933,-0.50924 -0.04918,-0.10472 -0.159264,-0.26031 -0.244246,-0.34562 -0.08532,-0.085 -0.2409,-0.19473 -0.345625,-0.24358 -0.151568,-0.0706 -0.248928,-0.0907 -0.475109,-0.097 z m 5.840465,-0.001 c -0.259639,-0.009 -0.330232,6e-4 -0.493173,0.0692 -0.104389,0.0442 -0.249933,0.12781 -0.323541,0.18604 -0.07327,0.0582 -0.180338,0.17666 -0.237891,0.26331 -0.05722,0.0867 -0.128147,0.23957 -0.157254,0.3396 -0.0358,0.12313 -0.04818,0.26366 -0.03814,0.4363 0.01205,0.20744 0.03547,0.29376 0.126805,0.46507 0.0619,0.11577 0.185694,0.27637 0.275363,0.357 0.08967,0.0806 0.248928,0.18 0.353991,0.22116 0.138184,0.0539 0.264321,0.0746 0.458379,0.076 0.22183,0.001 0.300457,-0.0134 0.459715,-0.0873 0.105394,-0.0489 0.243241,-0.12815 0.306481,-0.17633 0.06323,-0.0482 0.168296,-0.16595 0.233871,-0.26131 0.06625,-0.097 0.143203,-0.27001 0.173983,-0.39079 0.03747,-0.14823 0.04851,-0.28005 0.03446,-0.41556 -0.01137,-0.10907 -0.05755,-0.27804 -0.102048,-0.37573 -0.04483,-0.0977 -0.151899,-0.25328 -0.238559,-0.34563 -0.08632,-0.0923 -0.2409,-0.20878 -0.343285,-0.25896 -0.152573,-0.0746 -0.241237,-0.093 -0.48916,-0.10205 z m 13.632465,0.001 c -0.16629,-0.005 -0.33994,0.01 -0.41823,0.0351 -0.0736,0.0241 -0.19539,0.0827 -0.27034,0.13016 -0.0753,0.0475 -0.19908,0.15725 -0.27503,0.24358 -0.076,0.0863 -0.17164,0.24223 -0.21212,0.34596 -0.0542,0.13851 -0.074,0.26131 -0.0746,0.45804 -3.3e-4,0.23153 0.0141,0.29979 0.10306,0.4905 0.0572,0.12246 0.16862,0.28473 0.24892,0.36336 0.08,0.078 0.23421,0.18368 0.34261,0.23521 0.10841,0.0515 0.27571,0.10339 0.37173,0.11543 0.099,0.0124 0.26064,0.005 0.37205,-0.0181 0.10808,-0.0221 0.26868,-0.079 0.357,-0.12647 0.088,-0.0475 0.21883,-0.14989 0.29076,-0.22785 0.0716,-0.078 0.17264,-0.22183 0.2245,-0.3202 l 0.094,-0.17866 v -0.33459 c 0,-0.29276 -0.011,-0.35834 -0.0893,-0.52529 -0.0492,-0.10473 -0.15926,-0.26031 -0.24425,-0.34563 -0.0853,-0.085 -0.2409,-0.19472 -0.34562,-0.24358 -0.15157,-0.0706 -0.24893,-0.0907 -0.47511,-0.097 z"
     id="icon" /></svg>